<svg height="16" viewBox="0 0 16 16" width="16" xmlns="http://www.w3.org/2000/svg"><g fill="#fff" fill-rule="evenodd"><path d="m8 16c-4.418278 0-8-3.581722-8-8s3.581722-8 8-8 8 3.581722 8 8-3.581722 8-8 8zm-.01-1.32c3.694785 0 6.69-2.995215 6.69-6.69 0-3.69478498-2.995215-6.69-6.69-6.69-3.69478498 0-6.69 2.99521502-6.69 6.69 0 3.694785 2.99521502 6.69 6.69 6.69zm-.41087709-14.09005725c-.10258623.02191078-.10641912.17832335-.00563661.2063084.08635281.00629122.17586211.00585734.2610876-.01062998.09469498-.03254075.08342176-.18157742-.0133024-.20305432-.08049073-.00412183-.16255971-.00433877-.24214859.0073759zm.72612291-.00146006c-.09312832.03723175-.08413041.19127813.01147233.21780575.08165599.00744635.16466167.01954667.24676755.01047143.10122644-.02257175.10212623-.19337241.00202453-.21827115-.08525515-.01163492-.1756841-.02908731-.26026441-.01000603zm-1.31014714.05638483c-.07250609.01682864-.16985223.00109277-.21639935.06971865-.05079902.06447336.00917515.17287602.09264667.16500809.07541528-.00611951.15150192-.01486166.22490315-.03365728.07116338-.02622645.08526179-.12916528.02953951-.17681-.03356763-.03627992-.08660449-.03103463-.13068998-.02425946zm2.0584667.01813223c-.09237878.02582274-.10005819.16872317-.00993806.20111102.0806338.01947647.16352625.0339197.24664456.03588923.10525308-.01225486.12467747-.17441293.0219089-.20570659-.08402177-.01838229-.17301257-.04289201-.2586154-.03129366zm-2.79232469.12709021c-.06294681.01640936-.1306486.02417054-.18702901.05787624-.06566394.05942847-.03169984.17917241.05841826.1920338.07789102-.00266098.15283848-.028162.22778594-.04811932.08558955-.01596586.10868515-.14324924.03690767-.18937283-.03781338-.03392745-.09125024-.02195305-.13608286-.01241789zm3.52323405.03694348c-.08059882.03477556-.08897566.15779411-.00611283.19387376.07358038.02521228.14965118.04542558.22685399.05890111.0787876.00478164.1378783-.08085318.1059557-.14953492-.0215081-.06063989-.0962205-.06672561-.15055674-.08389605-.0575059-.0115194-.11795502-.03933985-.17614012-.0193439zm-4.19528716.16019465c-.06688165.02009108-.1344481.04040294-.19676445.0713123-.07121868.03554576-.06893603.14924805.00114133.18479381.05980543.04106529.12874147-.00463641.1892317-.02119499.05364228-.02274046.12965453-.0315717.14951359-.09471511.03560934-.08036433-.05934891-.17441709-.14312217-.14019601zm4.86190902.08391287c-.0683644.06680932-.0153705.1774967.0752467.1929312.0793761.02204928.1718286.09150451.2505165.03307392.0768525-.05335926.0445056-.17617375-.0456528-.19645909-.0883231-.02359273-.1970637-.10451358-.2801104-.02954603zm-5.59016706.20917126c-.05520426.02504339-.11129533.04941598-.16184381.08317983-.05830811.04516755-.04988336.1444467.01529757.17999937.05963833.04293153.12504096-.00872047.18091033-.03242225.05697789-.03018622.14011683-.05053398.14366409-.12968898.01330223-.09614873-.1037574-.15450877-.17802818-.10106797zm6.29201036.05557747c-.0471863.02890521-.0669027.0935558-.0423126.14320215.0221532.04457139.0737702.05957562.1145322.08296457.0580414.02736065.1182982.07546245.1865301.05141155.0589276-.01897594.0806378-.09156993.061586-.14584995-.0212671-.0529561-.0815239-.06906359-.1264949-.09532099-.0595922-.02647806-.1289318-.07855156-.1938408-.03640733zm-6.91736831.27811936c-.06607726.03730161-.13509631.07280556-.1921219.12291556-.06539838.07774914.01651932.21077658.11631409.17796914.07739185-.03820045.15546259-.08067036.22108726-.13707219.06426693-.09100695-.04571098-.22088848-.14527945-.16381251zm7.58060841.08048383c-.0678559.03508971-.0762248.1394705-.0142497.18344369.0626536.04130814.1248548.08505924.1933892.11659556.0759986.02642833.1576519-.04752657.1429498-.12348025-.0074642-.06818065-.08007-.09349854-.1289262-.12858826-.0565466-.03442345-.1257596-.08861262-.1931631-.04797074zm-8.19712418.31616877c-.07224257.04630809-.14726371.09421301-.20399265.1587706-.05371884.08714133.04630934.20370997.14147504.16173613.07340031-.04585185.14795835-.09489736.20723431-.15808623.05696049-.08873817-.04677244-.20986918-.1447167-.1624205zm8.77821688.11667401c-.0519435.0407841-.0448704.11872706-.0077363.1674414.0596798.04440936.1144968.09652239.1783763.13504071.0897408.04644856.1929647-.07635691.1354953-.15973775-.0406707-.05098013-.0939404-.08927187-.1430105-.13073571-.0446493-.03851832-.1171492-.05936353-.1631248-.01200865zm-9.36518284.36855027c-.06600693.05047537-.13563067.10204802-.18332746.17008004-.03933289.08931946.06125985.18544211.15235845.14418399.06600693-.05025591.1308836-.1053399.18355351-.1687633.05809514-.08909999-.06125985-.20387659-.1525845-.14550073zm9.91581834.11694439c-.0441863.03775053-.0238282.0986609-.0192014.14799135.0645444.05303602.117753.11973635.1866928.16767721.0932308.04701446.1977973-.05928918.1545364-.15285492-.0462684-.0694795-.1122008-.12274712-.1723497-.17925712-.0483504-.02200185-.1110441-.02663381-.1496781.01644348zm-10.44625179.39892249c-.06607727.05157134-.12106776.11810061-.16829749.18708565-.05299487.08840802.06297297.20137381.15011516.14690019.06452512-.05358062.1188504-.12122614.16696708-.19021119.0421298-.08796151-.06363819-.19065769-.14878475-.14377465zm10.93905269.2321962c.0044707.04005497.034871.0700962.0585654.10080501.0377769.04205772.0713068.08901104.1173544.12283524.0739891.04094508.1736843-.02559068.1625077-.10948358-.0158707-.06898356-.0746597-.11704953-.1162366-.17134627-.0297298-.03382419-.0666126-.07232147-.1160131-.0660907-.0623655.0015577-.1135543.06208521-.1061778.1232803zm-11.40714297.35142906c-.05803447.05525095-.09876809.12799803-.1403777.19683151-.04467559.07896281.0317547.18463025.11541193.16552263.06044344-.01381274.08738019-.07804197.12220086-.12454485.03153571-.05133734.08562821-.1049768.06438541-.17196858-.01795784-.07044496-.10292905-.10267468-.1616205-.06584071zm11.84859757.23513337c.0316226.09361117.0983812.16836379.1570146.24516131.0895972.02340279.1855627-.05112261.1550382-.15109571-.0472142-.0704356-.0858639-.14973244-.1480109-.2076714-.0740055-.05134982-.1829275.02226674-.1640419.1136058zm-12.2497353.38237248c-.07230024.05990971-.11119594.1519059-.14849005.23515123-.03043016.10388838.12332224.17860723.19173291.09783009.04736123-.06641676.0896889-.13732114.12103426-.21203999.02379501-.08571352-.08648573-.16581752-.16427712-.12094133zm12.7454068.12941476c-.079474.00778266-.1231157.10161928-.0822303.16632653.0344541.06137182.0636252.12719087.1088748.18233656.0695972.06715323.1984553.00911683.1954693-.08516451-.020213-.07471352-.0645439-.1409773-.1047403-.20701871-.0227397-.03935802-.070516-.06715323-.1173735-.05647987zm-13.07772071.52999023c-.05800107.02657937-.07091537.09753474-.09787681.15000012-.01880503.05269649-.06094644.11001549-.03285217.16756561.02741457.0804315.14953401.096148.19439422.02380588.03693037-.06910637.0672903-.142373.09334547-.21656412.02129727-.08644074-.08020461-.16895236-.15701071-.12480749zm13.36515381.1512111c-.0462219.03268872-.0567477.09668493-.0329503.14640861.0272297.06514723.0489677.13397769.0880961.19313966.0624682.07688754.2027354.02509204.1995319-.07550633-.0128139-.08057077-.0530864-.15423548-.0858078-.22813039-.0286027-.0623848-.1171564-.07780835-.1688699-.03591155zm-13.66488734.53685111c-.04336419.0361785-.05021117.09731558-.07052387.14723275-.01620452.05838935-.0524935.13074634-.009814.18593.04427712.06800642.16569685.06090811.19376946-.01808925.02670321-.07785246.06116633-.15616288.06618745-.23905286-.00479288-.08609567-.11480099-.12250314-.17961904-.07602064zm13.91503214.16844467c-.0545724.04089566-.0338487.11405345-.0179606.1688082.0221053.0599803.0301645.1313205.0775988.17812331.0683882.05861711.1876647.00363517.1849015-.08565368-.0112829-.09269683-.0485856-.17925931-.0819737-.26559459-.0513488-.0243102-.1176647-.04180445-.162566.00431676zm-14.08997291.54039385c-.07341743.02806421-.0722914.1169716-.09008274.18050896-.00855786.05792451-.03783475.13448366.01779134.17826382.05269841.05994513.16327497.03075836.18264276-.0460253.01756613-.066007.03152895-.13313658.04323971-.20026615.01148555-.07947782-.08152488-.14683191-.15359107-.11248133zm14.30515411.13970629c-.0497475.01979585-.0819236.07603407-.0668625.12822313.0118664.07198492.0207662.14599441.0492911.21393017.0486066.08368247.1953389.05398869.2069771-.04296599-.0004564-.0740095-.0223636-.14644432-.0376529-.21842923-.009128-.0663611-.0908235-.10910214-.1517528-.08075808zm-14.45657006.6025396c-.02202987.01533467-.04675727.03517954-.05012919.0640448-.01528603.08050703-.0289985.16281814-.02202987.24490374.01730918.07847744.12813291.10576413.18388196.05073972.04383494-.04194484.03484316-.10847025.04450932-.16304364.00179836-.0523183.02472741-.11027434-.00674383-.15763141-.02764974-.05276932-.09980879-.06111318-.14948839-.03901321zm14.53402646.14794113c-.0875673.06807169-.0283637.19055594-.0299394.28303491.0029264.10188361.1560004.13479985.2043988.04635144.0375932-.07680456.0036017-.16659649-.0011256-.24765554-.0002251-.08352217-.1078271-.12964969-.1733338-.08173081zm-14.60126819.57954465c-.06121076.04531034-.04284753.13074624-.04678251.19747191.0043722.04846627-.01049327.10707666.02535874.14652595.03169844.04237982.09116032.04328152.13684978.02817807.08963004-.06514769.04612668-.19386511.05399664-.28899427.00546524-.08859185-.10602579-.12871742-.16942265-.08318166zm14.67295269.14656268c-.0399807.01397527-.0777885.0511675-.0740946.09827767-.0006519.08272455-.0141236.16747776.003042.24907527.0312892.0930933.1764364.08835974.2012071-.00766385.009126-.07956884.0112988-.16071554.0095605-.2407352-.0043457-.06717143-.0775711-.12239627-.139715-.09895389zm-14.60772854.58075178c-.03809815.01815326-.07459937.0546839-.07186178.09928265.00182507.0748542.00844091.15015662.02212887.22389024.03034163.09614505.18775313.09345568.21490091-.00425818.01003784-.07956059-.00935344-.1609141-.01642555-.24047469-.00798464-.0656655-.08988424-.09950677-.14874245-.07844002zm14.57298764.18359205c-.0947381.04795213-.0634567.17508102-.082449.26161788-.0210032.08899022.0927272.16370633.166462.11107051.0466988-.02274938.0509441-.07850767.0583176-.12356037.0069266-.06155714.0185454-.12400643.009161-.18556357-.0198861-.06088805-.0942912-.09010539-.1514916-.06356445zm-14.50093712.56037558c-.11658571.06610268-.04148875.20849509-.02572766.30855462.01900602.10866194.2009539.1079828.22111882 0 .00440384-.07651611-.01854246-.15190033-.03383999-.22637903-.00857588-.07153577-.09688434-.11273676-.16155117-.08217559zm14.38159912.17847487c-.0622331.02005796-.0706986.09037348-.0828249.14423698-.0112111.05859627-.0320317.11877013-.0183038.17871862.0288285.08293626.1590145.09262718.201571.01690277.0311165-.07707663.0455308-.16046363.0537675-.24249841.0041183-.0750483-.0876296-.12755957-.1542098-.09735996zm-14.23514375.56385088c-.06358577.06693355-.01086738.15941945.00693663.23404135.01687914.0456777.02982751.1044707.0825459.1239176.0672853.0314316.15884882-.0189947.16000492-.0931643-.00508686-.0743958-.03352704-.144269-.05410571-.2150467-.02520309-.08004896-.13480184-.1114806-.19538174-.04974795zm14.05778985.13638495c-.087885.0433393-.0874366.158685-.1199451.2399462-.0428215.101125.0887818.1963811.1708377.1279863.056946-.0586886.0645686-.1487531.0928174-.2232425.036544-.0857756-.0594121-.1839662-.14371-.14469zm-13.7849115.5435188c-.07332379.029766-.07721912.1247884-.04124463.1854653.03574535.067317.0453691.1676057.12762923.19554.08065617.0309109.1716235-.052892.14573104-.1362369-.02153887-.0631956-.04834788-.1243305-.07538603-.1847784-.02222627-.060448-.09990367-.0913589-.15672961-.05999zm13.5106895.1610798c-.073474.0562952-.0902035.1610411-.1286361.2422538-.0357196.1077453.1132631.1938031.1865111.1114368.0474755-.0689847.0759608-.1506588.1044462-.2293336.0248681-.0890571-.0845517-.170962-.1623212-.124357zm-13.22367237.5259156c-.05169304.0299454-.06397883.0989985-.03523472.1481626.03430749.0625725.06351522.1293909.11103573.1841418.06421064.0610081.19355915.0172074.19379096-.0735226-.00347711-.0811207-.06560148-.1461514-.10037259-.2174393-.02804869-.0607847-.11451284-.0786625-.16921938-.0413425zm12.88955277.1590701c-.0542034.0557886-.0847501.1299468-.1240246.1961675-.0447866.0673546.0105651.1709945.0946261.164191.081305.0120195.1136892-.0734778.1485998-.1283593.0298578-.056469.0833721-.1201951.0505285-.1868694-.027561-.0628189-.1139188-.0816419-.1697298-.0451298zm-12.53126318.4921418c-.0365392.0362184-.03366035.0934297-.01638727.1391065.04118964.0636706.07839319.1314936.12999098.18709.07108535.061133.18823225-.0076128.17693832-.102888-.03211021-.0964287-.09876657-.1750941-.16077249-.2521448-.0440685-.0018455-.09655208-.0092276-.12976954.0288363zm12.16483668.1149591c-.087967.0372356-.123754.1385991-.1800898.2096225-.0565667.099065.0780389.2114613.1683147.1445752.0586446-.057922.103898-.1289454.1461498-.1990495.045946-.0818263-.0477931-.1861778-.1343747-.1551482zm-11.7090475.4746417c-.04070542.0280781-.03625674.0824374-.0444868.1260147.05694311.0680614.10476642.1466802.17616774.2010395.08252302.0455989.18817917-.0393094.15881788-.1314057-.04115029-.0828867-.11210674-.1451078-.17016202-.2156402-.04026055.0020217-.08674926-.0083111-.1203368.0199917zm11.2571699.1040033c-.0571388.0191245-.0880427.076273-.1282845.1174469-.0386854.0438739-.0936009.0985474-.0658097.1631207.0175641.076948.1300631.1007974.1798651.0434239.0504689-.0564735.1091641-.1082222.1445146-.1763954.0346835-.0791979-.0489127-.1730205-.1302855-.1475961zm-10.77893413.459717c-.04048742.050212-.02195928.1191666.01715569.1640565.05306826.0472039.10041796.1015809.15966227.1416116.09103951.0444271.19420238-.0627071.14982634-.1541067-.03842874-.0557653-.08943832-.101118-.13610179-.1492475-.04849341-.0548397-.14479401-.0673349-.19054251-.0023139zm10.26593883.0840018c-.0747842.0435685-.1339317.111934-.1914929.1763598-.0575611.0855149.0403382.2099633.1350648.1668582.0731979-.0470447.1375576-.1107753.1919461-.1796043.055295-.0850513-.0450971-.2034743-.135518-.1636137zm-9.72915011.5484061c.04767293.0554243.1087121.0971636.16395923.1446049.04745016.0262296.1140586.0294228.15148408-.0166501.03608885-.0378618.02495032-.093058.0167078-.1391308-.07284602-.0520031-.13210302-.1274987-.21608758-.1607988-.09334092-.0291947-.17398391.0937422-.11606353.1719748zm9.14087131-.0555874c-.0616282.043933-.1260367.0860354-.1804828.1384346-.0602381.0819166.0261805.2093679.1269636.1750453.0796997-.0375261.1494369-.0958745.2117603-.1569688.0748343-.0931286-.0634818-.2297326-.1582411-.1565111zm-8.4939303.3256873c-.08128818.0314809-.0906238.1592163-.01343418.2008888.07422955.042352.14231125.1198085.23452894.1121082.0917623-.0072474.1254616-.1429096.05373673-.1956797-.08561445-.0468816-.16849652-.15061-.27483149-.1173173zm7.9046867.0821529c-.0720931.0378793-.1464463.0759841-.2076916.129872-.0637312.0753077.0124299.2015721.1089308.1787994.0786471-.0290859.1496102-.0775624.2169575-.1271663.081811-.0766605-.0146899-.2277269-.1181967-.1815051zm-7.2746648.3049103c-.07077859.0342887-.07721301.149903-.00687817.1879283.06456606.0349481.12979774.0705555.1990232.0958324.06944734.016485.14133532-.044839.13024149-.1156143.00244064-.0729733-.07676926-.1004482-.13046337-.1281429-.05946289-.0259363-.12602583-.0782485-.19192315-.0400035zm6.628985.077582c-.0648917.0286639-.1308908.056656-.1904671.095397-.0558113.0492661-.0427443.14847.0241406.1813887.0631199.0351581.1260183-.0152277.1840443-.0380692.0529322-.0273203.1277901-.0503858.1344343-.1209258.0188253-.0837523-.0775156-.1576514-.1521521-.1177907zm-5.97732508.2390981c-.03830965.0372507-.02746294.0923552-.02423201.1395246.08561977.0506962.17885532.0943389.27947586.1093273.10338992.0138864.15854659-.1304874.07823478-.1880165-.05561823-.0346056-.11977537-.0533412-.18047079-.0767055-.0498487-.0180743-.1133135-.0251276-.15300784.0158701zm5.29538858.039142c-.0667201.0226149-.135971.0407515-.1980897.0736662-.0722418.046797-.0547565.1668123.0271482.1932336.0821348.017241.1587479-.0293321.2346708-.0523947.0522257-.0138824.0991599-.059336.0920277-.1155372.0057517-.0774726-.0860459-.130763-.155757-.0989679zm-4.5631206.1799238c-.07400686.0323976-.08172537.144476-.0136209.1867243.05402955.0260494.11441552.0372135.17253133.0531934.04699209.0107262.10578895.0234226.14279238-.0161988.07446089-.0553825.03110104-.1795005-.05993194-.1886944-.0792282-.0131342-.16231566-.0652331-.24177087-.0350245zm3.84864187.0407268c-.07310054.0264417-.17859025.0157339-.21750223.0950593-.03711258.0664322.02069308.1520948.09626779.1549357.07422517-.012019.14732571-.0303753.21930162-.0515724.06972667-.0194489.09581794-.1134156.04993329-.1665177-.03418856-.0450166-.09739241-.0504798-.14800047-.0319049zm-3.1507059.1328706c-.07223371.0535092-.03645651.1840195.05774167.1892399.07495097.0110934.15148699.0356728.22757014.0254495.11140748-.0245794.09759476-.2070763-.01992654-.2096865-.08649929-.0082656-.18567911-.0552493-.26538527-.0050029zm2.34579977.0310199c-.04510506.0107407-.10165468.004384-.13284674.0436203-.05004193.0442779-.03769975.1319569.02019629.1652749.03455811.0271805.07966317.0149054.12005576.0113982.05453-.0083295.11063082-.0116174.1638144-.027838.07809235-.0280573.08796609-.1501503.01570823-.1902634-.05767164-.0320028-.12589024-.0072335-.18692794-.002192zm-1.59906189.0645894c-.07238847.0498177-.05445944.1814292.03137581.20321.07507782.0139026.15217266.0173783.22837105.0183051.08986928-.0083416.1284167-.1399531.06095872-.1988075-.03877154-.042403-.09995436-.0282687-.14993154-.0361468-.05670057-.0004634-.11877984-.0173783-.17077404.0134392zm.76540668-.0061596c-.09936796.0314169-.0921739.1878515.01213997.205835.08070836.0026.16321524.0043334.24324916-.0084501.096895-.0264335.09914314-.1729014.0047211-.2034517-.08587909-.0123501-.17445596-.0043333-.26011023.0060668z"/><path d="m6.9622 4.8492c.3228-.5558.6418-1.1138.9652-1.6692.1126.1946.2254.389.337.5842.2164.3726.4294.7476.6478 1.119.2308.0402.4724.0154.6998.083.22.0528.43.1478.6162.2762.2036.1418.3734.334.4806.5584.1506.3012.1712.661.0746.982-.0768.25-.2268.4752-.4214.6494-.203.1832-.4534.306-.7118.3896.2906.0772.5872.1652.833.345.247.1808.434.4418.5252.7342.1026.3412.0886.7182-.0486 1.0478-.1132.2698-.2982.5088-.53.6872-.2394.1844-.5204.3118-.8132.384-.2298.0632-.4706.0584-.7062.0832-.331.5644-.6544 1.1334-.9834 1.699-.1318-.2268-.2626-.4544-.3938-.6816-.1856-.3242-.3746-.6462-.559-.971-.2882-.001-.5764-.0002-.8644-.0004-.3966-.0008-.7932.0012-1.1898-.001.0016-.2912-.0002-.5826.001-.874.173-.0044.3484.0136.5196-.0192.1036-.0178.2008-.0968.2158-.2048.0306-.1926.0168-.3884.0196-.5824-.0008-.283-.0004-.5658-.0002-.8486.001-.61 0-1.2202.0004-1.8304-.004-.2474.0088-.4954-.008-.7424-.0062-.0704-.0134-.1472-.062-.2028-.0558-.068-.1434-.0982-.2286-.1064-.1518-.0158-.3046-.0048-.457-.008 0-.2934 0-.5866 0-.88.6806-.0002 1.361.0002 2.0416 0zm.2936 1.0244c-.0004.4218-.0012.8436.0004 1.2656-.0012.0866-.0006.1732-.0006.2598.2252-.0002.4504.0012.6756-.0008.2072.0056.4154-.0034.6204-.0352.1824-.03.3664-.0916.507-.2154.2618-.2224.3028-.6384.1262-.9248-.1288-.201-.366-.2966-.5954-.3196-.4426-.0524-.8892-.021-1.3336-.0296zm-.0002 2.4556c-.0002.215-.0004.43.0002.645-.0004.1314-.0002.2628-.0002.3942.0042.2262-.0122.4554.0284.6788.0588.1068.1954.0866.2982.0926.3922-.0086.7924.031 1.1764-.0692.239-.0604.4408-.2328.557-.4476.1124-.216.128-.4764.0594-.7084-.0576-.192-.2026-.3512-.382-.438-.325-.155-.6966-.1412-1.048-.1466-.2298-.0018-.4596-.0002-.6894-.0008z" fill-rule="nonzero"/></g></svg>