<svg xmlns="http://www.w3.org/2000/svg" xmlns:xlink="http://www.w3.org/1999/xlink" width="15.65" height="15.65"><defs><path id="a" d="M242.17 242.42a7.82 7.82 0 1 1 3.79-15.18 7.82 7.82 0 0 1-3.79 15.18zm3.62-10.68l.35-1.41-.86-.22-.34 1.37-.69-.16.35-1.38-.86-.21-.35 1.4-.55-.12-1.18-.3-.23.91s.64.15.62.16c.35.09.41.32.4.5l-.4 1.6a.7.7 0 0 1 .1.03l-.1-.02-.56 2.25c-.04.1-.15.27-.4.2.02.02-.62-.15-.62-.15l-.42.98 1.11.28.61.16-.35 1.43.86.21.35-1.41.68.18-.35 1.4.86.22.35-1.43c1.47.28 2.56.17 3.03-1.16.37-1.06-.02-1.68-.79-2.08.56-.13.98-.5 1.1-1.26.15-1.04-.64-1.6-1.72-1.97zm-.24 4.71c-.26 1.07-2.06.5-2.64.35l.47-1.88c.58.14 2.45.43 2.17 1.53zm.27-2.76c-.24.96-1.74.47-2.22.35l.42-1.7c.49.12 2.05.34 1.8 1.35z"/></defs><use fill="#fff" xlink:href="#a" opacity=".8" transform="translate(-236.24 -227)"/></svg>