<svg xmlns="http://www.w3.org/2000/svg" xmlns:xlink="http://www.w3.org/1999/xlink" width="17.85" height="16.88"><defs><path id="a" d="M882.01 1598.03c0-.56.46-1.02 1.03-1.02.58 0 1.04.46 1.04 1.02s-.46 1.02-1.04 1.02c-.57 0-1.03-.46-1.03-1.02z"/><path id="b" d="M882.46 1600.72c0-.47.4-.86.88-.86s.87.39.87.86c0 .48-.4.87-.88.87a.87.87 0 0 1-.87-.86z"/><path id="c" d="M882.32 1602.99c0-.4.33-.73.74-.73.4 0 .74.33.74.73 0 .4-.33.73-.74.73a.74.74 0 0 1-.74-.73z"/><path id="d" d="M881.75 1604.83c0-.35.28-.63.63-.63s.63.28.63.63c0 .34-.28.62-.63.62a.63.63 0 0 1-.63-.63z"/><path id="e" d="M880.93 1606.2c0-.29.24-.53.55-.53.3 0 .54.24.54.53 0 .3-.24.54-.55.54a.54.54 0 0 1-.54-.54z"/><path id="f" d="M879.99 1607.19c0-.25.2-.46.47-.46.25 0 .46.2.46.46a.46.46 0 1 1-.93 0z"/><path id="g" d="M884.76 1601.04c0-.48.4-.87.88-.87.49 0 .88.39.88.87s-.4.87-.88.87a.88.88 0 0 1-.88-.87z"/><path id="h" d="M884.61 1603.33c0-.41.33-.74.74-.74.42 0 .75.33.75.74 0 .4-.33.73-.74.73a.74.74 0 0 1-.75-.73z"/><path id="i" d="M884.05 1605.15c0-.34.28-.62.63-.62s.63.28.63.62c0 .34-.28.62-.63.62a.63.63 0 0 1-.63-.62z"/><path id="j" d="M883.23 1606.54c0-.3.24-.53.54-.53a.53.53 0 1 1 0 1.06.54.54 0 0 1-.54-.53z"/><path id="k" d="M882.28 1607.5c0-.25.2-.45.46-.45.25 0 .46.2.46.45 0 .26-.2.46-.46.46a.46.46 0 0 1-.46-.46z"/><path id="l" d="M881.3 1608.13a.4.4 0 0 1 .4-.39c.21 0 .39.17.39.39a.4.4 0 0 1-.4.39.4.4 0 0 1-.39-.39z"/><path id="m" d="M886.43 1603.99c0-.4.34-.74.75-.74s.75.33.75.74c0 .4-.34.74-.75.74a.75.75 0 0 1-.75-.74z"/><path id="n" d="M885.86 1605.82c0-.35.28-.63.64-.63a.63.63 0 1 1-.01 1.26.63.63 0 0 1-.63-.63z"/><path id="o" d="M885.05 1607.21c0-.3.25-.54.55-.54.3 0 .55.24.55.54 0 .3-.25.55-.55.55a.55.55 0 0 1-.55-.55z"/><path id="p" d="M884.09 1608.19c0-.26.21-.47.48-.47s.48.21.48.47-.21.47-.48.47a.48.48 0 0 1-.48-.47z"/><path id="q" d="M883.12 1608.82c0-.23.18-.41.41-.41a.4.4 0 0 1 .41.4.4.4 0 0 1-.41.41.4.4 0 0 1-.41-.4z"/><path id="r" d="M882.21 1609.13c0-.19.15-.34.34-.34.2 0 .35.15.35.34 0 .19-.15.34-.34.34a.34.34 0 0 1-.35-.34z"/><path id="s" d="M883.19 1612.31c0-.56.46-1.02 1.03-1.02.58 0 1.04.46 1.04 1.02s-.46 1.02-1.03 1.02c-.58 0-1.04-.46-1.04-1.02z"/><path id="t" d="M880.84 1611.2c0-.47.4-.86.88-.86s.87.39.87.86c0 .48-.4.87-.88.87a.87.87 0 0 1-.87-.86z"/><path id="u" d="M879.12 1609.84c0-.4.33-.73.74-.73.4 0 .74.33.74.73 0 .4-.33.73-.74.73a.74.74 0 0 1-.74-.73z"/><path id="v" d="M877.96 1608.36c0-.35.28-.63.63-.63s.63.28.63.63c0 .34-.28.62-.63.62a.63.63 0 0 1-.63-.63z"/><path id="w" d="M877.29 1606.87c0-.29.24-.53.55-.53.3 0 .54.24.54.53 0 .3-.24.54-.55.54a.54.54 0 0 1-.54-.54z"/><path id="x" d="M877.01 1605.51c0-.25.2-.46.47-.46a.461.461 0 0 1-.01.92.46.46 0 0 1-.46-.46z"/><path id="y" d="M879.41 1613.03c0-.48.4-.87.88-.87.49 0 .88.39.88.87s-.4.87-.88.87a.88.88 0 0 1-.88-.87z"/><path id="z" d="M877.68 1611.64c0-.4.33-.73.74-.73.42 0 .75.33.75.73 0 .41-.33.74-.74.74a.74.74 0 0 1-.75-.74z"/><path id="A" d="M876.53 1610.15c0-.34.28-.62.63-.62s.63.28.63.62c0 .34-.28.62-.63.62a.63.63 0 0 1-.63-.62z"/><path id="B" d="M875.86 1608.67c0-.3.24-.53.54-.53a.53.53 0 1 1 0 1.06.54.54 0 0 1-.54-.53z"/><path id="C" d="M875.6 1607.32c0-.26.2-.46.46-.46a.46.46 0 0 1 0 .91.46.46 0 0 1-.46-.46z"/><path id="D" d="M875.64 1606.11a.4.4 0 0 1 .4-.39c.21 0 .39.17.39.39a.4.4 0 0 1-.4.39.4.4 0 0 1-.39-.39z"/><path id="E" d="M876.18 1612.87c0-.4.34-.74.75-.74s.75.33.75.74c0 .4-.34.74-.75.74a.75.75 0 0 1-.75-.74z"/><path id="F" d="M875.03 1611.37c0-.35.28-.63.64-.63a.63.63 0 1 1-.01 1.26.63.63 0 0 1-.63-.63z"/><path id="G" d="M874.35 1609.91c0-.3.25-.54.55-.54.3 0 .55.24.55.54 0 .3-.25.55-.55.55a.55.55 0 0 1-.55-.55z"/><path id="H" d="M874.07 1608.54a.47.47 0 0 1 .95 0 .47.47 0 0 1-.95 0z"/><path id="I" d="M874.11 1607.35c0-.23.18-.41.41-.41a.4.4 0 0 1 .41.4.4.4 0 0 1-.41.41.4.4 0 0 1-.41-.4z"/><path id="J" d="M874.38 1606.34c0-.19.15-.34.34-.34.2 0 .35.15.35.34 0 .19-.15.34-.34.34a.34.34 0 0 1-.35-.34z"/><path id="K" d="M870.08 1606.18c0-.56.46-1.02 1.03-1.02.58 0 1.04.46 1.04 1.02s-.46 1.02-1.04 1.02c-.57 0-1.03-.46-1.03-1.02z"/><path id="L" d="M872.45 1604.6c0-.48.4-.87.88-.87s.87.39.87.86c0 .48-.4.87-.88.87a.87.87 0 0 1-.87-.87z"/><path id="M" d="M874.71 1603.69c0-.4.33-.73.74-.73.4 0 .74.33.74.73 0 .4-.33.73-.74.73a.74.74 0 0 1-.74-.73z"/><path id="N" d="M876.76 1603.36c0-.35.28-.63.64-.63.35 0 .63.28.63.63 0 .34-.28.62-.64.62a.63.63 0 0 1-.63-.63z"/><path id="O" d="M878.53 1603.43c0-.29.24-.53.54-.53.3 0 .55.24.55.53 0 .3-.24.54-.55.54a.54.54 0 0 1-.54-.54z"/><path id="P" d="M879.97 1603.82a.46.46 0 0 1 .93 0c0 .25-.2.46-.47.46a.46.46 0 0 1-.46-.46z"/><path id="Q" d="M872.2 1601.63a.88.88 0 0 1 1.09.58.87.87 0 0 1-.59 1.08.88.88 0 0 1-1.1-.58.87.87 0 0 1 .6-1.08z"/><path id="R" d="M873.85 1601.57c0-.41.33-.74.74-.74.42 0 .75.33.75.74 0 .4-.33.73-.74.73a.74.74 0 0 1-.75-.73z"/><path id="S" d="M875.9 1601.22c0-.34.28-.62.63-.62s.63.28.63.62c0 .34-.28.62-.63.62a.63.63 0 0 1-.63-.62z"/><path id="T" d="M877.67 1601.32c0-.3.24-.53.54-.53a.53.53 0 1 1 0 1.06.54.54 0 0 1-.54-.53z"/><path id="U" d="M879.11 1601.7c0-.25.2-.45.46-.45a.46.46 0 1 1 0 .91.46.46 0 0 1-.46-.46z"/><path id="V" d="M880.24 1602.28a.4.4 0 0 1 .4-.39c.21 0 .39.17.39.39a.4.4 0 0 1-.4.39.4.4 0 0 1-.39-.39z"/><path id="W" d="M873.52 1599.67c0-.4.34-.74.75-.74s.75.33.75.74c0 .4-.34.74-.75.74a.75.75 0 0 1-.75-.74z"/><path id="X" d="M876.17 1598.71c.35-.02.66.24.68.58a.63.63 0 0 1-.59.68.63.63 0 0 1-.68-.59.63.63 0 0 1 .6-.67z"/><path id="Y" d="M877.33 1599.41c0-.3.25-.54.55-.54a.55.55 0 0 1 0 1.09.55.55 0 0 1-.55-.55z"/><path id="Z" d="M878.78 1599.8c0-.26.21-.47.48-.47s.48.21.48.47-.21.47-.48.47a.48.48 0 0 1-.48-.47z"/><path id="aa" d="M879.91 1600.38c0-.23.18-.41.41-.41a.4.4 0 0 1 .41.4.4.4 0 0 1-.41.41.4.4 0 0 1-.41-.4z"/><path id="ab" d="M881.07 1600.71c.2-.01.36.13.37.32a.34.34 0 0 1-.32.36.35.35 0 0 1-.37-.31.34.34 0 0 1 .32-.37z"/></defs><use fill="#fff" xlink:href="#a" transform="translate(-870.08 -1597.01)"/><use fill="#fff" xlink:href="#b" transform="translate(-870.08 -1597.01)"/><use fill="#fff" xlink:href="#c" transform="translate(-870.08 -1597.01)"/><use fill="#fff" xlink:href="#d" transform="translate(-870.08 -1597.01)"/><use fill="#fff" xlink:href="#e" transform="translate(-870.08 -1597.01)"/><use fill="#fff" xlink:href="#f" transform="translate(-870.08 -1597.01)"/><use fill="#fff" xlink:href="#g" transform="translate(-870.08 -1597.01)"/><use fill="#fff" xlink:href="#h" transform="translate(-870.08 -1597.01)"/><use fill="#fff" xlink:href="#i" transform="translate(-870.08 -1597.01)"/><use fill="#fff" xlink:href="#j" transform="translate(-870.08 -1597.01)"/><use fill="#fff" xlink:href="#k" transform="translate(-870.08 -1597.01)"/><use fill="#fff" xlink:href="#l" transform="translate(-870.08 -1597.01)"/><use fill="#fff" xlink:href="#m" transform="translate(-870.08 -1597.01)"/><use fill="#fff" xlink:href="#n" transform="translate(-870.08 -1597.01)"/><use fill="#fff" xlink:href="#o" transform="translate(-870.08 -1597.01)"/><use fill="#fff" xlink:href="#p" transform="translate(-870.08 -1597.01)"/><use fill="#fff" xlink:href="#q" transform="translate(-870.08 -1597.01)"/><use fill="#fff" xlink:href="#r" transform="translate(-870.08 -1597.01)"/><use fill="#fff" xlink:href="#s" transform="translate(-870.08 -1597.01)"/><use fill="#fff" xlink:href="#t" transform="translate(-870.08 -1597.01)"/><use fill="#fff" xlink:href="#u" transform="translate(-870.08 -1597.01)"/><use fill="#fff" xlink:href="#v" transform="translate(-870.08 -1597.01)"/><use fill="#fff" xlink:href="#w" transform="translate(-870.08 -1597.01)"/><use fill="#fff" xlink:href="#x" transform="translate(-870.08 -1597.01)"/><use fill="#fff" xlink:href="#y" transform="translate(-870.08 -1597.01)"/><use fill="#fff" xlink:href="#z" transform="translate(-870.08 -1597.01)"/><use fill="#fff" xlink:href="#A" transform="translate(-870.08 -1597.01)"/><use fill="#fff" xlink:href="#B" transform="translate(-870.08 -1597.01)"/><use fill="#fff" xlink:href="#C" transform="translate(-870.08 -1597.01)"/><use fill="#fff" xlink:href="#D" transform="translate(-870.08 -1597.01)"/><use fill="#fff" xlink:href="#E" transform="translate(-870.08 -1597.01)"/><use fill="#fff" xlink:href="#F" transform="translate(-870.08 -1597.01)"/><use fill="#fff" xlink:href="#G" transform="translate(-870.08 -1597.01)"/><use fill="#fff" xlink:href="#H" transform="translate(-870.08 -1597.01)"/><use fill="#fff" xlink:href="#I" transform="translate(-870.08 -1597.01)"/><use fill="#fff" xlink:href="#J" transform="translate(-870.08 -1597.01)"/><use fill="#fff" xlink:href="#K" transform="translate(-870.08 -1597.01)"/><use fill="#fff" xlink:href="#L" transform="translate(-870.08 -1597.01)"/><use fill="#fff" xlink:href="#M" transform="translate(-870.08 -1597.01)"/><use fill="#fff" xlink:href="#N" transform="translate(-870.08 -1597.01)"/><use fill="#fff" xlink:href="#O" transform="translate(-870.08 -1597.01)"/><use fill="#fff" xlink:href="#P" transform="translate(-870.08 -1597.01)"/><use fill="#fff" xlink:href="#Q" transform="translate(-870.08 -1597.01)"/><use fill="#fff" xlink:href="#R" transform="translate(-870.08 -1597.01)"/><use fill="#fff" xlink:href="#S" transform="translate(-870.08 -1597.01)"/><use fill="#fff" xlink:href="#T" transform="translate(-870.08 -1597.01)"/><use fill="#fff" xlink:href="#U" transform="translate(-870.08 -1597.01)"/><use fill="#fff" xlink:href="#V" transform="translate(-870.08 -1597.01)"/><use fill="#fff" xlink:href="#W" transform="translate(-870.08 -1597.01)"/><use fill="#fff" xlink:href="#X" transform="translate(-870.08 -1597.01)"/><use fill="#fff" xlink:href="#Y" transform="translate(-870.08 -1597.01)"/><use fill="#fff" xlink:href="#Z" transform="translate(-870.08 -1597.01)"/><use fill="#fff" xlink:href="#aa" transform="translate(-870.08 -1597.01)"/><use fill="#fff" xlink:href="#ab" transform="translate(-870.08 -1597.01)"/></svg>