<svg xmlns="http://www.w3.org/2000/svg" xmlns:xlink="http://www.w3.org/1999/xlink" width="160.55" height="179.1"><defs><path id="a" d="M1103.26 1727.22l-.18-1.35a4.03 4.03 0 0 0-1.98-2.94 49.45 49.45 0 0 0-25.02-6.58c-6.07 0-12.52 1-19.24 3 9.92-16.02 22.1-28.99 36.28-38.6a4.02 4.02 0 0 0 1.73-3.89c-.08-.52-.2-1-.39-1.46l2.39-1.61a4.02 4.02 0 0 0 1.73-3.88l-.2-1.35a4.03 4.03 0 0 0-3.6-3.46 4.01 4.01 0 0 0-1.51-2.62 10.83 10.83 0 0 0-6.82-2.18c-1.95 0-4.12.4-6.56 1.22a4.02 4.02 0 0 0-5.74-1.26c-17.75 12.04-21.75 12.96-22.3 13.02h-.01c-1.4 0-2.71.73-3.45 1.93l-18.94 30.8a4.05 4.05 0 0 0-3.2 1.9l-6.4 10.24c-.04.07-.25.13-.56.2l9.35-32.88c6.54-18.77 11.91-31.1 15.98-36.62.68-.92.94-2.09.7-3.2l-.8-3.88a4.02 4.02 0 0 0-2.23-2.81l-.02-.1a4.03 4.03 0 0 0-7.28-1.47c-.8 1.17-1.55 2.29-2.23 3.35l-5.94-1.13a4.14 4.14 0 0 0-3.03.63l-2.85 1.93c-.44.3-.8.67-1.1 1.1a4.1 4.1 0 0 0-3.97.93c-2.98 2.8-5.24 7.11-6.91 13.16-.18.63-.2 1.29-.06 1.9-.8.36-1.5.98-1.93 1.8-5.5 10.26-8.78 18.57-10.03 25.4-.1.5-.1 1.03.01 1.54l.28 1.3c.09.43.25.85.47 1.22a4 4 0 0 0-.84.44l-1.43.97a4.03 4.03 0 0 0-1.74 2.82l-.61 4.84a4 4 0 0 0 .05 1.33l.02.11-1.01 2.55c-.05-.17-.1-.34-.17-.5-6.63-15.81-13.1-27.75-19.21-35.5a4.04 4.04 0 0 0-5.45-.84l-2.82 1.9a9.9 9.9 0 0 0-3.74-.68c-4.18 0-9.33 2.18-16.23 6.86a4.03 4.03 0 0 0-.93 5.78l3.46 4.5-.4 3.2a4.02 4.02 0 0 0 5.08 4.39c2.15 2.12 8.2 12.38 19.84 61.27l1.32 6.3-.51 1a4.02 4.02 0 0 0 .5 4.42l-.1.78a4 4 0 0 0 .4 2.33l2.78 5.48a4.05 4.05 0 0 0 5.88 1.52l2.87-1.94c.56-.38 1.01-.9 1.32-1.5l.08-.15c.46.06.87.09 1.2.09 2.73 0 5.8-1.18 9.37-3.61l2.86-1.94a4.02 4.02 0 0 0 1.68-4.15c-.26-1.27-.15-2.17.43-2.94l.52.03c.8 0 1.6-.24 2.28-.7l2.86-1.93a4.02 4.02 0 0 0 1.6-2.23l3.29-11.53-.2 1.55a4 4 0 0 0-.12 1.65c1.18 8.77 14.15 9.78 23.8 9.78h1.44a4.05 4.05 0 0 0 3.95-4.61l10.17-2.93a4.03 4.03 0 0 0 2.8-2.92c2.6-1.23 7.28-2.84 15.72-4.72-1.48 8.2-9.53 21.7-35.05 43.28l-1.73 1.18-3.52.16c-1.26.05-2.42.69-3.14 1.72l-3.9 5.6c-.56.79-.8 1.74-.72 2.7.07.71.18 1.41.32 2.08 1.89 9.04 7.6 10.39 10.85 10.39.44 0 .9-.03 1.37-.08 2.58.97 5.19 1.47 7.78 1.47h.26l.24 1.7a4.03 4.03 0 0 0 6.66 2.48c25.39-22.12 26.34-26.08 26.01-28.74l4-3.4c.27-.24.5-.5.7-.8 14.53-21.13 22.18-38.38 23.4-52.73.02-.3.01-.59-.03-.88"/><path id="c" d="M997.35 1701.38l-.27-1.29.62-4.84 1.43-.97.81 3.87-1.16 2.26zm27.43-17.12l-19.75 69.45-2.86 1.94-1.7-.32c-2.86 1.94-3.93 4.63-3.2 8.07l-2.86 1.94c-6.68 4.53-10.64 3.78-11.9-2.25l.62-4.85-2.32 4.52.8 3.88 1.7.32.28 1.3-1.16 2.25-2.86 1.94-2.78-5.49.62-4.84-1.43.97 1.16-2.26-1.62-7.76c-11.09-46.57-19.38-68-24.87-64.27l.62-4.85-4.48-5.8c11.43-7.76 17.88-8.2 19.32-1.3l1.43-.97-.82-3.88 2.86-1.94c5.92 7.5 12.14 19.02 18.66 34.56l-1.43.97 1.7.32 2.43 11.63 2.86-1.94-1.16 2.26 1.35 6.46 1.43-.97c1.96-11.1 7.15-27.9 15.57-50.4l1.7.33 2.05-5.81-1.43.96-2.32 4.53-.27-1.3 12.49-26.16 2.86-1.94 6.8 1.29-5.53 12.6 4.29-2.9c-.56-2.7 1.67-7.65 6.68-14.87l.81 3.88c-3.72 2.99-5.36 5.57-4.9 7.75l2.85-1.94c-.54-2.58.63-4.85 3.48-6.78l.81 3.87c-4.33 5.9-9.86 18.5-16.58 37.8zm-54.24 29.4l-1.35-6.45-1.43.97 1.35 6.45zm5.21 17.12l-2.97-14.2-1.43.97 2.97 14.2zm29.24-.64c-1.87 1.74-3.33 5.18-4.36 10.34l1.7.32 1.43-.97zm4.36-10.34l-.27-1.3-3.46 6.79.27 1.29zm12.73-48.47l3.2-8.06-.26-1.3-1.43.97-2.94 9.36zm-7.8-13.88l-1.43.96c1.46-5.26 3.4-9.03 5.8-11.3l.27 1.3zm-13.1 31.02l-.27-1.3c1.17-6.34 4.38-14.42 9.62-24.22l.27 1.29zm-7.04 20.99l3.21-8.07.27 1.3-3.2 8.06zm82.42 69.1l-8.47 7.22.18 1.35 2.86-1.94c.38 2.4-7.83 10.92-24.61 25.54l-.37-2.7 7.14-4.84-.1-1.4c-6.11 4.14-12.26 4.87-18.45 2.18-4.68.92-7.6-1.41-8.76-6.99-.11-.5-.2-1.05-.25-1.65l3.91-5.6 4.66-.22 2.86-1.94c26.11-22.04 38.37-39.2 36.76-51.48-12.34 2.47-20.34 4.95-23.98 7.42l.18 1.35-15.12 4.35 1.61.38.46 2.64c-13.54.16-20.6-1.94-21.2-6.28l7.41-25.67 6.4-10.25.38 2.7 21.78-35.42c2.88 0 11.08-4.56 24.59-13.73l.18 1.35-10 6.79.18 1.35c11.94-8.1 19.94-10.57 24-7.42l.36 2.7-7.14 4.84.18 1.36 10.2-5.44.18 1.35-8.57 5.81.18 1.35c2.86-1.94 4.41-2 4.66-.2-16.98 11.51-30.98 27.4-41.98 47.64l.19 1.35c19.37-8.05 36.05-8.05 50.02 0l.19 1.35c-1.15 13.5-8.71 30.44-22.7 50.8zm2.99-12.35l1.43-.96 4.79-10.63-1.43.97zm-39.74-39.45l22.26-31.31 11.06-10.45-.37-2.7-2.86 1.94c-14.02 15.3-24.12 29.02-30.28 41.18zm18.8 46.26l1.43-.97 2.48-4.62-1.43.97zm8.5 16.38l-.27-1.3-1.43.98-11.16 9.03.19 1.35 5.7-3.87zm8.34-18.93l-6.86 7.6.27 1.3 1.43-.97z"/><linearGradient id="b" x1="1099.26" x2="946.79" y1="1639.68" y2="1810.74" gradientUnits="userSpaceOnUse"><stop offset="0" stop-color="#fe0e3c"/><stop offset=".46" stop-color="#fd7b2e"/><stop offset="1" stop-color="#e8ef26"/></linearGradient></defs><use fill="#0f120e" xlink:href="#a" transform="translate(-942.75 -1635.66)"/><use fill="url(#b)" xlink:href="#c" transform="translate(-942.75 -1635.66)"/></svg>