<?xml version="1.0" encoding="UTF-8"?>
<svg width="15px" height="15px" viewBox="0 0 15 15" version="1.1" xmlns="http://www.w3.org/2000/svg" xmlns:xlink="http://www.w3.org/1999/xlink">
    <!-- Generator: Sketch 50.2 (55047) - http://www.bohemiancoding.com/sketch -->
    <title>Waves-icon</title>
    <desc>Created with Sketch.</desc>
    <defs></defs>
    <g id="Page-1" stroke="none" stroke-width="1" fill="none" fill-rule="evenodd" opacity="0.799999952">
        <g id="tonekWars-marketplace-seller's-page" transform="translate(-535.000000, -940.000000)" fill="#FFFFFF" fill-rule="nonzero">
            <g id="Group-14-Copy-2" transform="translate(454.000000, 919.000000)">
                <g id="Group-7">
                    <g id="Group-25" transform="translate(81.000000, 21.000000)">
                        <g id="Waves-icon">
                            <path d="M12.3893617,4.2585816 L8.66808511,0.541728288 C8.02340426,-0.102186266 6.97659574,-0.102186266 6.33191489,0.541728288 L2.62340426,4.25220621 C2.40638298,4.46896953 2.40638298,4.81324067 2.62340426,5.03000399 L3.74680851,6.15207291 L4.49361702,6.8469906 C4.71702128,7.05100313 5.05531915,7.05100313 5.2787234,6.8469906 L6.7787234,5.46353062 C7.19361702,5.08100712 7.82553191,5.08100712 8.23404255,5.46353062 L9.73404255,6.8469906 C9.95744681,7.05100313 10.2957447,7.05100313 10.5191489,6.8469906 L11.2659574,6.15207291 L12.3893617,5.03637938 C12.6,4.82599146 12.6,4.47534492 12.3893617,4.2585816 Z" id="Shape"></path>
                            <path d="M0.504255319,8.67584746 L6.33191489,14.4788136 C6.97659574,15.1207627 8.02340426,15.1207627 8.66808511,14.4788136 L14.4957447,8.67584746 C15.5042553,7.67161017 14.7957447,7.37288136 14.0553191,6.67372881 L13.1425532,5.80932203 C12.9255319,5.59957627 12.5808511,5.6059322 12.3574468,5.80932203 L10.8574468,7.18855932 C10.4425532,7.56991525 9.8106383,7.56991525 9.40212766,7.18855932 L7.90212766,5.80932203 C7.6802765,5.60594172 7.33887244,5.60594172 7.11702128,5.80932203 L5.61702128,7.18855932 C5.20212766,7.56991525 4.57021277,7.56991525 4.16170213,7.18855932 L2.66170213,5.80932203 C2.43985097,5.60594172 2.0984469,5.60594172 1.87659574,5.80932203 L1.03404255,6.58474576 C0.261702128,7.29661017 -0.54893617,7.62076271 0.504255319,8.67584746 Z" id="Shape"></path>
                        </g>
                    </g>
                </g>
            </g>
        </g>
    </g>
</svg>