<?xml version="1.0" encoding="UTF-8"?>
<svg width="15px" height="15px" viewBox="0 0 15 15" version="1.1" xmlns="http://www.w3.org/2000/svg" xmlns:xlink="http://www.w3.org/1999/xlink">
    <!-- Generator: Sketch 50.2 (55047) - http://www.bohemiancoding.com/sketch -->
    <title>NEM_(cryptocurrency)_logo</title>
    <desc>Created with Sketch.</desc>
    <defs></defs>
    <g id="Page-1" stroke="none" stroke-width="1" fill="none" fill-rule="evenodd" opacity="0.799999952">
        <g id="tonekWars-bets-my-past" transform="translate(-1122.000000, -333.000000)" fill="#FFFFFF" fill-rule="nonzero">
            <g id="Group-4-Copy" transform="translate(748.000000, 296.000000)">
                <g id="Group-28" transform="translate(18.050000, 18.050000)">
                    <g id="Group-18-Copy-2" transform="translate(269.799997, 0.000000)">
                        <g id="Group-16" transform="translate(84.399999, 18.900000)">
                            <g id="Group-10" transform="translate(0.900000, 0.000000)">
                                <g id="Group-3" transform="translate(0.902500, 0.000000)">
                                    <g id="Group-6">
                                        <g id="NEM_(cryptocurrency)_logo">
                                            <g id="g10066" transform="translate(0.163673, 0.092205)">
                                                <path d="M7.30249991,14.6049998 C7.33226553,14.5851561 7.37195303,14.5653123 7.40171866,14.5454686 C8.36414052,13.9799217 9.25710926,13.3052342 10.0607811,12.531328 C10.1103905,12.4817186 10.150078,12.4221873 10.1897655,12.3626561 C10.2393749,12.2634373 10.2989061,12.1542967 10.3485155,12.055078 C10.7354686,11.2514061 10.8148436,10.4278905 10.5568749,9.57460925 C10.0607811,7.91765615 8.46335927,6.96515616 6.86593741,7.17351553 C6.40953117,7.23304678 5.98289055,7.37195303 5.58601555,7.60015615 C4.82203119,8.02679677 4.00843745,8.20539052 3.14523434,8.12601552 C2.71859372,8.08632802 2.31179685,7.9771874 1.91492185,7.80851553 C1.60734373,7.66960928 1.31960936,7.50093741 1.05171874,7.29257803 C1.03187499,7.27273428 1.01203124,7.26281241 0.972343738,7.24296866 C0.982265613,7.28265616 0.992187487,7.30249991 1.00210936,7.32234366 C1.33945311,8.19546865 1.76609373,9.01898426 2.27210935,9.81273425 C2.81781246,10.6660155 3.44289058,11.4498436 4.1473437,12.1741405 C4.85179681,12.8984373 5.62570305,13.5334373 6.46906242,14.0989842 C6.83617179,14.3371092 7.19335928,14.5553904 7.30249991,14.6049998" id="path10060"></path>
                                                <path d="M11.3109374,11.181953 C11.3506249,11.1621092 11.3704686,11.1323436 11.3903124,11.102578 C11.6978905,10.7156249 11.9856248,10.3187499 12.2535155,9.911953 C13.2159373,8.42367177 13.880703,6.81632804 14.2577342,5.08992181 C14.3867186,4.50453119 14.4760154,3.9092187 14.5256248,3.31390621 C14.5653123,2.90710934 14.5851561,2.50031247 14.5851561,2.0935156 C14.5851561,2.06374997 14.5851561,2.03398435 14.5752342,2.0141406 C14.5355467,1.99429685 14.4958592,1.96453123 14.4660936,1.94468748 C14.1485936,1.76609373 13.8310936,1.59742185 13.5036717,1.44859373 C13.0274217,1.23031248 12.5511717,1.02195311 12.055078,0.873124989 C11.4498436,0.664765617 10.8446092,0.644921867 10.2195311,0.79374999 C8.46335927,1.22039061 7.34218741,2.93687496 7.66960928,4.71289057 C7.8581249,5.69515618 8.38398427,6.45914054 9.22734363,6.99492179 C9.28687488,7.03460929 9.34640613,7.06437491 9.39601551,7.10406241 C10.0111717,7.48109366 10.4973436,7.98710927 10.8446092,8.63203114 C11.2117186,9.29679676 11.3704686,10.0210936 11.3307811,10.785078 C11.340703,10.8942186 11.3208592,11.0331249 11.3109374,11.181953" id="path10062"></path>
                                                <path d="M0.00992187488,1.99429685 L0.00992187488,2.0935156 C0.00992187488,2.65906247 0.0496093744,3.21468746 0.109140624,3.77031245 C0.168671873,4.27632807 0.257968747,4.77242181 0.36710937,5.26851556 C0.38695312,5.35781243 0.416718745,5.43718743 0.456406244,5.51656243 C1.14101561,6.98499991 2.73843747,7.75890615 4.31601557,7.40171866 C5.51656243,7.13382804 6.49882804,6.2011718 6.83617179,5.01054681 C6.92546866,4.68312494 6.95523429,4.3457812 6.97507804,4.00843745 C6.98499991,3.78023433 7.00484366,3.56195308 7.04453116,3.34367183 C7.30249991,1.99429685 8.20539052,0.883046864 9.46546863,0.357187495 C9.53492175,0.327421871 9.60437488,0.297656246 9.68374988,0.277812496 C9.69367175,0.277812496 9.7135155,0.267890622 9.70359363,0.257968747 C9.50515613,0.188515623 8.31453115,0.0694531241 7.60015615,0.0595312492 C6.07218742,0.0297656246 4.56406244,0.228203122 3.09562496,0.674687491 C2.0141406,0.982265613 0.992187488,1.42874998 0.00992187488,1.99429685" id="path10064"></path>
                                            </g>
                                        </g>
                                    </g>
                                </g>
                            </g>
                        </g>
                    </g>
                </g>
            </g>
        </g>
    </g>
</svg>