<?xml version="1.0" encoding="UTF-8"?>
<svg width="15px" height="15px" viewBox="0 0 15 15" version="1.1" xmlns="http://www.w3.org/2000/svg" xmlns:xlink="http://www.w3.org/1999/xlink">
    <!-- Generator: Sketch 50.2 (55047) - http://www.bohemiancoding.com/sketch -->
    <title>Shape</title>
    <desc>Created with Sketch.</desc>
    <defs></defs>
    <g id="Page-1" stroke="none" stroke-width="1" fill="none" fill-rule="evenodd" opacity="0.799999952">
        <g id="tonekWars-mentors" transform="translate(-1122.000000, -1583.000000)" fill="#FFFFFF" fill-rule="nonzero">
            <g id="Group-13-Copy-3" transform="translate(1042.000000, 1561.000000)">
                <g id="Group-12" transform="translate(80.750000, 22.100000)">
                    <g id="Ripple-logo">
                        <path d="M12.0071233,8.79803797 C11.4947945,8.50537975 10.9079452,8.42306962 10.339726,8.40477848 C9.85534247,8.38648734 9.13808219,8.08468354 9.13808219,7.225 C9.13808219,6.58481013 9.6690411,6.06351266 10.339726,6.04522152 C10.9172603,6.02693038 11.4947945,5.94462025 12.0071233,5.65196203 C12.9479452,5.12151899 13.5254795,4.13379747 13.5254795,3.06376582 C13.5254795,1.99373418 12.9479452,1.00601266 12.0071233,0.47556962 C11.0663014,-0.0548734177 9.90191781,-0.0548734177 8.96109589,0.47556962 C8.0109589,0.996867089 7.43342466,1.98458861 7.43342466,3.05462025 C7.43342466,3.63079114 7.64767123,4.17037975 7.90849315,4.66424051 C8.13205479,5.07579114 8.24383562,5.85316456 7.47068493,6.2921519 C6.89315068,6.62139241 6.17589041,6.4110443 5.82191781,5.85316456 C5.52383562,5.37759494 5.15123288,4.92946203 4.63890411,4.64594937 C3.69808219,4.11550633 2.53369863,4.11550633 1.59287671,4.64594937 C0.661369863,5.16724684 0.0838356164,6.15496835 0.0838356164,7.225 C0.0838356164,8.29503165 0.661369863,9.28275316 1.61150685,9.8131962 C2.55232877,10.3436392 3.71671233,10.3436392 4.65753425,9.8131962 C5.16986301,9.52053797 5.53315068,9.08155063 5.84054795,8.60598101 C6.09205479,8.21272152 6.70684932,7.71886076 7.48931507,8.1578481 C8.06684932,8.48708861 8.24383562,9.20044304 7.91780822,9.78575949 C7.64767123,10.2796203 7.44273973,10.8100633 7.44273973,11.3953797 C7.44273973,12.4654114 8.02027397,13.4531329 8.96109589,13.9835759 C9.90191781,14.514019 11.0663014,14.514019 12.0071233,13.9835759 C12.9479452,13.4531329 13.5254795,12.4654114 13.5254795,11.3953797 C13.5254795,10.3253481 12.9479452,9.33762658 12.0071233,8.79803797 Z" id="Shape"></path>
                    </g>
                </g>
            </g>
        </g>
    </g>
</svg>