<svg width="267" height="854" xmlns="http://www.w3.org/2000/svg"><defs><linearGradient x1="30.972%" y1="90.182%" x2="74.702%" y2="69.619%" id="a"><stop stop-color="#282338" offset="0%"/><stop offset="100%"/></linearGradient><linearGradient x1="73.735%" y1="47.483%" x2="50%" y2="63.14%" id="b"><stop stop-color="#0B0117" offset="0%"/><stop stop-color="#313442" offset="100%"/></linearGradient><linearGradient x1="82.812%" y1="21.363%" x2="57.996%" y2="71.27%" id="c"><stop offset="0%"/><stop stop-color="#322044" offset="100%"/></linearGradient><linearGradient x1="152.096%" y1="23.937%" x2="-58.29%" y2="76.063%" id="d"><stop stop-color="#FFF" stop-opacity="0" offset="0%"/><stop stop-color="#FFF" offset="100%"/></linearGradient><linearGradient x1="73.201%" y1="43.366%" x2="-135.253%" y2="53.641%" id="e"><stop stop-color="#2E1A47" offset="0%"/><stop stop-color="#150024" offset="66.325%"/><stop stop-color="#150023" offset="91.658%"/><stop offset="100%"/></linearGradient><linearGradient x1="50%" y1="0%" x2="50%" y2="100%" id="f"><stop stop-opacity="0" offset="0%"/><stop offset="100%"/></linearGradient><linearGradient x1="50%" y1="-17.116%" x2="50%" y2="102.328%" id="g"><stop stop-opacity="0" offset="0%"/><stop stop-opacity=".707" offset="62.574%"/><stop stop-opacity="0" offset="100%"/></linearGradient><linearGradient x1="50%" y1="87.921%" x2="42.297%" y2="39.485%" id="h"><stop stop-opacity="0" offset="0%"/><stop offset="100%"/></linearGradient><linearGradient x1="34.042%" y1="182.038%" x2="46.366%" y2="5.375%" id="j"><stop stop-color="#562B7B" offset="0%"/><stop offset="100%"/></linearGradient><linearGradient x1="50%" y1="0%" x2="50%" y2="100%" id="i"><stop offset="0%"/><stop stop-color="#41205D" offset="100%"/></linearGradient><linearGradient x1="74.814%" y1="38.684%" x2="22.659%" y2="59.384%" id="k"><stop stop-color="#EEE" offset="0%"/><stop stop-color="#B8B8B8" offset="100%"/></linearGradient><linearGradient x1="8.284%" y1="44.56%" x2="82.021%" y2="54.837%" id="l"><stop stop-color="#EEE" offset="0%"/><stop stop-color="#B0AFAF" offset="100%"/></linearGradient><linearGradient x1="7.166%" y1="32.733%" x2="446.414%" y2="15.034%" id="m"><stop stop-opacity="0" offset="0%"/><stop offset="100%"/></linearGradient><linearGradient x1="7.52%" y1="56.462%" x2="75.393%" y2="37.483%" id="n"><stop stop-opacity="0" offset="0%"/><stop offset="100%"/></linearGradient><linearGradient x1="248.341%" y1="0%" x2="228.72%" y2="174.009%" id="p"><stop offset="0%"/><stop stop-color="#D8D8D8" offset="100%"/></linearGradient><linearGradient x1="50%" y1="0%" x2="50%" y2="151.98%" id="o"><stop offset="0%"/><stop stop-color="#727170" offset="100%"/></linearGradient><linearGradient x1="100%" y1="31.284%" x2="50%" y2="68.716%" id="q"><stop stop-color="#FFF" stop-opacity=".222" offset="0%"/><stop stop-color="#FFF" stop-opacity=".442" offset="48.074%"/><stop stop-color="#FFF" stop-opacity="0" offset="100%"/></linearGradient><linearGradient x1="-10.99%" y1="36.257%" x2="50%" y2="100%" id="r"><stop stop-color="#FFF" offset="0%"/><stop stop-color="#FFF" stop-opacity="0" offset="100%"/></linearGradient><linearGradient x1="14.764%" y1="451.551%" x2="81.21%" y2="149.617%" id="s"><stop offset="0%"/><stop stop-color="#572B7B" offset="100%"/></linearGradient><linearGradient x1="-18.319%" y1="53.665%" x2="110.514%" y2="50.909%" id="t"><stop offset="0%"/><stop stop-color="#351A4B" offset="100%"/></linearGradient><linearGradient x1="-18.319%" y1="57.77%" x2="110.514%" y2="51.928%" id="u"><stop offset="0%"/><stop stop-color="#572B7B" offset="100%"/></linearGradient><linearGradient x1="-18.319%" y1="54.232%" x2="110.514%" y2="51.05%" id="v"><stop offset="0%"/><stop stop-color="#572B7B" offset="100%"/></linearGradient><linearGradient x1="-18.319%" y1="60.134%" x2="110.514%" y2="52.514%" id="w"><stop offset="0%"/><stop stop-color="#572B7B" offset="100%"/></linearGradient><linearGradient x1="-18.319%" y1="288.698%" x2="331.013%" y2="-15.935%" id="x"><stop offset="0%"/><stop stop-color="#572B7B" offset="100%"/></linearGradient><linearGradient x1="-18.319%" y1="126.993%" x2="110.514%" y2="69.101%" id="y"><stop offset="0%"/><stop stop-color="#572B7B" offset="100%"/></linearGradient><linearGradient x1="-18.319%" y1="58.379%" x2="110.514%" y2="52.079%" id="z"><stop offset="0%"/><stop stop-color="#572B7B" offset="100%"/></linearGradient><linearGradient x1="-18.319%" y1="82.66%" x2="110.514%" y2="58.102%" id="A"><stop offset="0%"/><stop stop-color="#572B7B" offset="100%"/></linearGradient><linearGradient x1="-18.319%" y1="123.728%" x2="110.514%" y2="68.291%" id="B"><stop offset="0%"/><stop stop-color="#572B7B" offset="100%"/></linearGradient><linearGradient x1="-18.319%" y1="310.292%" x2="110.514%" y2="114.573%" id="C"><stop offset="0%"/><stop stop-color="#572B7B" offset="100%"/></linearGradient><linearGradient x1="-4.197%" y1="451.551%" x2="98.005%" y2="149.617%" id="D"><stop offset="0%"/><stop stop-color="#572B7B" offset="100%"/></linearGradient><linearGradient x1="-18.319%" y1="91.155%" x2="110.514%" y2="60.21%" id="E"><stop offset="0%"/><stop stop-color="#572B7B" offset="100%"/></linearGradient><linearGradient x1="-18.319%" y1="103.372%" x2="110.514%" y2="63.241%" id="F"><stop offset="0%"/><stop stop-color="#572B7B" offset="100%"/></linearGradient><linearGradient x1="-18.319%" y1="152.728%" x2="110.514%" y2="75.485%" id="G"><stop offset="0%"/><stop stop-color="#572B7B" offset="100%"/></linearGradient><linearGradient x1="-18.319%" y1="65.834%" x2="110.514%" y2="53.928%" id="H"><stop offset="0%"/><stop stop-color="#572B7B" offset="100%"/></linearGradient><linearGradient x1="-18.319%" y1="77.793%" x2="110.514%" y2="56.895%" id="I"><stop offset="0%"/><stop stop-color="#572B7B" offset="100%"/></linearGradient><linearGradient x1="36.4%" y1="451.551%" x2="62.047%" y2="149.617%" id="J"><stop offset="0%"/><stop stop-color="#572B7B" offset="100%"/></linearGradient><linearGradient x1="-18.319%" y1="239.801%" x2="359.733%" y2="-6.04%" id="K"><stop offset="0%"/><stop stop-color="#572B7B" offset="100%"/></linearGradient><linearGradient x1="-18.319%" y1="226.582%" x2="110.514%" y2="93.806%" id="L"><stop offset="0%"/><stop stop-color="#572B7B" offset="100%"/></linearGradient><linearGradient x1="-18.319%" y1="380.361%" x2="110.514%" y2="131.956%" id="M"><stop offset="0%"/><stop stop-color="#572B7B" offset="100%"/></linearGradient><linearGradient x1="33.743%" y1="106.398%" x2="20.939%" y2="14.388%" id="N"><stop stop-color="#56403B" stop-opacity="0" offset="0%"/><stop stop-color="#56403B" offset="100%"/></linearGradient><linearGradient x1="50%" y1="0%" x2="50%" y2="100%" id="O"><stop stop-color="#56403B" offset="0%"/><stop stop-color="#56403B" stop-opacity="0" offset="100%"/></linearGradient><linearGradient x1="50%" y1="0%" x2="50%" y2="100%" id="P"><stop stop-opacity=".416" offset="0%"/><stop stop-color="#56403B" stop-opacity="0" offset="100%"/></linearGradient><linearGradient x1="50%" y1="35.153%" x2="223.862%" y2="85.731%" id="Q"><stop stop-color="#FFF" stop-opacity="0" offset="0%"/><stop stop-color="#FFF" offset="100%"/></linearGradient><linearGradient x1="52.754%" y1="100%" x2="60.634%" y2="9.57%" id="R"><stop stop-opacity="0" offset="0%"/><stop offset="100%"/></linearGradient><linearGradient x1="50%" y1="40.476%" x2="48.095%" y2="59.255%" id="S"><stop stop-color="#29173F" offset="0%"/><stop stop-color="#110E15" offset="86.652%"/><stop offset="100%"/></linearGradient><linearGradient x1="-5.141%" y1="451.551%" x2="98.841%" y2="149.617%" id="T"><stop offset="0%"/><stop stop-color="#572B7B" offset="100%"/></linearGradient><linearGradient x1="9.09%" y1="55.815%" x2="27.992%" y2="43.383%" id="U"><stop stop-opacity="0" offset="0%"/><stop offset="100%"/></linearGradient><linearGradient x1="44.769%" y1="120.383%" x2="0%" y2="-139.625%" id="V"><stop stop-color="#FBCFBB" offset="0%"/><stop stop-color="#D2987E" offset="100%"/></linearGradient><linearGradient x1="-88.617%" y1="48.3%" x2="428.328%" y2="42.676%" id="W"><stop stop-color="#FBD2C0" offset="0%"/><stop stop-color="#D2987E" offset="100%"/></linearGradient><linearGradient x1="63.699%" y1="-66.753%" x2="35.059%" y2="121.296%" id="X"><stop stop-color="#FFF" offset="0%"/><stop stop-color="#FBCFBB" offset="100%"/></linearGradient><linearGradient x1="126.595%" y1="46.286%" x2="-286.237%" y2="-3.097%" id="Y"><stop stop-opacity="0" offset="0%"/><stop offset="100%"/></linearGradient><linearGradient x1="50%" y1="0%" x2="50%" y2="100%" id="Z"><stop stop-color="#FFF" stop-opacity="0" offset="0%"/><stop stop-color="#FFF" offset="100%"/></linearGradient><linearGradient x1="50%" y1="60.41%" y2="35.243%" id="aa"><stop stop-color="#FFF" offset="0%"/><stop stop-color="#FFF" stop-opacity="0" offset="100%"/></linearGradient><linearGradient x1="934.519%" y1="50.048%" x2="-105.662%" y2="49.889%" id="ab"><stop stop-color="#FFF" offset="0%"/><stop stop-color="#FFF" stop-opacity="0" offset="100%"/></linearGradient></defs><g fill="none" fill-rule="evenodd"><path d="M277.71 618.868c-28.463 4.39-48.092 6.448-58.886 6.176-37.261-.938-60.254-9.904-79.27-13.743-27.279-5.508-54.534-13.426-81.766-23.754 4.816-11.034 7.346-18.97 7.589-23.805.243-4.836.847-66.168 1.811-183.996l146.939 16.32 63.583 222.802z" stroke="#1C1723" stroke-width="1.764" fill="url(#a)" fill-rule="nonzero" transform="rotate(3 115.567 302.114)"/><path stroke="#B2847B" stroke-width="1.764" fill="#FBCFBB" fill-rule="nonzero" d="M45.274 786.354l-.531 10.13 35.926 5.858.37-7.047 1.365-9.204zM132.984 788.424l-.531 10.13 35.925 5.858.37-7.048 1.366-9.203z"/><path d="M58.687 403.567c40.314 11.762 70.025 17.642 89.134 17.642 19.109 0 39.406-5.88 60.893-17.642l-7.942-277.866-52.951-78.949h-60.01l-26.476 71.892-6.178 14.555-3.53 23.376 7.06 246.992z" stroke="#4C4848" stroke-width=".525" fill="url(#b)" fill-rule="nonzero" transform="rotate(3 115.567 302.114)"/><path d="M232.403 411.608c-1.2-4.72 1.2-3.906 0-9.766-.544-2.604-.96-3.978-1.248-4.123-12.332 2.592-20.812 4.69-25.44 6.293-17.85 6.186-28.724 11.607-37.92 11.611-12.93.006-25.064.843-36 0-19.118-1.475-34.78-5.347-46.08-8.138-14.748-3.643-21.525-8.109-21.744-7.596-.96 2.17.24.272-.047 4.123-.288 3.853-1.44 3.798-1.44 7.596s1.055 3.038 1.44 7.596c.383 4.557.624 5.588 0 9.223-.304 1.768 4.458 35.655 4.53 64.022.051 20.406-2.573 77.677-1.736 117.354.392 18.623-3.383 13.902-1.94 31.592 1.443 17.69-2.907 18.52-2.225 36.865.92 24.769 1.063 55.493 5.349 80.652 1.419 8.333-7.807 16.333-5.962 22.69 1.195 4.12 6.06 5.042 7.008 7.896 1.685 5.064 1.448 4.557 2.318 4.282 26.476-8.38 38.984 1.375 40.092-4.282.747-3.813 1.292-9.167 1.292-14.944.001-5.463-.864-15.226-1.292-21.686-2.49-37.56 4.94-77.316 4.415-81.74-.165-1.383 7.982-13.82 8.257-24.395.108-4.152 1.266-10.394 1.238-15.206-.183-30.788 15.265-71.218 17.76-85.908 1.535-8.898 3.167-15.517 3.503-18.99.336-3.472-.864-4.774 0-9.223.576-2.875 2.352-2.55 2.88-5.425.528-2.876-.48-4.178-.48-8.139 0-3.96.864-5.316 1.68-8.138.336-1.248-1.104-1.953-1.2-3.255-.048-.489.384-1.357 1.2-2.713l3.6 5.968c1.92 3.798 2.88 7.053 2.88 9.766 0 4.123-3.6 4.72-4.32 8.681-.387 2.128-1.32 59.931-1.788 121.296-.027 3.624-3.32 11.207-3.344 14.797-.026 3.824 5.116 9.845 5.132 13.553.046 10.812-1.663 21.455-1.788 30.36-.377 26.95.36 44.124.463 51.284.138 9.525 2.894 16.662 2.765 18.109-.384 3.96-1.44 21.931 0 23.667 9.865 3.584 21.777 3.815 44.548.231-.267-17.827-3.975-19.819-3.235-24.056 1.11-6.355 14.047-55.627 15.313-90.379.167-4.56-2.004-11.74-1.9-16.264.145-6.363-1.569-11.358 0-17.348 1.736-6.634 1.029-15.047 1.9-21.143 1.948-13.63-.131-25.372 0-28.734.19-4.863 22.766-173.195 21.566-177.916z" stroke-opacity=".4" stroke="#000" stroke-width="1.764" fill="url(#c)" fill-rule="nonzero" transform="rotate(3 115.567 302.114)"/><path d="M112.442 288.364h13.933v10.942c0 .484.385.875.858.875h7.074a.867.867 0 0 0 .858-.875v-10.942h8.146l.214.006v10.936c0 .484.385.875.857.875h7.074a.866.866 0 0 0 .857-.875v-11.22c30.881-3.494 23.093-33.215 6.423-32.792 9.69-.846 16.312-25.129-6.423-28.564v-11.238a.867.867 0 0 0-.857-.876h-7.074a.866.866 0 0 0-.857.876v10.931l-.214.01h-8.147v-10.941a.866.866 0 0 0-.857-.876h-7.074a.867.867 0 0 0-.858.876v10.942h-13.933a.867.867 0 0 0-.858.875v8.098c0 .483.384.874.858.874h10.075v40.485h-10.075a.868.868 0 0 0-.858.876v9.847c0 .483.384.875.858.875zm22.723-52.083h9.576c4.718 0 11.004 1.03 11.004 7.55s-6.092 7.55-11.004 7.55h-9.576v-15.1zm0 24.012h10.29c5.147 0 12.005 1.124 12.005 8.236s-6.645 8.236-12.005 8.236h-10.29v-16.472z" fill="url(#d)" fill-rule="nonzero" transform="rotate(3 115.567 302.114)"/><path d="M236.269 636.628c-.146-10.192-.793-17.47-1.94-21.835-13.927-52.95-27.041-91.19-32.506-117.912-9.21-45.038-10.176-45.923-13.584-95.106-3.408-49.183 0-33.482 0-100.93V128.588c-3.459-4.762-10.575-12.04-21.347-21.835-5.337-4.853-5.626-8.061-7.762-12.131-.886-1.687-4.367-3.882-6.792-7.279-2.426-3.396-2.262-5.238-3.882-7.763-1.938-3.022-5.102-1.756-6.792-4.853-1.651-3.026.643-8.455-1.719-11.045a33.17 33.17 0 0 0-7.984-6.423c-18.85-10.915-34.665.33-40.753 5.823-6.087 5.493-6.792 18.438-5.336 32.996.748 7.482-12.147 12.689-19.891 21.835-7.322 8.647-15.036 24.637-11.747 38.543 6.768 28.616 44.695 32.39 52.984 40.55 8.29 8.162 11.159 22.321 7.763 52.891-6.382 57.445-16.53 66.46-17.466 110.148-.688 32.156 7.451 27.063 13.874 87.241 4.634 43.43 1.007 51.81 5.047 87.93 2.498 22.329 7.864 54.685 20.862 93.65L56.763 587.62c4.205-12.013 6.307-21.88 6.307-29.6 0-7.72-3.235-26.32-9.703-55.802L49 446.416 28.14 458.062c-3.798-5.476-5.9-9.358-6.307-11.646-.137-.772 1.225-10.224 0-18.924-.608-4.314-6.127-2.248-7.763-12.13-.668-4.04-.076-11.391-.97-19.895-.203-1.936-1.146-3.972-1.455-6.794-.171-1.556.259-3.804 0-6.308-.54-5.224-.742-17.571-2.911-36.392-.265-2.293-1.073-5.852-2.426-10.676-2.358-6.028-3.652-10.071-3.881-12.13-.664-5.954 1.585-8.968 1.585-14.139 0-5.569-2.894-20.727-3.526-37.296-.737-19.326.838-40.583 1.94-50.95 3.718-34.946 16.496-57.258 23.288-62.595 4.528-3.559 13.746-7.926 27.654-13.102.034-5.507.358-9.874.97-13.101 1.907-10.05 4.277-8.688 6.307-17.469 8.995-38.908 17.502-76.994 25.228-89.768C101.336-.822 126.625-5.338 142.635 6.793c5.273 3.996 16.211 13.898 27.168 32.026 11.222 18.566 31.02 59.509 42.208 79.093 11.19 19.584 14.349 20.939 20.862 33.967 6.512 13.028 10.745 27.012 11.643 31.055.599 2.695-1.18 5.768-5.336 9.22 2.54 11.792 4.377 20.39 5.51 25.79 1.58 7.53-.06 9.752 1.282 16.425 1.561 7.764 4.099 15.441 5.822 22.806 3.268 13.972 5.6 26.59 6.792 34.936.794 5.568.358 10.735.97 16.013.278 2.39 1.774 4.784 1.94 7.279.148 2.193-.425 4.805-.484 7.278-.033 1.373.357 2.736.485 3.882.252 2.272-.3 5.987 0 8.25.773 5.857 1.488 11.573 2.425 16.982.61 3.519.486 8.188.97 11.646.348 2.477 1.398 3.72 1.456 6.308.03 1.348-1.416 4.486-1.455 5.823-.27 9.352-.526 16.592 0 24.747.136 2.119 3.151 1.35 3.24 3.397.164 3.742-2.016 10.714-1.785 14.071.243 3.525 6.246 6.669 6.307 9.705.048 2.41-4.543 4.519-4.521 6.585.09 8.877-.053 14.418-.33 15.25-.647 1.942-3.72.971-9.218-2.91a6640.379 6640.379 0 0 1 3.924 27.642c2.518 18.163 4.392 32.725 5.624 43.687 1.803 16.054 5.089 49.858 9.858 101.414-6.925 6.417-12.1 10.461-15.525 12.13-3.425 1.67-12.157 3.45-26.198 5.338z" fill="url(#e)" fill-rule="nonzero" transform="rotate(3 115.567 302.114)"/><path d="M236.269 636.628c-.146-10.192-.793-17.47-1.94-21.835-13.927-52.95-27.041-91.19-32.506-117.912-3.514-17.185-7.008-33.363-8.975-47.021-2.803-19.47-3.32-33.539-3.366-35.718-.283-13.469 11.093 12.03 17.779 48.72 1.147 6.294 8.715 23.892 9.976 30.772 6.672 36.412 8.389 68.248 15.88 98.049 6.353 25.275 18.882 41.132 20.31 35.965.156-.569-1.316-18.535-6.784-36.674-6.122-20.306-16.571-42.272-21.742-69.155-2.533-13.164-2.894-26.328-4.7-39.062-2.57-18.122-6.367-37.136-8.034-52.096-2.727-24.475-2.526-41.115-2.496-47.61.018-3.863 5.86 20.15 14.69 41.63 9.873 24.024 14.747 50.739 15.602 47.324.402-1.602-3.124-70.38-7.634-86.607-1.61-5.794.499 27.742-2.301 23.528-19.875-29.91-14.374-58.475-14.157-59.324.528-2.066 26.497 28.064 27.49 27.098.695-.675 1.578-10.56-2.677-17.356-4.322-6.904-12.937-14.143-17.01-18.984-1.56-1.854-1.886-3.287-1.886-4.318 2.075-10.946 3.267-19.105 3.577-24.479.765-13.275.756-24.158 1.306-34.076.291-5.24 1.398-10.368 1.418-15.09.075-17.299-1.45-31.033-1.081-37.486.058-1.023.054-4.03.094-6.63.048-3.158.076-5.841-.718-5.262-1.34.978-4.832 13.688-4.664 12.17.19-1.721.233-3.988.93-7.557.696-3.57 2.497-9.667 6.705-15.368 1.62-2.196 4.896-5.566 9.825-10.11 2.292-2.15 3.735-3.739 4.329-4.765.268-.464 1.248-2.455 1.007-4.455-.552-4.588-3.338-11.573-5.998-17.05-2.934-6.04-6.612-12.72-10.275-18.544-5.741-9.128-12.19-15.633-12.787-16.34-3.7-4.378-13.685-13.56-24.138-22.143-10.255-8.42-20.932-16.203-29.564-24.51-1.853-1.782-3.563-7.301-5.117-8.868-1.916-1.933-3.574-3.679-4.899-5.181-1.783-2.023-2.505-4.166-2.921-5.147-1.078-2.54-1.352-6.04-2.092-7.59-1.57-3.29-2.904-5.806-4.004-7.55-3.138-4.972-7.68-6.502-9.646-7.002-33.14-8.422-4.475-5.885-1.888-4.96 2.815 1.005 4.892 1.73 5.646.788 1.327-1.66-3.942-8.263-9.552-13.633-3.151-3.015-6.31-5.04-7.443-7.118-1.892-3.467 9.758-1.963 9.138-2.687-3.564-4.16-13.227-6.984-14.954-7.107-5.67-.404-25.537 2.161-23.78 18.41 1.717 15.864-3.177 21.589-4.04 24.062-.26.744-2.66 4.524-3.735 4.613-1.827.15-3.526-3.78-3.71-3.34-1.29 3.099 1.265 7.3.776 14.808-.609 9.358-4.363 22.477-7.777 29.022-3.433 6.582-6.386 12.348-8.017 15.257-2.16 3.852-8.162 12.896-9.402 20.86-1.24 7.964-1.927 16.761-.103 24.471 6.768 28.616 44.695 32.39 52.984 40.55 8.29 8.162 11.159 22.321 7.763 52.891-.86 7.735-16.774 12.287-24.63 23.249-13.658 19.053-25.367 30.905-21.793-7.692 5.63-60.803-9.484-34.8-12.485 2.862-1.412 17.724-.521 63.957-.807 77.3-.348 16.266 9.142 59.088 16.98 96.31 2.13 10.116 6.379 20.72 6.44 30.137.16 24.43 11.446 49.75 19.706 64.022 2.184 3.773-7.31-41.997-2.34-44.615 1.048-.551 2.786 8.132 6.607 16.437 5.256 11.423 12.833 23.858 13.284 26.245 1.716 9.08 4.467 34.216 11.98 63.042 7.51 28.827 5.665 20.55 9.375 31.672L56.763 587.62c4.205-12.013 6.307-21.88 6.307-29.6 0-1.752 11.084-51.56 10.75-54.434-.406-3.505-12.311 39.65-13.214 34.477-1.617-9.27-4.03-21.218-7.24-35.845l10.554-58.974c-5.54-.298-9.814-.369-12.825-.211-14.892.78-20.892 6.412-16.699 1.758 7.934-8.807 12.086-5.451 17.536-11.077 5.449-5.626 4.147-9.03 3.845-14.776-.3-5.746-4.669-9.35-22.72.307-18.052 9.655-10.629-.45 3.25-13.862 13.878-13.412 12.9-31.433 12.557-47.033-.504-22.88-8.033-47.886-13.624-57.585-2.673-4.637-29.58 13.651-30.105 7.318-.245-2.956 15.47-8.318 24.982-20.741 5.855-7.647 12.46-29.974 7.822-27.793-21.13 9.935-25.894 2.725-21.592 1.13 30.54-11.316 24.55-15.849 20.784-16.546-11.155-2.066-24.257-7.563-24.511-12.408-.114-2.173 26.06 11.002 26.653 1.696 1.315-20.607-23.897-48.784-18.71-52.461 1.693-1.2 26.608 39.604 26.616 35.705.018-8.569-5.565-17.756-8.018-26.521-2.29-8.179-3.383-13.956-2.223-17.109 1.16-3.152 3.062-2.637 3.943-.648 1.65 3.73 2.76 13.29 4.054 18.338.768 2.992 2.026 3.736 2.343 2.54 1.316-4.96-1.373-45.403 6.089-48.18.034-5.507.358-9.874.97-13.101 1.907-10.05 4.277-8.688 6.307-17.469 8.995-38.908 17.502-76.994 25.228-89.768 9.514-15.731 17.267-18.43 29.77-19.25 12.504-.818 26.083 11.795 30.192 19.619 5.464 10.402 5.63 23.113 7.405 31.663.844 4.07 1.677 8.493 3.277 11.943 1.76 3.798 3.856 6.12 4.799 7.257.434.524 4.005 3.61 7.814 5.774 4.473 2.541 9.283 4.1 9.88 3.016.926-1.684-2.06-6.576-5.054-12.102-3.382-6.243-6.937-13.254-7.938-16.557-1.32-4.36-2.63-8.468-3.79-13.303-.913-3.8-1.545-8.266-3.29-12.194-2.787-6.272-5.827-6.491-8.95-10.573-4.385-5.73-8.393-14.035-7.352-13.247 5.273 3.996 16.211 13.898 27.168 32.026 11.222 18.566 31.02 59.509 42.208 79.093 11.19 19.584 14.349 20.939 20.862 33.967 4.829 9.66 10.636 26.441 10.704 26.673.545 1.845.732 3.44.939 4.368.598 2.695-1.18 5.782-5.336 9.233.916 4.251 1.728 10.83-.155 17.554-1.884 6.724-7.323 11.139-6.799 13.606.474 2.227 11.485-3.583 11.829-1.944 1.58 7.53-9.556 3.15-.837 9.318 2.183 1.545 1.311 9.741 1.975 12.388 1.267 5.055 2.28 8.113 3.41 12.947 1.66 7.095-3.622 14.095-1.662 20.403 1.9 6.113 5.484 12.358 6.07 16.465.478 3.348-4.79 6.352-4.707 9.522.055 2.1 5.248 3.35 5.492 5.454.18 1.539-5.447 3.548-4.938 5.117.281.866 8.734 3.951 8.793 4.839.147 2.193 3.42 2.386 3.36 4.86-.032 1.372.358 2.735.486 3.881.252 2.272-.3 5.987 0 8.25.171 1.299-6.74 2.912-12.785.669-6.863-2.547-12.966-9.012-12.77-7.58.184 1.336 4.049 11.495 10.126 16.143 7.53 5.76 17.581 6.175 17.854 7.75.61 3.519.486 8.188.97 11.646.174 1.232-16.126 2.916-15.814 3.855.315.948 17.24 1.152 17.27 2.453.03 1.348-1.416 4.486-1.455 5.823-.117 4.04-16.003-2.656-16.052.84-.065 4.597 15.753 19.275 16.052 23.907.136 2.119 3.151 1.35 3.24 3.397.164 3.742-2.016 10.714-1.785 14.071.104 1.504-10.04-4.597-9.454-3.643.785 1.282 12.338 9.536 12.373 11.277.014.685-3.074 1.828-6.425 2.585-2.141.484-5.058.529-5.163 1.113-.31 1.718 10.443 3.855 10.455 4.958.09 8.877-.053 14.418-.33 15.25-.647 1.942-3.72.971-9.218-2.91a6640.379 6640.379 0 0 1 3.924 27.642c2.518 18.163 4.392 32.725 5.624 43.687 1.803 16.054 5.089 49.858 9.858 101.414-6.925 6.417-12.1 10.461-15.525 12.13-3.425 1.67-12.157 3.45-26.198 5.338z" fill="url(#f)" fill-rule="nonzero" opacity=".7" transform="rotate(3 115.567 302.114)"/><path d="M100.382 347.022l-3.089 16.319-7.943 32.638-3.97 17.201-3.53 25.14-6.178 33.52-.442 3.53v10.585l.883 15.437.882 9.262 2.207 8.38 4.853 14.555 2.648 7.498 3.53 8.82 3.53 8.38 10.149 21.613 15.444 31.315-4.413-24.258c2.061-34.809 4.414-56.127 7.06-63.954 3.97-11.74 13.605 2.175 14.562 0 .957-2.174-8.787-9.74-7.06-11.467 1.727-1.726 9 7.677 10.59 5.292 1.59-2.384-8.825-8.82-5.736-20.73 1.122-4.325 4.916-4.593 6.177-7.938 3.518-9.329 5.136-18.231 8.384-26.023 4.413-10.585 11.877 18.411 13.084 26.023 1.206 7.612-10.617 16.434-7.943 16.434 2.206 0-.874 2.12-2.206 4.41-.183.315-.37.634-.557.951-.732 1.245-2.973 3.02-3.415 4.342-.294.882-.44 1.912-.44 3.088-5.75 81.191-8.2 121.327-7.348 120.408 5.023-5.422 35.146-45.274 35.146-89.975 0-28.784-13.824-25.581-12.983-31.298.455-3.096 6.001-7.351 6.364-9.72.858-5.597-3.696-7.473-3.482-7.605 6.565-4.03 14.049-9.492 16.874-11.035 3.393-1.853 7.364-2.588 11.914-2.205-2.337-14.047-3.808-24.633-4.412-31.757-.605-7.123-1.193-20.796-1.765-41.018v-23.376l.482-16.411 2.797-30.386 2.028-31.833 1.312-26.341 6.177-119.527c-5.503 32.566-9.768 54.472-12.796 65.718-3.857 14.324-7.551 17.424-5.737 22.168 5.737 14.996 2.5 46.246 1.765 53.252-2.869 27.4-6.177 22.053-10.148 40.578-1.858 8.663 1.196 16.773 0 26.37-1.363 10.924 0 14.868-19.57 10.794-18.442-3.84-39.118-2.774-39.118-6.175s26.763-4.618 41.037-2.206c14.275 2.413-.017-9.272-7.06-12.464-8.245-3.738-24.09 2.373-29.564-6.616-2.237-3.674.256-8.389 0-16.76-.139-4.526-4.524-8.328-4.413-13.673.616-29.627 8.826-69.462 8.826-76.744 0-4.29-.87 5.825-6.178 28.669-1.882 8.096-6.47 23.06-11.914 44.546-1.243 4.906-3.008 12.992-5.295 24.259z" fill="url(#g)" fill-rule="nonzero" transform="translate(-5.235 1.032)"/><path d="M220.629 229.662c-2.426-6.94-2.625-13.554-.599-19.843 3.04-9.434 19.045-16.014 23.058-23.733 4.941-9.5-12.732-24.407-17.364-27.798-13.785-10.094-22.642-16.649-30.376-23.142-1.29-1.083-3.66-3.27-7.11-6.559-3.458-4.762-10.574-12.04-21.346-21.835-5.337-4.853-5.626-8.061-7.762-12.131-.886-1.687-4.367-3.882-6.792-7.279-2.426-3.396-2.262-5.238-3.882-7.763-1.938-3.022-5.102-1.756-6.792-4.853-1.651-3.026.643-8.455-1.719-11.045a33.17 33.17 0 0 0-7.984-6.423c-18.85-10.915-34.665.33-40.753 5.823-6.087 5.493-6.792 18.438-5.336 32.996.748 7.482-12.147 12.689-19.891 21.835-7.322 8.647-10.76 22.862-7.47 36.769 4.784 20.227 19.145 18.253 33.855 22.076 6.1 1.585 13.314 11.358 15.744 13.75 4.32 4.252 9.059 13.093 10.084 23.763.29 3.025-.229 7.174-1.557 12.448-.521 10.205-1.073 17.93-1.656 23.178-6.382 57.445-16.53 66.46-17.466 110.148-.103 4.825.152-15.628 5.278-34.993 7.12-26.904 21.681-92.118 15.15-132.41-6.53-40.29 9.768-15.97 33.057-35.297 4.562-3.786 29.28-22.101 36.876-4.582.174.401.094 7.802.112 18.986.056 36.079-.109 111.52 2.223 118.249 1.747 5.043 4.754-19.242 8.845-41.98 1.856-10.314 5.254-19.243 6.546-26.842 1.344-7.903.142-14.342.8-13.06.282.547.55 1.046.803 1.492 3.246 5.72 7.72 12.404 13.424 20.055z" fill="url(#h)" fill-rule="nonzero" transform="rotate(3 115.567 302.114)"/><path d="M150.448 60.016c.704.473 3.615 2.222 5.892 5.608 2.967 4.413 4.246 11.544 3.835 21.393-2.815.492-4.486.849-5.013 1.07.75 6.44-2.149 19.822-9.209 25.115-4.671 3.502-13.679 10.144-19.856 11.026-6.178.882-13.15.794-17.21 0-2.691-.53-5.206-2.161-7.5-4.852-5.87-5.866-14.885-14.2-16.077-22.14-.2-.078.604-1.361 2.411-3.848-.11-.18.207-.605.951-1.275.1-.091 1.21-.702 2.783-2.505.424-.486.945-1.01 1.414-1.692.531-.775 1.924-2.991 1.924-2.991s1.043-3.037 1.53-3.895c.16-.28.806-1.442.974-1.716 1.078-1.76 1.635-2.605 2.434-4.289 1.744-3.675 3.241-7.773 5.424-10.757.675-.922 1.506-1.74 2.342-2.527a47.99 47.99 0 0 1 1.391-1.252c2.15-1.655 3.981-2.884 5.496-3.687 3.045-1.5 5.156-2.42 6.33-2.76 5.93-1.715 9.657-1.447 12.431-1.116 9.773 1.165 16.557 6.563 17.303 7.09z" stroke="url(#i)" stroke-width="1.764" fill="url(#j)" fill-rule="nonzero" opacity=".7" transform="scale(-1 1) rotate(-3 7.198 4990.332)"/><path d="M158.51 794.953c-3.234 10.351-4.527 18.115-3.88 23.29.646 5.177 1.455 11.97 2.425 20.38.552 2.588 2.331 3.883 5.337 3.883h9.218c.97 3.558 3.234 5.822 6.792 6.793 3.557.97 20.376-.647 50.456-4.852.781-8.264.296-13.925-1.456-16.984-2.628-4.589-10.673-9.704-16.495-11.645-5.822-1.941-11.159-17.469-11.159-20.865 0-3.397-11.296-5.823-16.495-5.823-3.466 0-7.347 1.94-11.643 5.823h-13.1z" stroke="#979797" stroke-width="1.764" fill="url(#k)" fill-rule="nonzero" transform="rotate(3 115.567 302.114)"/><path d="M128.017 830.318c2.077-.436 3.71-.675 4.896-.716 1.78-.06 2.932-.332 6.298.33 3.366.663 4.183 3.62 12.419 4.053 5.093.266 5.558-4.082 24.07-5.056 4.524-.237 12.71 1.163 24.556 4.203" stroke="#979797" stroke-width="1.764"/><path d="M68.378 798.447c-.33 5.876-.977 10.89-1.94 15.042-1.447 6.228-2.052 7.816-4.367 12.13-2.315 4.316-4.614 5.13-6.307 7.765-1.693 2.633-1.69 2.083-2.426 6.793-.736 4.71-.415 6.574 0 8.734s3.881 4.852 11.159 4.367c7.277-.485 30.13.675 35.416 0 5.284-.675 7.878-5.115 9.703-6.793 1.824-1.679 2.425-1.456 2.425-4.367 0-1.941-.323-6.794-.97-14.557-.181-3.859-.667-8.55-1.455-14.072a256.107 256.107 0 0 0-2.911-16.498l-10.188 1.456c-1.617-3.559-6.3-5.338-14.047-5.338-6.704 0-11.402 1.78-14.092 5.338z" stroke="#979797" stroke-width="1.764" fill="url(#l)" fill-rule="nonzero" transform="rotate(3 115.567 302.114)"/><path d="M96.734 821.067c-4.886-2.164-11.948-2.366-17.499-1.446-3.92.65-7.228 2.53-7.862 1.737-1.533-1.914 10.904-9.568 18.301-9.112 7.398.457 9.785 4.116 11.914 1.764 2.129-2.351-3.718-8.208-3.53-11.026.109-1.63 2.044-2.396 3.971-2.646 1.403-.182 2.787-.652 3.53 1.764 1.765 5.734 1.682 12.428 2.207 21.17.524 8.743.713 18.482 0 20.73-.41 1.293-1.674-.567-2.305-4.555-.162-1.02-.322-3.337-.231-4.404.172-2.017-.175-3.958-.254-4.845-.42-4.684-4.895-7.649-8.242-9.13z" fill="url(#m)" fill-rule="nonzero" transform="rotate(3 115.567 302.114)"/><path d="M25.875 833.785c6.081-2.68 11.657-4.006 16.726-3.982 10.2.048 24.71 1.295 34.196 5.679.312.145 2.94.18 4.92-1.2.66-.46 1.366-1.556 2.116-3.29" stroke="#979797" stroke-width="1.764"/><path d="M26.102 847.136c4.7-3.155 11.93-4.292 22.571-3.41 10.642.882 19.932 2.827 27.872 5.834-1.578 1.461-3.368 2.226-5.37 2.295-6.135.21-12.297-.468-18.091-.883-6.532-.467-12.976-.7-16.768-.882-1.283-.062-4.328-.327-6.177-.883-1.081-.324-2.427-1.014-4.037-2.07zM200.463 849.653c0-.65-6.974-4.617-17.65-4.853-10.676-.235-28.414 2.69-36.624 4.851.588.588 1.177 1.03 1.765 1.323 2.648 1.324 6.6 1.346 7.943 1.324 15.182-.25 44.566-1.997 44.566-2.645z" stroke="#777" stroke-width="1.764" fill="#515151" fill-rule="nonzero"/><path d="M258.386 457.986c.529 8.45.76 13.321.692 14.614-.068 1.292-1.866 4.552-5.673 9.212l-2.206-27.787c1.17.966 2.2 1.7 3.088 2.206.848.482 1.594 1.04 2.207 1.323.583.27 1.214.414 1.892.432z" stroke="#B2847B" stroke-width="1.764" fill="#FBCFBB" fill-rule="nonzero"/><path d="M137.21 779.644c.656-.262 1.455-.57 2.362-.95.909-.373 1.929-.807 3.037-1.286 1.11-.477 2.296-1.027 3.546-1.613a80.218 80.218 0 0 0 3.86-1.978 47.866 47.866 0 0 0 3.94-2.408c.647-.46 1.412-.912 2.233-1.174a6.212 6.212 0 0 1 2.576-.28c1.75.187 3.294.981 4.626 1.937a13.573 13.573 0 0 1 3.308 3.48c.428.656.797 1.345 1.04 2.079.245.727.385 1.502.272 2.276a3.03 3.03 0 0 1-.14.566l-.052.136-.027.068-.02.05c.011-.02-.022.045-.022.045l-.129.218c-.07.14-.199.297-.33.446-.124.162-.266.266-.403.382-.558.444-1.176.709-1.77.909-1.198.37-2.33.465-3.323.492-.993.02-1.856-.025-2.561-.1a18.765 18.765 0 0 1-1.629-.221l-.572-.101.579.049c.376.035.93.062 1.634.085.702.027 1.558.013 2.528-.073.967-.093 2.06-.266 3.163-.658 1.069-.406 2.231-1.144 2.357-2.39.068-.609-.065-1.272-.31-1.911a8.83 8.83 0 0 0-.996-1.874c-.823-1.203-1.91-2.294-3.146-3.194-1.237-.881-2.684-1.585-4.163-1.731-1.507-.183-2.946.354-4.198 1.264-1.335.9-2.712 1.677-4.062 2.384-2.705 1.409-5.329 2.498-7.6 3.354a72.464 72.464 0 0 1-3.12 1.109c-.933.319-1.754.573-2.427.79-.673.216-1.209.362-1.571.471l-.557.164 2.067-.812zM39.252 776.43a8.88 8.88 0 0 0 1.637 1.644 7.926 7.926 0 0 0 3.218 1.463c.67.14 1.398.21 2.173.216.37 0 .798-.008 1.203-.018.403-.027.812-.043 1.236-.097 1.693-.169 3.48-.647 5.38-1.202 1.898-.565 3.921-1.193 6.059-1.68 2.138-.485 4.368-.926 6.696-1.094a23.928 23.928 0 0 1 3.541-.022c1.2.085 2.387.3 3.541.602 1.151.31 2.278.668 3.395 1.194.28.137.559.281.843.472.141.095.286.205.433.342.142.142.311.31.43.637.05.184.092.359.02.624-.014.04 0 .037-.072.192a1.29 1.29 0 0 1-.098.17l-.057.077-.04.041c-.237.244-.422.305-.607.396-.355.144-.658.203-.963.263-1.199.215-2.318.278-3.436.37-1.113.086-2.206.173-3.277.283-2.141.226-4.193.506-6.116.934-1.917.42-3.705.934-5.331 1.5-3.245 1.147-5.842 2.423-7.599 3.42-.88.495-1.568.895-2.032 1.177l-.708.438.664-.503c.439-.32 1.076-.803 1.93-1.354 1.698-1.108 4.197-2.635 7.449-3.96a40.162 40.162 0 0 1 5.383-1.776c1.945-.51 4.045-.885 6.215-1.149 1.086-.136 2.19-.25 3.302-.36 1.103-.12 2.245-.208 3.29-.4.253-.05.511-.111.686-.186.07-.03.157-.086.115-.058a.372.372 0 0 0-.07.117c-.017.121-.007.148.008.195.022.055 0-.003-.065-.057a1.976 1.976 0 0 0-.246-.189 5.455 5.455 0 0 0-.667-.365c-.972-.451-2.063-.793-3.147-1.078a18.067 18.067 0 0 0-3.282-.584 22.556 22.556 0 0 0-3.334-.002c-2.22.153-4.418.503-6.518.94-2.102.445-4.114.975-6.048 1.477-1.933.5-3.822.904-5.599.987-.44.034-.881.03-1.308.035-.425-.01-.81-.02-1.23-.052a11.706 11.706 0 0 1-2.272-.39 8.32 8.32 0 0 1-3.267-1.768 8.097 8.097 0 0 1-1.523-1.817c-.286-.464-.409-.727-.409-.727s.148.25.474.683zM48.686 626.664a15.326 15.326 0 0 0 1.823 2.353c.787.83 1.796 1.665 3.001 2.346 1.235.702 2.663 1.128 4.27 1.297 1.6.175 3.341.214 5.132.423a44.64 44.64 0 0 1 5.48.933 45.21 45.21 0 0 1 5.499 1.664 28.11 28.11 0 0 1 2.66 1.166c.434.227.86.454 1.286.76.107.077.212.157.325.267.053.047.116.117.177.2.026.03.072.123.098.186.007.02.013.03.02.058a.67.67 0 0 1 .017.206c-.013.067.02-.004-.038.173a.617.617 0 0 1-.17.228c-.033.027-.046.033-.071.049a.567.567 0 0 1-.121.058.674.674 0 0 1-.096.029c-.116.027-.19.027-.269.032a3.723 3.723 0 0 1-.405-.016c-.984-.1-1.875-.27-2.785-.398a50.928 50.928 0 0 0-2.679-.326 42.494 42.494 0 0 0-5.095-.178c-1.621.05-3.151.195-4.553.41-2.803.44-5.087 1.127-6.644 1.707-1.562.576-2.428.98-2.428.98l.606-.32c.398-.204.983-.503 1.751-.835 1.533-.66 3.785-1.526 6.618-2.08 2.825-.57 6.218-.815 9.817-.536.9.068 1.81.165 2.73.282.912.11 1.854.273 2.737.36.107.009.214.014.299.01-.038.068-.066.1-.088.134-.025.044-.032.072-.024.05-.046.143-.017.056-.03.11a.24.24 0 0 0 .013.118c-.1-.068-.181-.133-.267-.193-.343-.245-.755-.466-1.163-.674a27.6 27.6 0 0 0-2.574-1.11 44.29 44.29 0 0 0-5.371-1.66 48.709 48.709 0 0 0-5.362-.998c-1.757-.229-3.473-.325-5.125-.554-.823-.118-1.63-.285-2.382-.548a10.636 10.636 0 0 1-2.063-.979 12.385 12.385 0 0 1-3-2.59c-.763-.898-1.998-3.296-1.556-2.594zM72.692 663.48c.872-.406 2.106-1.016 3.617-1.676a103.153 103.153 0 0 1 5.215-2.147 79.076 79.076 0 0 1 2.998-1.077 68.05 68.05 0 0 1 3.152-.973c1.069-.288 2.15-.546 3.234-.74 1.085-.186 2.175-.303 3.27-.218.543.058 1.11.148 1.624.475.13.077.249.174.359.286.059.05.104.115.152.177l.069.095.025.036c.012.019-.013-.026.027.046l.02.04c.096.165.225.581.213.83.016.56-.138 1.041-.308 1.476-.173.437-.395.819-.608 1.183-.432.724-.902 1.327-1.324 1.852-.426.523-.812.964-1.135 1.321-.32.361-.589.628-.769.813l-.276.283.898-1.215c.286-.385.623-.86.99-1.415a22.61 22.61 0 0 0 1.13-1.91c.176-.359.36-.737.485-1.138.127-.395.23-.818.194-1.204a.928.928 0 0 0-.047-.254c-.001-.057-.069-.176-.125-.282-.075-.095-.21-.259-.384-.335-.337-.193-.8-.279-1.275-.308-.963-.053-2 .108-3.039.29a37.75 37.75 0 0 0-3.143.751 66.48 66.48 0 0 0-3.118.928c-1.022.334-2.032.652-3 .99l-2.797.97-2.501.889-3.75 1.335c-.905.325-1.427.499-1.427.499s.49-.253 1.354-.673zM136.757 669.347c.645.302 1.56.756 2.605 1.395.524.316 1.084.674 1.658 1.081a27.05 27.05 0 0 1 1.764 1.336 31.236 31.236 0 0 1 3.485 3.322c.535.596 1.072 1.25 1.561 1.884.5.634.943 1.295 1.369 1.934a30.05 30.05 0 0 1 2.037 3.662c.52 1.11.876 2.066 1.106 2.74.116.336.196.605.25.788l.085.28-.512-.992a59.337 59.337 0 0 0-1.422-2.557 62.694 62.694 0 0 0-1.028-1.65c-.37-.582-.792-1.174-1.222-1.789a47.15 47.15 0 0 0-1.4-1.838 34.137 34.137 0 0 0-1.547-1.817 35.888 35.888 0 0 0-1.636-1.731c-.567-.546-1.114-1.095-1.68-1.588a49.61 49.61 0 0 0-1.645-1.408 57.944 57.944 0 0 0-1.533-1.197 55.841 55.841 0 0 0-2.389-1.688l-.931-.614s.377.148 1.025.447z" fill-opacity=".51" fill="#000" fill-rule="nonzero"/><path d="M150.418 833.27c-.079-.36-.191-.893-.253-1.583a13.81 13.81 0 0 1-.01-2.5c.085-.966.286-2.058.704-3.19.116-.277.225-.566.353-.852.143-.282.268-.57.434-.862a12.87 12.87 0 0 1 1.118-1.676 13.004 13.004 0 0 1 3.25-2.897 15.155 15.155 0 0 1 2.04-1.078 14.6 14.6 0 0 1 1.09-.437c.378-.124.756-.245 1.145-.338 1.55-.393 3.184-.517 4.785-.446 1.607.078 3.166.316 4.702.539 1.537.226 3.038.513 4.486.806a95.596 95.596 0 0 1 7.832 1.95c1.135.324 2.166.655 3.075.959.912.298 1.7.575 2.35.8.65.222 1.153.425 1.499.55l.529.2-2.084-.57c-.663-.18-1.467-.4-2.395-.633-.926-.237-1.974-.494-3.116-.768a147.295 147.295 0 0 0-7.851-1.65c-1.442-.265-2.94-.494-4.461-.717-1.524-.21-3.077-.432-4.609-.497-1.533-.08-3.065.03-4.516.386a14.887 14.887 0 0 0-4.054 1.67 13.01 13.01 0 0 0-3.14 2.63c-.425.51-.783.999-1.122 1.552-.16.25-.3.531-.447.788-.136.266-.253.536-.377.796a13.252 13.252 0 0 0-1.023 5.474c.021.682.069 1.22.118 1.584l.086.558-.138-.549zM146.982 823.224c-.008-.296-.034-.736.014-1.293.04-.557.133-1.234.335-1.994.207-.753.515-1.61 1.047-2.424l.182-.31c.067-.103.149-.204.223-.308.156-.206.308-.424.477-.63.352-.392.721-.797 1.151-1.158.844-.737 1.836-1.399 2.934-1.928a17.01 17.01 0 0 1 3.529-1.26c.311-.073.626-.139.948-.192.151-.029.342-.052.492-.068.158-.016.306-.039.474-.05a14.022 14.022 0 0 1 1.966-.024c.643.033 1.27.107 1.842.076a3.877 3.877 0 0 0 1.621-.421l.192-.096c.031-.012.123-.073.182-.107.128-.08.276-.159.38-.24.227-.151.453-.331.674-.517a7.476 7.476 0 0 0 1.146-1.26c.325-.452.602-.94.763-1.42.09-.233.12-.488.098-.623.002-.048-.018-.04-.014-.058.005-.008-.106-.041-.211-.017-.454.062-.98.253-1.465.391a39.91 39.91 0 0 1-1.436.403c-1.853.487-3.446.671-4.549.776-.553.053-.99.063-1.287.075l-.455.01s.63-.077 1.717-.272c1.09-.187 2.625-.542 4.417-1.124.448-.145.91-.308 1.389-.484.49-.169.953-.373 1.573-.494a1.33 1.33 0 0 1 .422-.006c.054.01.108.016.194.058a.736.736 0 0 1 .17.104l.05.042a.546.546 0 0 1 .05.052c.093.143.163.265.174.36.087.412.014.737-.073 1.041-.173.615-.48 1.155-.827 1.676a8.325 8.325 0 0 1-1.243 1.442c-.24.214-.488.425-.77.623-.143.108-.269.174-.402.26-.075.043-.111.073-.22.13l-.223.115c-.598.311-1.3.504-1.986.534-.688.04-1.325-.034-1.945-.06a13.106 13.106 0 0 0-1.822.004c-.147.007-.31.03-.465.044-.163.016-.284.03-.442.057a17.656 17.656 0 0 0-4.265 1.291c-1.048.48-2.01 1.053-2.833 1.71-.421.32-.776.688-1.133 1.034-.166.18-.313.367-.468.546-.076.091-.155.175-.226.27l-.2.299c-.553.752-.908 1.525-1.175 2.236a10.506 10.506 0 0 0-.49 1.908c-.087.543-.127.975-.149 1.27l-.023.456-.029-.455zM77.119 834.749c.077-.424.171-1.051.237-1.85.06-.798.085-1.775-.051-2.876-.14-1.097-.416-2.325-.967-3.558-.069-.148-.138-.324-.208-.453-.085-.154-.17-.31-.258-.467l-.262-.477c-.096-.151-.2-.292-.301-.44-.102-.146-.204-.295-.306-.444-.106-.147-.234-.285-.351-.43l-.362-.432c-.129-.139-.268-.27-.403-.407-1.09-1.083-2.443-2.018-3.96-2.757-1.518-.745-3.188-1.302-4.92-1.767-1.743-.472-3.52-.868-5.31-1.035-3.604-.385-7.257.035-10.57.858a73.81 73.81 0 0 0-4.755 1.369 46.498 46.498 0 0 0-10.029 4.645 47.515 47.515 0 0 0-2.124 1.377l.518-.414c.343-.263.838-.66 1.502-1.12 1.323-.925 3.257-2.21 5.761-3.425a40.29 40.29 0 0 1 4.14-1.75c1.5-.53 3.086-1.067 4.776-1.51 1.685-.444 3.462-.818 5.297-.987a28.492 28.492 0 0 1 5.58-.008c1.88.188 3.708.61 5.46 1.097 1.768.479 3.484 1.107 5.057 1.909 1.576.794 2.975 1.832 4.094 3.015.138.149.281.293.413.443l.37.47c.12.158.248.306.358.469l.315.496c.1.165.209.327.302.489.08.164.162.327.242.487l.237.479c.09.186.14.339.21.507.53 1.315.736 2.607.811 3.74a15.145 15.145 0 0 1-.492 4.77c-.11.417-.181.636-.181.636s.053-.225.13-.65z" fill="#979797" fill-rule="nonzero"/><path d="M104.578 209.464c1.148 6.638 2.472 10.901 3.971 12.79 2.249 2.834 5.062 1.46 6.178 0 1.116-1.458-1.99-14.07-5.075-18.524-.967-1.397-4.993-4.674-10.81-7.498-5.396-2.619-12.408-4.711-18.092-7.939-7.726-4.387-13.69-9.99-14.561-11.908-2.207-4.852-4.866 2.562-6.62 21.17-1.753 18.61-4.138 41.27 0 38.813 4.14-2.456 10.646-44.481 14.12-47.193 3.476-2.711 3.504 21.736 3.972 33.08.469 11.343-8.643 56.279 0 63.07 3.915 3.077 8.557-16.651 14.12-23.375 6.72-8.122 14.339-4.599 17.871-14.555 2.46-6.933-.971-12.582-2.427-19.848-.728-3.633-1.61-9.661-2.647-18.083z" fill="url(#n)" fill-rule="nonzero" transform="translate(3.8 -1.443)"/><path d="M177.831 461.599c-.186.509-.457 1.258-.832 2.199-.37.942-.836 2.081-1.394 3.378a88.735 88.735 0 0 1-1.975 4.313 115.61 115.61 0 0 1-2.576 4.99c-.955 1.75-1.993 3.58-3.16 5.416a124.104 124.104 0 0 1-3.712 5.587 158.028 158.028 0 0 1-4.123 5.563 312.326 312.326 0 0 1-4.349 5.372c-1.431 1.762-2.906 3.474-4.09 5.224-.14.22-.275.44-.38.656a1.988 1.988 0 0 0-.126.307c-.034.095-.024.163-.035.153-.143-.145-.048-.065-.069-.083.073.023.187.007.287-.016.213-.045.446-.13.674-.222.918-.392 1.8-.91 2.642-1.416 1.686-1.027 3.24-2.083 4.67-3.061 1.427-.982 2.731-1.884 3.863-2.72a86.104 86.104 0 0 0 2.89-2.221 101.228 101.228 0 0 0 2.454-2.021l-.601.575c-.395.371-.971.921-1.732 1.59a86.2 86.2 0 0 1-2.79 2.363 78.213 78.213 0 0 1-3.77 2.88c-1.404 1.021-2.93 2.125-4.608 3.215-.845.54-1.713 1.089-2.703 1.547-.252.11-.51.216-.81.29-.156.032-.308.07-.528.047-.288-.04-.522-.158-.656-.496a1.16 1.16 0 0 1 .024-.634c.047-.163.108-.305.172-.438.129-.269.274-.51.424-.75 1.231-1.855 2.676-3.556 4.096-5.34a336.1 336.1 0 0 0 4.287-5.397c1.43-1.81 2.825-3.65 4.148-5.489a122.847 122.847 0 0 0 3.74-5.514 153.24 153.24 0 0 0 3.257-5.313 115.359 115.359 0 0 0 2.705-4.89c1.604-3.067 2.856-5.672 3.68-7.519.833-1.843 1.29-2.907 1.29-2.907s-.1.272-.284.782zM130.297 520.08c-.451-.44-1.119-1.08-1.94-1.923-1.641-1.687-3.972-4.119-6.551-7.23-2.574-3.113-5.468-6.848-8.242-11.077a121.778 121.778 0 0 1-4.074-6.648c-1.307-2.316-2.579-4.695-3.656-7.198a18.173 18.173 0 0 1-.374-.965 6.782 6.782 0 0 1-.162-.522c-.022-.107-.052-.172-.055-.382.002-.047.01-.1.023-.147-.016-.008.108-.256.227-.305.422-.13.054-.042.312-.065a.59.59 0 0 1 .296.124c.09.08.122.126.16.173.237.334.383.61.559.908l.498.874a87.858 87.858 0 0 0 2.04 3.411 74.343 74.343 0 0 0 4.452 6.309 80.748 80.748 0 0 0 4.724 5.466 68.19 68.19 0 0 0 4.684 4.473 76.717 76.717 0 0 0 4.273 3.435 65.861 65.861 0 0 0 3.477 2.415c1.97 1.278 3.143 1.94 3.143 1.94l-.858-.446c-.555-.298-1.374-.73-2.385-1.334-2.02-1.206-4.88-3.01-8.002-5.593-3.118-2.577-6.551-5.867-9.715-9.833a75.202 75.202 0 0 1-4.556-6.345c-.72-1.119.408.862 1.683 3.163a121.218 121.218 0 0 0 3.99 6.633 167.376 167.376 0 0 0 4.062 5.999 131.332 131.332 0 0 0 3.899 5.194c2.498 3.153 4.682 5.705 6.264 7.444a155.574 155.574 0 0 0 2.502 2.72l-.698-.669z" fill-opacity=".51" fill="#000" fill-rule="nonzero" opacity=".415"/><path d="M138.132 418.637a178.26 178.26 0 0 1 3.185 14.336c.829 4.62 2.03 12.364 2.73 25.943.486 9.41.747 21.905 0 36.867l3.736-.277c.365-15.648-.132-28.263-.717-37.287-.62-9.566-1.364-15.51-1.911-19.36a225.909 225.909 0 0 0-3.347-18.166c-.574-1.061-.655-2.2-.131-2.767.759-.819 2.578-.216 3.556.66.821.733 1.077 1.682 1.185 2.107.946 3.694 1.664 8.776 1.834 10.005a1083.34 1083.34 0 0 1 5.543 62.712h2.765c-.329-3.966-.828-10.031-1.415-17.46-.747-9.445-1.12-14.168-1.415-18.246-1.206-16.669-1.15-19.887-2.36-27.055a134.459 134.459 0 0 0-2.83-12.899" stroke="url(#o)" stroke-width="1.764" fill="url(#p)" fill-rule="nonzero" transform="rotate(3 115.567 302.114)"/><path d="M59.335 118.377c-.079 1.461 2.751-1.075 6.178-3.97 4.91-4.148 10.72-9.08 12.355-11.994 2.777-4.949.883-15.351 0-16.233-.763-.763-2.078 7.625-7.501 16.76-4.35 7.327-10.946 13.854-11.032 15.437z" fill-opacity=".22" fill="url(#q)" fill-rule="nonzero" transform="rotate(3 115.567 302.114)"/><path d="M112.16 18.745c1.324-6.521 20.656-9.781 13.679-11.026-12.355-2.206-19.016 1.721-23.387 4.41-7.815 4.808-9.773 10.471-9.242 20.602.188 3.586-.69 7.357-.541 8.42.468 3.332 12.974-10.939 25.94-6.969 12.966 3.97-7.773-8.916-6.449-15.437z" fill-opacity=".22" fill="url(#r)" fill-rule="nonzero" transform="rotate(3 115.567 302.114)"/><path d="M83.557 61.218l1.189-2.272c.4-.755.858-1.479 1.286-2.22a46.761 46.761 0 0 1 2.91-4.23c.524-.679 1.092-1.323 1.643-1.98l.883-.937.442-.468.467-.443.938-.883.99-.827c.323-.284.678-.528 1.022-.786.344-.26.692-.514 1.058-.74a22.14 22.14 0 0 1 4.597-2.359c.815-.3 1.634-.548 2.5-.729.451-.086.904-.076 1.325-.076l1.277-.01c1.702-.031 3.406-.121 5.11-.222l2.556-.166c.836-.057 1.696-.157 2.552-.217a75.312 75.312 0 0 1 10.296-.08c1.713.115 3.428.248 5.144.575 1.713.328 3.392.935 4.92 1.78 1.538.84 2.941 1.918 4.176 3.144a23.858 23.858 0 0 1 3.303 4.032c1.879 2.938 3.12 6.248 3.769 9.656.407 1.055.82 2.193 1.218 3.333.404 1.136.774 2.288 1.246 3.35.464 1.057 1.14 2.007 1.9 2.901.745.877 1.689 1.646 2.519 2.574.83.918 1.582 1.868 2.286 2.88a30.892 30.892 0 0 1 1.886 3.146c.57 1.072 1.112 2.124 1.754 3.122.624.987 1.37 1.901 2.178 2.768 1.628 1.728 3.439 3.318 5.251 4.895a201.271 201.271 0 0 0 5.537 4.626 254.3 254.3 0 0 0 5.692 4.439c1.916 1.456 3.85 2.91 5.745 4.4 3.803 2.981 7.474 6.122 11.08 9.326l5.389 4.827c1.79 1.613 3.584 3.225 5.36 4.857 1.778 1.63 3.533 3.29 5.227 5.012a133.898 133.898 0 0 1 4.937 5.297 138.617 138.617 0 0 1 9.016 11.312 152.268 152.268 0 0 0-9.235-11.115 133.35 133.35 0 0 0-5.016-5.194 179.035 179.035 0 0 0-5.282-4.923c-1.79-1.61-3.6-3.202-5.409-4.795l-5.436-4.766a296.233 296.233 0 0 0-5.503-4.676 250.692 250.692 0 0 0-5.634-4.51c-1.9-1.483-3.825-2.92-5.752-4.374a254.702 254.702 0 0 1-5.728-4.433 202.733 202.733 0 0 1-5.577-4.627c-1.828-1.58-3.654-3.168-5.34-4.944-.838-.892-1.627-1.85-2.296-2.899-.667-1.029-1.234-2.12-1.799-3.174a29.84 29.84 0 0 0-1.84-3.047 29.835 29.835 0 0 0-2.202-2.784c-.773-.875-1.709-1.639-2.527-2.602-.796-.941-1.53-1.98-2.034-3.135-.503-1.145-.863-2.296-1.264-3.43a141.583 141.583 0 0 0-1.22-3.392c-.637-3.384-1.831-6.594-3.63-9.428a22.984 22.984 0 0 0-3.17-3.896 17.818 17.818 0 0 0-3.977-3.02 15.936 15.936 0 0 0-4.678-1.711c-1.641-.332-3.341-.484-5.036-.616a74.51 74.51 0 0 0-10.198-.03c-.85.05-1.689.14-2.558.19l-2.563.14c-1.71.082-3.42.154-5.136.167l-1.288-.004c-.432-.005-.839-.016-1.23.055-.81.16-1.635.397-2.426.68a21.826 21.826 0 0 0-4.545 2.234c-.364.217-.71.461-1.054.71-.344.25-.699.484-1.023.76l-.992.8-.944.857-.47.43-.447.457-.892.913c-.558.643-1.133 1.273-1.666 1.938a50.082 50.082 0 0 0-2.98 4.158c-.442.73-.917 1.44-1.335 2.186l-1.242 2.243z" fill="url(#s)" fill-rule="nonzero" transform="rotate(3 115.567 302.114)"/><path d="M43.278 168.151c.448 1.75 1.092 4.323 1.752 7.633.658 3.31 1.354 7.353 1.906 12.026.55 4.67.96 9.977.998 15.772.005 5.799-.134 12.045-.28 18.677-.161 6.624-.381 13.607-.668 20.826-.542 14.437-1.154 29.838-.466 45.204.307 7.685.887 15.35 1.858 22.858.96 7.513 1.942 14.922 2.997 22.06 1.066 7.139 2.136 14.036 3.231 20.564a840.497 840.497 0 0 0 3.309 18.358c1.089 5.674 2.136 10.865 3.083 15.464a790.736 790.736 0 0 0 2.561 11.886c1.469 6.581 2.347 10.334 2.347 10.334l-.698-2.68a498.86 498.86 0 0 1-1.924-7.589 790.902 790.902 0 0 1-2.815-11.835c-1.05-4.58-2.21-9.752-3.358-15.42a842.109 842.109 0 0 1-3.55-18.335c-1.182-6.521-2.361-13.41-3.434-20.562-1.09-7.153-2.102-14.542-3.097-22.074-1.005-7.537-1.628-15.254-1.962-22.968-.307-7.72-.303-15.446-.132-23.039.17-7.594.488-15.057.79-22.276l.872-20.809c.23-6.608.45-12.882.52-18.643a159.33 159.33 0 0 0-.718-15.716 153.95 153.95 0 0 0-1.647-12.03 167.263 167.263 0 0 0-1.551-7.667c-.404-1.76-.64-2.695-.64-2.695s.263.927.716 2.676z" fill="url(#t)" fill-rule="nonzero" transform="rotate(3 115.567 302.114)"/><path d="M101.05 221.228l-3.887 19.497a3680.863 3680.863 0 0 1-5.176 25.263c-1.926 9.25-3.995 19.271-6.045 29.9a2106.232 2106.232 0 0 0-6.187 33.479c-1.011 5.818-2.086 11.722-3.006 17.723-.934 6.002-1.8 12.09-2.625 18.232a1029.328 1029.328 0 0 0-4.307 37.33c-.62 6.266-1.28 12.526-1.025 18.762.122 3.116.45 6.21.953 9.28.504 3.058 1.159 6.097 1.885 9.102.725 3.007 1.522 5.986 2.333 8.947.817 2.961 1.63 5.906 2.476 8.822.845 2.912 1.692 5.844 2.217 8.821.544 2.96.92 5.946 1.094 8.907.18 2.962.21 5.894.356 8.776.183 2.876.48 5.735.786 8.555.316 2.82.664 5.607 1.037 8.357l.573 4.097.297 2.015.37 2.002c.108.672.28 1.316.438 1.963.16.647.317 1.292.474 1.935l1.108 3.802 1.223 3.708c.422 1.22.87 2.422 1.3 3.618a253.937 253.937 0 0 0 5.53 13.64c3.78 8.651 7.558 16.444 11.008 23.298 3.441 6.86 6.625 12.747 9.243 17.595 2.66 4.826 4.765 8.61 6.241 11.168l2.242 3.933-2.279-3.912c-1.5-2.543-3.64-6.308-6.347-11.11-2.664-4.824-5.904-10.683-9.412-17.514-3.52-6.824-7.377-14.588-11.197-23.238a254.661 254.661 0 0 1-5.615-13.642c-.436-1.199-.893-2.401-1.323-3.625l-1.25-3.719-1.134-3.823-.493-1.965c-.164-.658-.342-1.317-.452-1.983l-.381-2-.313-2.04-.595-4.1a363.314 363.314 0 0 1-1.084-8.37c-.326-2.83-.633-5.685-.82-8.599-.153-2.91-.188-5.837-.37-8.77a72.404 72.404 0 0 0-1.097-8.803c-.524-2.934-1.36-5.815-2.214-8.734a696.259 696.259 0 0 1-2.494-8.829c-.818-2.964-1.623-5.95-2.357-8.97-1.472-6.031-2.664-12.24-2.895-18.558-.268-6.32.387-12.636.998-18.894a1031.123 1031.123 0 0 1 4.377-37.356 877.971 877.971 0 0 1 2.66-18.245c.931-6.012 2.017-11.92 3.039-17.736a1619.002 1619.002 0 0 1 6.323-33.468c2.107-10.62 4.23-20.637 6.204-29.876l5.366-25.22 4.069-19.46 3.531-16.959-3.372 16.99z" fill="url(#u)" fill-rule="nonzero" transform="rotate(3 115.567 302.114)"/><path d="M238.953 192.499a21515.952 21515.952 0 0 1-6.977 6.976c-.94.982-1.893 2.073-2.777 3.316-1.778 2.48-3.392 5.484-4.653 8.94-.622 1.728-1.212 3.563-1.652 5.491-.442 1.933-.7 3.976-.82 6.098-.126 2.121-.142 4.32-.163 6.583-.015 2.263-.008 4.589.176 6.962.082 1.188.226 2.383.405 3.59.173 1.208.421 2.428.525 3.7.106 1.273.041 2.569-.12 3.853a34.1 34.1 0 0 1-.297 1.925c-.128.64-.254 1.295-.427 1.932-.634 2.582-1.78 5.038-2.684 7.589-.92 2.552-1.56 5.247-2.042 8.02-.956 5.543-1.058 11.415-1.024 17.403.095 12.01 1.124 24.647 2.132 37.724.128 1.628.235 3.296.291 4.943l.053 1.24c-.001 2.092.02 2.932-.039 3.77-.046.839-.063 1.68-.17 2.52l-.13 1.26c-.05.42-.13.837-.192 1.256-.247 1.679-.662 3.327-1.08 4.971-.895 3.269-1.863 6.508-2.616 9.823-.182.83-.387 1.657-.55 2.493l-.492 2.51c-.163.839-.287 1.685-.433 2.529-.138.845-.292 1.688-.398 2.54-1.929 13.598-2.564 27.612-2.065 41.561.235 6.98.737 13.95 1.415 20.876.674 6.927 1.54 13.81 2.408 20.64.431 3.416.88 6.808 1.425 10.17.547 3.361 1.13 6.712 1.645 10.05 1.04 6.672 1.967 13.28 2.852 19.777.883 6.501 1.7 12.9 2.497 19.159.406 3.128.827 6.217 1.32 9.256a195.05 195.05 0 0 0 1.672 8.964c2.449 11.758 5.585 22.69 8.794 32.67 1.59 5 3.23 9.744 4.906 14.22 1.675 4.475 3.33 8.705 4.685 12.752 2.73 8.086 4.647 15.277 6.06 21.234a253.927 253.927 0 0 1 3.52 17.604l.208 1.266-.22-1.265a254.298 254.298 0 0 0-3.667-17.567c-1.462-5.938-3.44-13.111-6.233-21.158-1.387-4.028-3.073-8.234-4.789-12.701-1.714-4.467-3.372-9.225-4.989-14.216-3.261-9.977-6.456-20.915-8.967-32.692a196.695 196.695 0 0 1-1.721-8.99c-.51-3.048-.947-6.143-1.367-9.273-.84-6.259-1.643-12.655-2.543-19.148-.896-6.497-1.831-13.094-2.88-19.757-.52-3.332-1.107-6.67-1.661-10.043-.552-3.375-1.009-6.782-1.446-10.197-.877-6.83-1.757-13.72-2.442-20.663-.69-6.94-1.209-13.93-1.45-20.934-.479-14.01.178-28.055 2.138-41.727.11-.856.265-1.705.405-2.555.148-.85.275-1.701.44-2.545l.5-2.53c.166-.842.374-1.674.558-2.51.765-3.34 1.747-6.61 2.638-9.848.885-3.238 1.443-6.515 1.56-9.818.06-.824.04-1.647.045-2.468l-.051-2.471a110.7 110.7 0 0 0-.283-4.917c-1.004-13.07-1.957-25.737-1.998-37.781-.019-1.504.017-3.003.031-4.489.043-1.486.08-2.946.155-4.418.153-2.924.431-5.808.931-8.607.499-2.795 1.162-5.528 2.106-8.109.931-2.586 2.075-5.006 2.705-7.529.174-.628.298-1.254.427-1.887.116-.644.226-1.269.302-1.9.164-1.26.233-2.514.137-3.746-.094-1.231-.335-2.45-.505-3.67a44.29 44.29 0 0 1-.382-3.628c-.165-2.398-.152-4.735-.118-7 .04-2.264.075-4.467.22-6.6.139-2.133.416-4.196.878-6.142.463-1.951 1.067-3.774 1.71-5.51 1.296-3.466 2.944-6.472 4.752-8.95.902-1.243 1.868-2.332 2.82-3.31l2.73-2.683 4.306-4.234 3.572-3.538-3.542 3.568z" fill="url(#v)" fill-rule="nonzero" transform="rotate(3 115.567 302.114)"/><path d="M227.083 222.2c.025 1.659.021 3.504.075 5.498a386.7 386.7 0 0 0 .23 6.475c.18 4.623.603 9.815.933 15.513.156 2.85.237 5.827.243 8.902.013 3.077-.09 6.287-.46 9.547-.368 3.252-.716 6.561-.924 9.974a375.1 375.1 0 0 0-.496 10.451c-.122 3.561-.194 7.163-.212 10.824l-.014 5.527c-.013 1.856-.033 3.737-.198 5.63-.149 1.888-.477 3.793-.807 5.628-.312 1.82-.502 3.688-.683 5.564-.36 3.749-.637 7.601-1.675 11.363-.13.49-.254.874-.325 1.31a7.33 7.33 0 0 0-.107 1.289c0 .143.022.457.068.94.1.601.165.76.211.968.065.2.13.41.21.61a8.779 8.779 0 0 0 1.332 2.255c.558.7 1.196 1.31 1.909 1.936 2.82 2.519 5.627 5.077 8.201 7.836 1.285 1.381 2.53 2.795 3.666 4.293 1.14 1.49 2.213 3.033 3.113 4.675.908 1.632 1.704 3.333 2.224 5.125.306.892.483 1.786.664 2.687.17.903.306 1.78.414 2.706a33.7 33.7 0 0 1 .184 2.699c.018.902-.007 1.8-.06 2.683-.108 1.771-.287 3.465-.253 5.137.036 1.677.215 3.321.594 4.917.372 1.6.849 3.189 1.286 4.76 1.787 6.276 3.409 12.233 5.193 17.621.445 1.347.942 2.646 1.353 3.96.422 1.305.794 2.588 1.125 3.85a106.08 106.08 0 0 1 1.612 7.214c.846 4.561 1.36 8.57 1.713 11.876.358 3.306.536 5.913.658 7.689l.168 2.725-.246-2.719a243.698 243.698 0 0 0-.86-7.662 154.55 154.55 0 0 0-1.965-11.802 105.057 105.057 0 0 0-1.756-7.136c-.36-1.241-.74-2.513-1.175-3.794-.418-1.284-.935-2.584-1.402-3.935-1.869-5.405-3.568-11.338-5.438-17.591-.457-1.566-.955-3.141-1.363-4.798-.417-1.66-.631-3.398-.691-5.146-.064-1.757.108-3.517.21-5.235.047-.862.067-1.722.047-2.584a32.051 32.051 0 0 0-.19-2.604 36.925 36.925 0 0 0-.41-2.59 29.597 29.597 0 0 0-.28-1.288l-.164-.643-.198-.621c-.494-1.682-1.259-3.299-2.136-4.86-.868-1.568-1.912-3.057-3.027-4.501-1.109-1.451-2.334-2.829-3.6-4.178-2.538-2.698-5.318-5.21-8.148-7.715-1.45-1.235-2.878-2.788-3.635-4.715-.097-.24-.176-.483-.257-.734-.063-.253-.154-.545-.185-.764-.094-.524-.1-.62-.119-.76a8.75 8.75 0 0 1 .08-2.322c.079-.503.239-1.028.354-1.454 1.006-3.573 1.304-7.342 1.679-11.11.19-1.886.39-3.777.72-5.667.344-1.867.662-3.663.816-5.504.168-1.83.196-3.677.217-5.524l.039-5.527c.033-3.666.122-7.3.26-10.855.144-3.565.296-7.067.57-10.494.253-3.426.65-6.781 1.059-10.009.408-3.222.55-6.367.578-9.43.034-3.064-.008-6.022-.126-8.861-.114-2.84-.293-5.564-.406-8.16-.118-2.595-.198-5.06-.25-7.374a380.268 380.268 0 0 1-.092-6.485c-.01-2.01.032-3.844.043-5.507l.14-10.442.142 10.442z" fill="url(#w)" fill-rule="nonzero" transform="rotate(3 115.567 302.114)"/><path d="M24.984 442.376c.513-.438 1.261-1.089 2.265-1.853a60.664 60.664 0 0 1 8.806-5.651c.96-.503 1.967-1.013 3.007-1.532 1.035-.523 2.108-1.05 3.142-1.669 1.035-.617 2.024-1.337 2.867-2.234.424-.444.807-.936 1.164-1.455.166-.22.359-.552.515-.814.157-.268.306-.548.451-.84.565-1.157 1.032-2.42 1.186-3.677.07-.612.064-1.268-.148-1.68a2.021 2.021 0 0 1-.075-.148 1.129 1.129 0 0 1-.095-.11.553.553 0 0 0-.113-.103c-.087-.079-.102-.06-.12-.068-.109-.053-.386-.098-.66-.077-.583.05-1.25.238-1.904.447a50.52 50.52 0 0 0-1.994.7l-4.042 1.498c-2.709.975-5.445 1.92-8.184 2.725-1.375.397-2.748.768-4.167 1-.708.118-1.433.198-2.194.175-.38-.02-.776-.058-1.17-.185a3.78 3.78 0 0 1-1.075-.516c-1.266-.823-2.151-2.05-2.679-3.327-.534-1.283-.785-2.646-.68-3.98.008-.167.031-.333.058-.498l.038-.247.051-.24c.075-.315.18-.659.31-.952.257-.609.61-1.147.986-1.622.375-.479.77-.904 1.153-1.32.186-.2.388-.418.58-.612.19-.198.382-.393.59-.586a16.186 16.186 0 0 1 2.496-1.945c.841-.537 1.643-.997 2.352-1.49a16.345 16.345 0 0 0 3.29-3.026 20.551 20.551 0 0 0 1.69-2.364c.348-.576.516-.895.516-.895s-.143.33-.448.933a17.479 17.479 0 0 1-1.535 2.501 16.744 16.744 0 0 1-3.192 3.288c-1.41 1.098-3.136 2.061-4.576 3.588-.182.18-.364.381-.548.589-.186.205-.354.402-.54.62-.36.425-.727.855-1.051 1.306-.669.9-1.102 1.884-1.135 3.042-.059 1.134.198 2.334.694 3.428.496 1.094 1.254 2.103 2.273 2.73.492.332.983.445 1.6.463a10 10 0 0 0 1.917-.194c1.317-.243 2.657-.62 4-1.012 2.689-.808 5.386-1.759 8.085-2.744l4.047-1.474a51.404 51.404 0 0 1 2.056-.708c.703-.214 1.412-.428 2.242-.497.428-.014.879-.012 1.408.245.139.07.286.162.329.206l.103.082c.136.117.074.068.107.099.145.17.225.27.3.37l.165.32c.112.216.149.43.212.645.026.206.074.421.074.62.02.406-.003.795-.057 1.17-.216 1.5-.751 2.833-1.386 4.084-.16.31-.332.618-.518.924-.192.307-.335.553-.568.862-.4.566-.842 1.1-1.328 1.58-.967.97-2.076 1.723-3.18 2.337-2.221 1.218-4.386 2.069-6.32 3.007a75.884 75.884 0 0 0-5.185 2.722 62.695 62.695 0 0 0-3.827 2.414c-2.076 1.416-3.21 2.307-3.21 2.307l.779-.682z" fill="url(#x)" fill-rule="nonzero" transform="rotate(3 115.567 302.114)"/><path d="M112.881 527.434c-.317-.474-.813-1.148-1.386-2.047l-.965-1.48-1.106-1.76c-.783-1.263-1.644-2.701-2.538-4.297-.883-1.602-1.833-3.341-2.768-5.22-.94-1.874-1.9-3.869-2.795-5.976a122.2 122.2 0 0 1-2.598-6.563 137.842 137.842 0 0 1-2.296-6.914c-.697-2.336-1.364-4.672-2.091-6.947-.72-2.277-1.49-4.5-2.276-6.634-.794-2.14-1.569-4.19-2.347-6.13a178.103 178.103 0 0 0-2.278-5.425c-1.477-3.333-2.757-6.09-3.705-7.997l-1.49-2.996.44.756c.283.495.706 1.218 1.217 2.153 1.018 1.871 2.474 4.55 4.035 7.857a180.372 180.372 0 0 1 2.434 5.38c.832 1.919 1.686 3.97 2.482 6.106.81 2.14 1.604 4.368 2.35 6.652.751 2.283 1.445 4.621 2.156 6.944a136.8 136.8 0 0 0 2.22 6.89 121.562 121.562 0 0 0 2.52 6.54c.887 2.094 1.77 4.108 2.656 5.997.878 1.892 1.777 3.65 2.613 5.268.856 1.607 1.646 3.08 2.369 4.373l1.023 1.805.897 1.517c.537.919.98 1.63 1.272 2.12l.452.749-.497-.72z" fill="url(#y)" fill-rule="nonzero" transform="rotate(3 115.567 302.114)"/><path d="M80.232 466.952c.393-3.604.916-8.758 1.612-14.933l.54-4.817.529-5.157 1.066-11.142c.355-3.863.669-7.872 1.147-11.93.472-4.059 1.01-8.168 1.654-12.272.656-4.1 1.443-8.174 2.223-12.178l2.276-11.754 2.05-11.006c.65-3.49 1.171-6.824 1.702-9.884 1.03-6.128 1.948-11.226 2.562-14.798l.998-5.61-.811 5.64c-.537 3.585-1.265 8.713-2.21 14.855-.482 3.072-.947 6.4-1.543 9.92a595.299 595.299 0 0 1-1.921 11.036l-2.213 11.773c-.76 4.006-1.52 8.073-2.156 12.159a310.769 310.769 0 0 0-1.713 12.224c-.498 4.04-.833 8.033-1.209 11.904-.366 3.87-.792 7.602-1.202 11.14L83 447.276l-.616 4.808c-.784 6.165-1.495 11.295-1.966 14.89l-.771 5.645.585-5.667z" fill="url(#z)" fill-rule="nonzero" transform="rotate(3 115.567 302.114)"/><path d="M89.875 27.628c.052.222.132.546.21.965.164.835.37 2.037.482 3.498a31.73 31.73 0 0 1 .014 5.008l-.06.7-.08.692c-.048.463-.105.933-.195 1.415-.079.48-.159.962-.265 1.438a26.2 26.2 0 0 1-.322 1.433c-.116.477-.248.949-.392 1.416-.133.47-.29.93-.443 1.388-.303.917-.672 1.793-1.035 2.636a30.274 30.274 0 0 1-2.39 4.405 27.205 27.205 0 0 1-2.133 2.816c-.559.643-.902.987-.902.987s.281-.397.748-1.103a43.624 43.624 0 0 0 1.811-2.988 41.895 41.895 0 0 0 2.079-4.448c.332-.834.639-1.709.933-2.602.145-.448.292-.9.416-1.36.136-.456.257-.918.368-1.383.126-.461.23-.928.33-1.394.11-.464.191-.928.272-1.388.088-.456.16-.922.227-1.387l.104-.688.08-.665c.205-1.784.279-3.464.281-4.907a51.198 51.198 0 0 0-.117-3.493l-.1-1.33.079.34z" fill="url(#A)" fill-rule="nonzero" transform="rotate(3 115.567 302.114)"/><path d="M183.19 91.996l-1.666-3.591a258.807 258.807 0 0 0-5.27-10.634 256.232 256.232 0 0 0-3.734-6.973c-1.273-2.31-2.599-4.6-3.768-6.997-1.18-2.392-2.083-4.92-2.862-7.452a306.967 306.967 0 0 1-2.268-7.602c-.357-1.274-.717-2.548-1.038-3.832l-.47-1.931-.221-.97-.106-.487-.051-.245a2.814 2.814 0 0 1-.057-.317c-.278-1.465-.54-2.987-.922-4.48a29.36 29.36 0 0 0-1.478-4.373 28.421 28.421 0 0 0-2.177-4.086 31.52 31.52 0 0 0-2.802-3.71 28.23 28.23 0 0 1 5.376 7.615c.337.707.645 1.43.916 2.166.27.736.51 1.484.722 2.239.429 1.508.734 3.045 1.056 4.56l.472 1.907.517 1.906c.353 1.269.706 2.539 1.078 3.803.74 2.532 1.52 5.048 2.326 7.563a61.34 61.34 0 0 0 1.296 3.712c.47 1.221.993 2.418 1.556 3.6 1.126 2.36 2.428 4.657 3.685 6.983 1.263 2.321 2.495 4.67 3.685 7.028a236.41 236.41 0 0 1 3.4 7.17c1.092 2.408 2.159 4.827 3.15 7.279.5 1.223.988 2.451 1.47 3.681.486 1.23.941 2.47 1.398 3.709a397.257 397.257 0 0 0-3.212-7.241z" fill="url(#B)" fill-rule="nonzero" transform="rotate(3 115.567 302.114)"/><path d="M171.23 83.375c-.961-.493-2.385-1.205-4.064-2.336a33.265 33.265 0 0 1-5.597-4.683 29.715 29.715 0 0 1-2.87-3.488c-.22-.328-.449-.652-.669-.994l-.647-1.066a32.756 32.756 0 0 1-1.19-2.275c-.748-1.581-1.39-3.29-1.942-5.088-.548-1.799-1.005-3.684-1.44-5.62-.42-1.936-.89-3.92-1.194-6.014a44.748 44.748 0 0 1-.339-3.165 49.194 49.194 0 0 0-.337-3.154c-.3-2.1-.767-4.246-1.202-6.423-.45-2.169-.921-4.355-1.526-6.5a32.933 32.933 0 0 0-1.087-3.15 20.844 20.844 0 0 0-1.514-2.944 18.45 18.45 0 0 0-1.995-2.645l-.58-.64c-.193-.21-.393-.385-.59-.58a17.26 17.26 0 0 0-1.234-1.105c-3.422-2.863-7.731-4.611-12.092-5.223a24.427 24.427 0 0 0-3.28-.224c-1.095-.004-2.188.042-3.229.206a7.743 7.743 0 0 0-1.475.365c-.44.167-.836.417-.947.653a1.11 1.11 0 0 0-.07.294c.04.127.072.219.103.298.056.088.096.176.159.268.247.37.629.737.998 1.093 1.55 1.413 3.262 2.733 4.792 4.158a65.523 65.523 0 0 1 4.342 4.338 63.396 63.396 0 0 1 3.73 4.454c1.124 1.508 2.174 2.998 2.919 4.635.178.416.338.84.42 1.314.044.234.053.495.007.769a1.276 1.276 0 0 1-.167.418c-.04.058-.093.122-.16.195-.217.163-.301.207-.386.243-.083.034-.14.034-.21.052-.141.034-.259.026-.382.029a3.775 3.775 0 0 1-.667-.081c-.421-.08-.808-.197-1.19-.31-1.516-.47-2.92-.944-4.266-1.328a68.636 68.636 0 0 0-7.05-1.653 77.002 77.002 0 0 0-4.62-.686c-1.073-.121-1.647-.169-1.647-.169s.576.02 1.654.09c1.076.078 2.659.194 4.657.485 1.999.286 4.414.72 7.148 1.41 1.365.337 2.808.767 4.315 1.177.375.096.757.195 1.13.258.188.036.373.055.54.056.082-.004.171 0 .23-.021.129-.012.186-.085.217-.11.062-.081.073-.145.09-.204a1.453 1.453 0 0 0-.023-.485c-.069-.359-.216-.739-.387-1.111-.719-1.498-1.78-2.953-2.912-4.4a62.367 62.367 0 0 0-3.766-4.302 64.703 64.703 0 0 0-4.36-4.172 118.131 118.131 0 0 0-2.391-2.018c-.815-.676-1.651-1.343-2.478-2.091-.409-.389-.827-.766-1.198-1.296-.092-.131-.175-.288-.26-.433a3.198 3.198 0 0 1-.192-.542c-.037-.225-.05-.56-.017-.641.01-.092.05-.289.058-.298.037-.097.075-.198.12-.292.194-.374.483-.641.765-.836.286-.196.579-.337.87-.454a9 9 0 0 1 1.737-.456c2.301-.357 4.595-.334 6.919-.038 4.601.63 9.162 2.45 12.83 5.496.454.383.906.768 1.332 1.202.211.212.442.421.637.635l.577.641c.8.897 1.516 1.839 2.138 2.857a22.215 22.215 0 0 1 1.61 3.158c.441 1.09.805 2.196 1.128 3.303.623 2.22 1.076 4.438 1.5 6.624.412 2.185.857 4.336 1.145 6.514.301 2.182.328 4.319.587 6.333.249 2.027.672 4.014 1.05 5.953.39 1.933.8 3.802 1.301 5.577.502 1.774 1.093 3.454 1.788 5.01.346.78.723 1.524 1.111 2.241l.602 1.041.635 1.012a29.152 29.152 0 0 0 2.683 3.505 32.852 32.852 0 0 0 5.362 4.817c1.63 1.171 3 1.966 3.937 2.496l1.465.77-1.5-.7z" fill="url(#C)" fill-rule="nonzero" transform="rotate(3 115.567 302.114)"/><path d="M130.654 44.594c.185-.021.458-.05.818-.057a7.684 7.684 0 0 1 3.06.54c.315.124.637.285.96.468.322.184.66.378.995.62.324.248.693.514.879.998a.848.848 0 0 1-.118.77c-.15.22-.351.373-.559.507-.846.506-1.829.752-2.855.99-1.03.228-2.125.388-3.268.53-2.276.284-4.787.466-7.43.397-1.321-.032-2.677-.123-4.05-.217-1.377-.09-2.76-.182-4.178-.147a44.432 44.432 0 0 0-8.669 1.042c-1.45.33-2.892.747-4.31 1.243a41.614 41.614 0 0 0-4.173 1.742 32.563 32.563 0 0 0-7.496 4.91 27.716 27.716 0 0 0-5.504 6.683c-1.418 2.44-2.365 5.025-2.935 7.56-.573 2.534-.834 5.006-1.08 7.279a53.64 53.64 0 0 0-.238 6.218c.046 1.856.185 3.472.344 4.797.161 1.325.326 2.363.453 3.067l.202 1.08-.254-1.07c-.156-.698-.385-1.726-.589-3.051-.404-2.643-.821-6.484-.462-11.091.198-2.288.404-4.773.932-7.38.525-2.599 1.435-5.305 2.897-7.828a28.574 28.574 0 0 1 5.632-6.94 33.379 33.379 0 0 1 7.677-5.108 40.526 40.526 0 0 1 8.709-2.993 45.322 45.322 0 0 1 8.851-1c2.918-.05 5.663.404 8.266.5 2.608.124 5.069 0 7.345-.233a40.105 40.105 0 0 0 3.236-.445c1.009-.194 1.986-.413 2.76-.842.188-.11.36-.239.47-.39a.513.513 0 0 0 .11-.244.553.553 0 0 0-.013-.244c-.113-.348-.44-.638-.741-.876-.635-.469-1.27-.865-1.869-1.13a7.875 7.875 0 0 0-2.987-.66 8.42 8.42 0 0 0-1.096.042l.278-.037z" fill="url(#D)" fill-rule="nonzero" transform="rotate(3 115.567 302.114)"/><path d="M61.626 115.095c.914-1.543 2.173-3.773 3.651-6.464l2.36-4.362c.83-1.55 1.68-3.194 2.502-4.918a84.47 84.47 0 0 0 2.32-5.41 77.422 77.422 0 0 0 1.96-5.752c.591-1.95 1.12-3.923 1.613-5.876l1.447-5.739c.454-1.862.874-3.66 1.179-5.383a52.23 52.23 0 0 0 .611-4.89c.233-3.053.21-5.612.12-7.4-.086-1.79-.187-2.81-.187-2.81l.113.727c.068.476.175 1.174.262 2.069.174 1.785.375 4.357.249 7.444a45.133 45.133 0 0 1-.454 4.976c-.26 1.756-.628 3.588-1.062 5.464-.435 1.877-.881 3.809-1.37 5.77a129.2 129.2 0 0 1-1.593 5.928 78.381 78.381 0 0 1-2.016 5.812 73.398 73.398 0 0 1-2.425 5.442c-.853 1.734-1.763 3.364-2.638 4.895a258.69 258.69 0 0 1-2.51 4.288c-1.576 2.645-2.988 4.788-3.972 6.288-.994 1.495-1.588 2.33-1.588 2.33l1.428-2.43z" fill="url(#E)" fill-rule="nonzero" transform="rotate(3 115.567 302.114)"/><path d="M92.909 158.135c.487 2.085 1.307 5.036 2.545 8.482a80.835 80.835 0 0 0 2.223 5.474c.859 1.913 1.852 3.889 2.925 5.907 2.154 4.032 4.79 8.159 7.58 12.165 1.382 2.012 2.824 4.014 4.059 6.117 1.248 2.096 2.264 4.263 3.22 6.357.968 2.099 1.73 4.231 2.211 6.308a30.7 30.7 0 0 1 .794 5.932 30.524 30.524 0 0 1-.215 5.04 38.472 38.472 0 0 1-.676 3.822 31.855 31.855 0 0 1-.651 2.406l-.261.842.21-.856c.146-.555.314-1.38.517-2.43.385-2.1.77-5.153.53-8.796a30.068 30.068 0 0 0-.934-5.788c-.525-2.017-1.332-4.06-2.29-6.13-.97-2.073-1.993-4.204-3.233-6.243-1.226-2.05-2.671-4.013-4.078-6.029a153.099 153.099 0 0 1-4-6.147 103.16 103.16 0 0 1-3.525-6.176c-2.155-4.08-3.752-8.106-4.92-11.598-1.165-3.503-1.804-6.515-2.214-8.62-.205-1.054-.326-1.889-.412-2.457l-.123-.873s.224 1.207.718 3.29z" fill="url(#F)" fill-rule="nonzero" transform="rotate(3 115.567 302.114)"/><path d="M195.647 180.89c.24.766.536 1.693.891 2.75.357 1.058.77 2.246 1.227 3.54a200.54 200.54 0 0 0 1.545 4.15 191.248 191.248 0 0 0 1.855 4.577c.661 1.58 1.39 3.195 2.142 4.824a127.5 127.5 0 0 0 2.38 4.904c.407.817.823 1.63 1.252 2.432.418.807.855 1.6 1.29 2.388.87 1.572 1.744 3.11 2.619 4.583a194.719 194.719 0 0 0 2.59 4.206c.85 1.321 1.66 2.566 2.427 3.704 1.539 2.271 2.851 4.147 3.808 5.434.95 1.292 1.492 2.032 1.492 2.032l-.432-.498c-.278-.327-.703-.795-1.209-1.418a141.83 141.83 0 0 1-1.827-2.247 100.846 100.846 0 0 1-2.287-2.982 112.562 112.562 0 0 1-2.577-3.626l-1.352-2.019-1.363-2.141c-.901-1.468-1.831-2.988-2.708-4.572a102.45 102.45 0 0 1-1.314-2.397 88.076 88.076 0 0 1-1.275-2.44 129.06 129.06 0 0 1-2.364-4.951 107.995 107.995 0 0 1-2.08-4.892 116.737 116.737 0 0 1-3.138-8.876 118.3 118.3 0 0 1-1.773-6.413c-.194-.78-.33-1.395-.423-1.814l-.144-.644.748 2.407z" fill="url(#G)" fill-rule="nonzero" transform="rotate(3 115.567 302.114)"/><path d="M230.145 165.207a50.778 50.778 0 0 1-2.786 6.464 38.109 38.109 0 0 1-2.615 4.299c-1.054 1.5-2.322 3.026-3.682 4.64-1.36 1.615-2.79 3.342-4.17 5.257-1.379 1.911-2.725 4.005-4.059 6.225-1.33 2.22-2.57 4.617-3.613 7.197a42.046 42.046 0 0 0-2.38 8.256c-.27 1.457-.467 2.928-.455 4.43.02 1.5.11 3.075.049 4.648-.025.79-.063 1.572-.125 2.377-.07.787-.133 1.576-.216 2.373-.107.798-.194 1.606-.32 2.407-.144.799-.248 1.608-.429 2.407-.634 3.214-1.618 6.4-2.662 9.573-1.044 3.176-2.048 6.39-2.824 9.695a55.7 55.7 0 0 0-.553 2.488c-.178.833-.345 1.67-.484 2.513a58.67 58.67 0 0 0-.73 5.078c-.347 3.42-.607 6.88-.884 10.33-.578 6.894-.784 13.81-1 20.63-.216 6.818-.451 13.53-.715 20.022-.136 3.246-.263 6.439-.446 9.564-.168 3.127-.427 6.18-.676 9.148a243.978 243.978 0 0 1-1.957 16.684c-.396 2.574-.824 5.03-1.276 7.358-.45 2.327-.906 4.525-1.242 6.605-.677 4.16-.958 7.835-1.123 10.859a115.035 115.035 0 0 0-.103 9.521s-.049-.865-.093-2.488c-.04-1.625-.072-4.008.033-7.04.114-3.031.332-6.716.94-10.905.626-4.188 1.607-8.848 2.323-13.987.74-5.141 1.354-10.73 1.792-16.664.491-5.934.741-12.194.987-18.688.243-6.491.457-13.198.652-20.017.194-6.814.375-13.758.938-20.68.289-3.455.559-6.905.918-10.352.177-1.722.432-3.451.756-5.141.144-.851.315-1.696.497-2.537.168-.843.361-1.68.567-2.512.795-3.336 1.821-6.584 2.875-9.754 1.054-3.172 2.032-6.307 2.666-9.47.181-.785.285-1.582.43-2.368.127-.788.214-1.575.322-2.357.075-.794.15-1.583.226-2.369.067-.77.112-1.558.144-2.33.075-1.552.002-3.07-.005-4.623.002-1.558.224-3.091.51-4.556a42.746 42.746 0 0 1 2.497-8.363 52.55 52.55 0 0 1 3.723-7.243c1.367-2.218 2.726-4.313 4.153-6.218 1.422-1.906 2.89-3.618 4.277-5.21 1.387-1.59 2.673-3.085 3.746-4.558a37.953 37.953 0 0 0 2.673-4.23 50.694 50.694 0 0 0 2.89-6.402c.562-1.524.812-2.354.812-2.354s-.236.834-.773 2.368z" fill="url(#H)" fill-rule="nonzero" transform="rotate(3 115.567 302.114)"/><path d="M46.093 213.044a174.989 174.989 0 0 0-4.344-12.306l-2.203-5.41a133.31 133.31 0 0 1-2.2-5.87c-.692-2.019-1.386-4.069-1.955-6.183-.553-2.114-.921-4.316-.863-6.506.025-1.093.16-2.176.397-3.222.257-1.047.537-2.037.97-3.017.228-.482.465-.966.88-1.392.194-.214.478-.409.814-.5l.13-.025.066-.011c.126-.01.072-.006.099-.007.066.005.112.002.194.012.095.017.198.037.283.065l.222.094c.542.303.865.726 1.159 1.134.289.415.522.842.735 1.267.838 1.707 1.37 3.398 1.832 4.96.465 1.56.784 3.033.994 4.338.208 1.308.325 2.456.384 3.403.064.947.062 1.692.062 2.2l-.012.776s-.024-1.084-.238-2.959c-.106-.938-.28-2.07-.55-3.354a40.587 40.587 0 0 0-1.172-4.238c-.514-1.526-1.105-3.181-1.944-4.794a9.407 9.407 0 0 0-.71-1.155c-.263-.358-.575-.7-.9-.863l-.116-.046c-.032-.008-.05-.008-.074-.02-.038-.007-.116-.004-.173-.006.008 0-.014.007-.067.022a.93.93 0 0 0-.422.285c-.282.29-.502.725-.694 1.16-.376.88-.646 1.885-.87 2.866a16.854 16.854 0 0 0-.343 3.048c-.044 2.072.317 4.177.865 6.239.544 2.065 1.226 4.117 1.903 6.126a172.746 172.746 0 0 0 2.108 5.863c.721 1.888 1.444 3.711 2.084 5.462a117.723 117.723 0 0 1 1.698 4.966c.994 3.095 1.677 5.715 2.152 7.547.235.917.4 1.643.515 2.137l.174.757-.87-2.843z" fill="url(#I)" fill-rule="nonzero" transform="rotate(3 115.567 302.114)"/><path d="M43.403 245.537a126.4 126.4 0 0 1-6.709-1.104c-1.383-.27-2.872-.579-4.447-.922-1.575-.344-3.238-.71-4.942-1.189-1.704-.474-3.456-1.052-5.161-1.824-1.706-.769-3.366-1.693-4.962-2.71-1.588-1.03-3.121-2.145-4.53-3.388-.702-.625-1.376-1.276-1.948-2.06a4.251 4.251 0 0 1-.391-.645c-.11-.236-.225-.514-.182-.902 0-.044.02-.098.035-.147l.026-.074c.03-.065.002-.022.051-.111l.046-.07c.013-.022.07-.089.108-.127a1.17 1.17 0 0 1 .45-.272 2.62 2.62 0 0 1 .778-.13c.963-.02 1.821.151 2.664.326.838.183 1.643.397 2.423.617 1.558.443 3.006.924 4.336 1.385 2.662.92 4.838 1.79 6.367 2.385.764.297 1.357.549 1.764.715l.622.257-2.45-.795a275.738 275.738 0 0 0-6.474-2.031 113.5 113.5 0 0 0-4.353-1.216 40.54 40.54 0 0 0-2.393-.534c-.813-.14-1.668-.293-2.465-.256-.195.008-.383.04-.52.09-.063.019-.125.066-.118.062a.42.42 0 0 1-.047.066c.012.046.046.213.134.375.085.164.193.335.32.501.509.667 1.162 1.292 1.837 1.888 1.364 1.19 2.876 2.275 4.434 3.275 1.557 1.005 3.173 1.917 4.824 2.674a37.982 37.982 0 0 0 5.011 1.857c1.671.494 3.31.916 4.87 1.305l4.4 1.082c2.73.646 5.015 1.148 6.624 1.461l2.527.5s-.933-.093-2.559-.314z" fill="url(#J)" fill-rule="nonzero" transform="rotate(3 115.567 302.114)"/><path d="M23.026 401.357a48.057 48.057 0 0 0 3.439-1.857 41.466 41.466 0 0 0 4.973-3.45c1.82-1.46 3.734-3.284 5.616-5.442a49.657 49.657 0 0 0 5.374-7.515 40.676 40.676 0 0 0 2.275-4.482c.337-.785.64-1.591.902-2.41.256-.815.47-1.664.513-2.465.022-.386-.029-.791-.134-.959-.018-.07.017-.126-.413.023-.757.31-1.61.772-2.443 1.172-.844.413-1.69.811-2.566 1.205l-1.296.565c-.444.182-.888.366-1.333.55a58.69 58.69 0 0 1-5.484 1.871c-1.854.533-3.62 1.096-5.307 1.94a37.303 37.303 0 0 0-4.893 2.843 45.379 45.379 0 0 0-2.28 1.677c-.76.581-1.437 1.184-2.305 1.786a3.008 3.008 0 0 1-.406.23l-.137.055c-.06.02-.121.037-.183.05-.079.015-.176.022-.265.02a.945.945 0 0 1-.549-.228c-.189-.203-.067-.077-.116-.131a1.29 1.29 0 0 1-.136-.254c-.056-.156-.043-.172-.058-.253-.011-.074-.01-.123-.01-.175.004-.216.039-.363.073-.514.15-.569.371-1.012.602-1.46.47-.879 1.017-1.677 1.6-2.44 1.176-1.519 2.496-2.874 4-4.019 1.539-1.14 3.228-1.868 4.845-2.53 1.627-.655 3.225-1.247 4.78-1.825 3.11-1.152 6.061-2.21 8.76-3.23 1.331-.525 2.66-.995 3.689-1.676.508-.337.933-.799 1.332-1.262.388-.45.721-.949 1.009-1.441 1.136-2.003 1.53-4.049 1.71-5.704.173-1.668.151-2.995.129-3.898l-.077-1.383.155 1.378c.068.901.188 2.231.076 3.928a17.294 17.294 0 0 1-.391 2.792 13.003 13.003 0 0 1-1.128 3.148 10.207 10.207 0 0 1-1.008 1.577c-.393.497-.824 1.014-1.399 1.435-.565.424-1.195.728-1.83 1.024-.639.29-1.295.566-1.966.843-2.686 1.096-5.604 2.23-8.68 3.46-1.535.616-3.114 1.25-4.699 1.935-1.574.703-3.178 1.406-4.534 2.452-1.36 1.063-2.614 2.378-3.693 3.816-.537.72-1.04 1.48-1.447 2.267-.2.386-.38.52-.153.341.498-.39 1.017-.828 1.535-1.23.758-.6 1.54-1.183 2.343-1.739a38.3 38.3 0 0 1 5.074-2.976c1.771-.879 3.7-1.482 5.536-2a57.362 57.362 0 0 0 5.368-1.806l1.297-.528 1.3-.556a86.505 86.505 0 0 0 2.53-1.148c.85-.39 1.626-.812 2.573-1.187.257-.08.526-.197.975-.158.06.009.105.01.173.03.07.022.142.048.21.08l.098.048.107.07a.752.752 0 0 1 .103.084l.154.164a.866.866 0 0 1 .163.23c.338.637.31 1.183.296 1.689-.07 1.007-.323 1.905-.606 2.778-.287.87-.627 1.705-.998 2.509a41.863 41.863 0 0 1-2.455 4.546 50.61 50.61 0 0 1-5.672 7.514 39.693 39.693 0 0 1-5.895 5.327 41.945 41.945 0 0 1-5.164 3.267 39.33 39.33 0 0 1-3.546 1.684c-.835.348-1.287.516-1.287.516s.443-.194 1.255-.588z" fill="url(#K)" fill-rule="nonzero" transform="rotate(3 115.567 302.114)"/><path d="M242.038 223.95c-.903.292-2.19.737-3.695 1.327-.742.308-1.562.648-2.302 1.123-.186.115-.359.25-.497.388-.14.136-.227.294-.215.358.005.025.011.076.017.078.052.038.124.1.21.156.176.118.397.233.618.348.898.46 1.861.937 2.788 1.489.929.547 1.87 1.12 2.769 1.79.445.347.885.697 1.28 1.196.099.125.194.274.27.452.04.09.07.195.087.285l.028.238c.01.058.012.145.009.242-.004.09-.003.187-.015.27-.029.16-.051.324-.104.471-.185.609-.524 1.096-.879 1.522-.357.429-.742.803-1.127 1.154-.39.349-.766.677-1.155.988a17.777 17.777 0 0 1-3.509 2.198c-1.492.719-2.82 1.094-3.744 1.333a13.9 13.9 0 0 1-1.083.233l-.385.072.372-.123c.244-.075.594-.205 1.041-.362.894-.317 2.14-.853 3.54-1.647.698-.4 1.427-.876 2.162-1.423.364-.278.73-.574 1.086-.89.358-.324.734-.658 1.09-1.003.701-.685 1.43-1.468 1.693-2.32.039-.106.046-.21.067-.314.007-.05.002-.087.006-.131a.496.496 0 0 0-.004-.16c-.018-.161-.018-.193-.051-.266a1.15 1.15 0 0 0-.151-.239c-.28-.35-.695-.689-1.11-1.002-.839-.64-1.75-1.21-2.659-1.758a74.44 74.44 0 0 0-2.716-1.545c-.226-.127-.451-.25-.688-.419a1.62 1.62 0 0 1-.363-.339c-.03-.044-.057-.078-.085-.13a1.369 1.369 0 0 1-.075-.192c-.015-.055-.012-.068-.02-.104a.964.964 0 0 1-.01-.082l.005-.099c.038-.438.289-.683.486-.873.105-.094.21-.181.318-.25.107-.077.215-.145.323-.204.86-.496 1.71-.77 2.493-1.031 1.57-.497 2.906-.773 3.836-.986.465-.105.835-.164 1.085-.215l.385-.073-1.422.47z" fill="url(#L)" fill-rule="nonzero" transform="rotate(3 115.567 302.114)"/><path d="M259.483 428.57c.84-.162 2.03-.417 3.439-.79l2.281-.608c.801-.222 1.653-.464 2.442-.805.388-.172.755-.396.955-.657.037-.068.09-.13.105-.201l.02-.052.032-.201c-.022-.086-.024-.246-.123-.419-.163-.34-.47-.692-.789-1.023-.32-.334-.681-.653-1.04-.972-.719-.64-1.47-1.26-2.21-1.87l-2.173-1.802a210.726 210.726 0 0 1-3.804-3.26c-2.209-1.93-3.628-3.283-3.628-3.283s1.624 1.1 3.978 2.85c1.18.872 2.543 1.904 3.99 3.028.72.563 1.478 1.133 2.227 1.74.75.605 1.516 1.218 2.262 1.87.368.335.738.668 1.086 1.04.346.375.696.757.95 1.287.127.254.214.579.186.967l-.033.176-.021.103-.062.158c-.053.157-.151.285-.24.414-.402.475-.885.701-1.332.89-.904.362-1.78.543-2.607.723-.827.178-1.61.318-2.332.448a30.75 30.75 0 0 1-3.534.44c-.857.055-1.347.055-1.347.055l1.322-.245z" fill="url(#M)" fill-rule="nonzero" transform="rotate(3 115.567 302.114)"/><path d="M153.502 67.656c-5.304 2.313-10.548 3.496-15.732 3.549-7.778.078-29.89-4.423-30.216 1.817-.327 6.24 20.963 17.134 30.169 17.616 6.137.322 13.005-2.35 22.37-8.013l-6.591-14.969z" stroke="#41205D" stroke-width="1.764" fill="#FBCFBB" fill-rule="nonzero"/><path d="M143.451 72.67c-2.363.665-4.275 1.106-5.736 1.323-1.462.216-3.374.216-5.737 0a21.712 21.712 0 0 0 0 6.174 46.268 46.268 0 0 0 1.324 6.175c7.649-3.528 11.767-5.734 12.355-6.616.589-.882-.147-3.234-2.206-7.057z" fill="url(#N)" fill-rule="nonzero" transform="rotate(1 57.454 745.943)"/><path d="M113.904 84.353c3.234-1.571 5.44-2.895 6.619-3.97 1.178-1.075 2.354-2.545 3.53-4.41-2.015.31-3.486.31-4.413 0-2.647-.886-5.736-2.21-8.384-2.21-2.576 0-5.518.737-8.825 2.21 1.615 1.753 3.31 2.991 5.086 3.715 2.663 1.084 5.414.103 6.828 1.136.943.69.796 1.865-.441 3.529z" fill="url(#O)" fill-rule="nonzero" transform="rotate(1 108.538 748.176)"/><path d="M124.496 89.273c.722-1.912 1.163-3.382 1.324-4.411.16-1.03.409-4.41.745-10.143-3.688 1.194-5.996 1.635-6.923 1.325-2.647-.885-5.736-2.208-8.384-2.208-2.576 0-5.96.882-10.149 2.646.578 1.923 1.755 3.246 3.53 3.97 1.143.465 3.972 2.205 7.943 3.528 1.084.361 5.6-.79 7.501 0 1.142.475 2.613 2.239 4.413 5.293z" fill="url(#P)" fill-rule="nonzero" transform="rotate(1 107.479 743.155)"/><path d="M115.724 75.595c2.884-1.252 5.355-1.86 7.414-1.823 2.06.036 4.589.79 7.589 2.264-.427.205-.72.352-.883.441-2.293 1.26-4.45 1.816-6.783 1.705-2.579-.124-5.025-.986-7.337-2.587z" fill="#FFF" fill-rule="nonzero"/><path d="M120.136 74.272c-.057-.37.943-.536 3.002-.5 3.089.054 2.294.754 2.294.94 0 .883-.312 2.206-2.648 2.206-1.765 0-2.648-.882-2.648-2.646z" fill="#353030" fill-rule="nonzero"/><path d="M138.518 75.037c-.174.097-.428.243-.768.398a11.254 11.254 0 0 1-5.06 1.064 11.931 11.931 0 0 1-2.333-.275 16.323 16.323 0 0 1-2.396-.715c-.787-.31-1.538-.584-2.329-.745-1.582-.365-3.239-.367-4.779-.228a28.78 28.78 0 0 0-2.218.322 42.83 42.83 0 0 0-1.974.441c-.604.169-1.166.308-1.655.461-.487.158-.924.27-1.271.394l-1.108.357 1.035-.536c.33-.174.744-.35 1.217-.564.472-.214 1.02-.422 1.62-.645l.946-.32c.329-.105.676-.193 1.03-.295.356-.096.727-.172 1.105-.262.38-.079.773-.14 1.172-.202.803-.1 1.641-.187 2.5-.164.856.021 1.73.108 2.59.294.864.187 1.701.51 2.455.819.763.297 1.51.571 2.255.758.744.188 1.476.324 2.178.385.703.059 1.361.06 1.99.024a13.667 13.667 0 0 0 2.962-.547c.704-.212 1.1-.372 1.1-.372l-.264.153z" fill="#B2847B" fill-rule="nonzero"/><path d="M116.067 75.785c.39.194.95.46 1.635.728.685.268 1.494.533 2.377.735.44.104.902.178 1.37.245l.34.046.37.03c.25.025.496.043.727.042.465.026.954.021 1.423-.01.472-.033.939-.066 1.386-.14.224-.03.443-.072.658-.111.217-.036.426-.079.63-.128.407-.092.79-.194 1.144-.297.705-.21 1.288-.421 1.695-.58.407-.159.64-.257.64-.257s-.189.168-.548.426c-.36.258-.895.604-1.586.931a9.833 9.833 0 0 1-1.143.474c-.415.148-.861.286-1.334.383a9.521 9.521 0 0 1-.722.139c-.245.049-.495.073-.749.094-.507.045-1.018.065-1.549.044a8.16 8.16 0 0 1-.763-.06l-.37-.04-.391-.06a10.93 10.93 0 0 1-1.45-.348 10.797 10.797 0 0 1-1.299-.49c-.402-.18-.771-.371-1.1-.57a10.092 10.092 0 0 1-1.498-1.066c-.335-.29-.508-.474-.508-.474l.615.314zM143.983 85.874a52.48 52.48 0 0 1-.46-2.34c-.109-.647-.489-2.646-.536-4.15l-.026-.988.006-.996.067-1.955.019-.549.527.103a20.55 20.55 0 0 0 2.403.329l.61.041c.208.016.403.019.606.028.405.01.812.01 1.219 0 .815-.012 1.63-.083 2.444-.179.815-.104 1.628-.24 2.442-.409a17.683 17.683 0 0 1-6.101 1.332c-.21.005-.43.016-.634.016-.202 0-.419.005-.63-.004a25.854 25.854 0 0 1-1.986-.157l-.028 1.43.017 1.93c.014.647.423 5.134.58 6.425.109.885.197 1.277.325 2.164.059.406-.721-1.43-.864-2.07z" fill="#B2847B" fill-rule="nonzero"/><path d="M220.629 229.662c-2.426-6.94-2.625-13.554-.599-19.843 3.04-9.434 19.045-16.014 23.058-23.733 4.941-9.5-12.732-24.407-17.364-27.798-13.785-10.094-22.642-16.649-30.376-23.142-1.29-1.083-3.66-3.27-7.11-6.559-3.458-4.762-10.574-12.04-21.346-21.835-5.337-4.853-5.626-8.061-7.762-12.131-.886-1.687-4.367-3.882-6.792-7.279-2.426-3.396-2.262-5.238-3.882-7.763-1.938-3.022-6.149-13.308-8.51-15.898a33.17 33.17 0 0 0-7.985-6.423c-18.85-10.915-34.665.33-40.753 5.823-6.087 5.493-6.792 18.438-5.336 32.996.748 7.482-12.147 12.689-19.891 21.835-7.322 8.647-10.76 22.862-7.47 36.769 4.784 20.227 19.145 18.253 33.855 22.076 6.1 1.585 13.314 11.358 15.744 13.75 4.32 4.252 9.059 13.093 10.084 23.763.29 3.025-.229 7.174-1.557 12.448-.521 10.205-1.073 17.93-1.656 23.178-6.382 57.445-16.53 66.46-17.466 110.148-.103 4.825.152-15.628 5.278-34.993 7.12-26.904 21.681-92.118 15.15-132.41-6.53-40.29 9.768-15.97 33.057-35.297 4.562-3.786 29.28-22.101 36.876-4.582.174.401.094 7.802.112 18.986.056 36.079-.109 111.52 2.223 118.249 1.747 5.043 4.754-19.242 8.845-41.98 1.856-10.314 5.254-19.243 6.546-26.842 1.344-7.903.142-14.342.8-13.06.282.547.55 1.046.803 1.492 3.246 5.72 7.72 12.404 13.424 20.055z" fill="url(#h)" fill-rule="nonzero" opacity=".513" transform="rotate(3 115.567 302.114)"/><path d="M144.673 3.186c-2.207-1.323 4.785 5.048 8.384 9.262 3.598 4.214 10.148 13.673 14.12 19.847 1.893 2.944 10.784 23.823 24.71 52.927 5.55 11.598 12.097 26.528 16.327 34.844 4.229 8.316 11.914 18.083 10.59 17.201-1.324-.882-4.122-5.078-12.355-14.555-8.234-9.477-10.15-11.467-13.68-16.76-1.368-2.051-5.083-10.997-9.265-21.466-3.048-7.632-7.777-15.912-10.59-23.08-3.287-8.372-7.792-20.916-7.061-16.32.267 1.68 1.033 4.218 1.765 7.057.844 3.275 1.702 6.9 2.648 9.262 1.39 3.474 3.807 8.09 6.177 13.232 6.084 13.196 12.652 28.137 6.619 23.376-3.56-2.809-11.126-5.564-20.298-18.966-1.455-2.126-2.85-4.821-4.269-7.842-1.06-2.253-3.872-3.757-4.997-6.271-2.205-4.93-2.866-11.097-5.737-15.878-.882-1.47-2.5-2.94-4.853-4.41 2.33 2.612 3.801 4.817 4.412 6.615.416 1.224.818 2.427 1.422 4.367.416 1.334.548 3.058 1.226 5.336.36 1.214.747 2.834 1.323 4.41.233.638 1.454 2.735 1.766 3.088 1.055 1.197 3.1 3.177 4.853 6.175.648 1.108 1.586 3.143 2.648 5.293 1.422 2.877 5.295 7.057 7.501 9.262.67.67 6.178 5.292 14.12 12.35 4.56 4.051 15.003 12.79 26.917 25.893 2.675 2.941 7.254 7.344 11.914 14.684.395.622 3.232 4.735 5.736 9.703 3.796 7.53 7.507 16.59 6.178 14.996-.52-.625-3.33-3.278-8.426-7.96-2.701-2.482-8.631-7.084-15.402-13.21-3.233-2.927-9.458-7.317-16.326-13.674-3.69-3.415-10.015-9.737-18.974-18.965 4.054 4.633 6.848 7.867 8.383 9.703 3.903 4.668 6.392 7.968 7.502 9.262 1.425 1.662 16.768 15.437 33.094 28.669 2.046 1.658 5.295 5.293 8.825 8.821 1.55 1.548 3.903 4.636 7.06 9.262-1.963-7.473-3.58-12.766-4.853-15.878-.302-.737-1.552-4.377-3.972-10.144-1.903-4.535-7.822-13.277-14.454-25.27-2.011-3.636-3.688-7.571-5.844-11.779-10.64-20.765-32.211-74.097-43.243-89.534-11.031-15.437-19.415-21.612-21.621-22.935z" fill="url(#Q)" fill-rule="nonzero" transform="translate(10.953 4.226)"/><path d="M96.714 93.785c5.295 6.616 23.893 19.746 32.211 18.084 4.413-.883 21.793-4.934 24.71-11.909 1.941-4.639-6.319-9.98-5.736-12.35.383-1.554.919-3.475.442-5.292-.142-.54-.94-1.805-1.324-2.647-1.103-2.416-2.352-5.025-2.648-5.733-1.338-3.203-3.53-8.38-3.53-8.38-8.384-7.94-18.755-8.111-22.063-7.94-12.108.63-20.77 1.075-26.034 9.704-5.264 8.629-1.324 19.847 3.972 26.463z" fill="url(#R)" fill-rule="nonzero" opacity=".894" transform="translate(11.364 .64)"/><path d="M236.269 636.628c-.146-10.192-.793-17.47-1.94-21.835-13.927-52.95-27.041-91.19-32.506-117.912-9.21-45.038-10.176-45.923-13.584-95.106-3.408-49.183 0-33.482 0-100.93V128.588c-3.459-4.762-10.575-12.04-21.347-21.835-5.337-4.853-5.626-8.061-7.762-12.131-.886-1.687-4.367-3.882-6.792-7.279-2.426-3.396-2.262-5.238-3.882-7.763-1.938-3.022-6.149-13.308-8.51-15.898a33.17 33.17 0 0 0-7.985-6.423c-18.85-10.915-34.665.33-40.753 5.823-6.087 5.493-6.792 18.438-5.336 32.996.748 7.482-12.147 12.689-19.891 21.835-7.322 8.647-15.036 24.637-11.747 38.543 6.768 28.616 44.695 32.39 52.984 40.55 8.29 8.162 11.159 22.321 7.763 52.891-6.382 57.445-16.53 66.46-17.466 110.148-.688 32.156 7.451 27.063 13.874 87.241 4.634 43.43 1.007 51.81 5.047 87.93 2.498 22.329 7.864 54.685 20.862 93.65L56.763 587.62c4.205-12.013 6.307-21.88 6.307-29.6 0-7.72-3.235-26.32-9.703-55.802L49 446.416 28.14 458.062c-3.798-5.476-5.9-9.358-6.307-11.646-.137-.772 1.225-10.224 0-18.924-.608-4.314-6.127-2.248-7.763-12.13-.668-4.04-.076-11.391-.97-19.895-.203-1.936-1.146-3.972-1.455-6.794-.171-1.556.259-3.804 0-6.308-.54-5.224-.742-17.571-2.911-36.392-.265-2.293-1.073-5.852-2.426-10.676-2.358-6.028-3.652-10.071-3.881-12.13-.664-5.954 1.585-8.968 1.585-14.139 0-5.569-2.894-20.727-3.526-37.296-.737-19.326.838-40.583 1.94-50.95 3.718-34.946 16.496-57.258 23.288-62.595 4.528-3.559 13.746-7.926 27.654-13.102.034-5.507.358-9.874.97-13.101 1.907-10.05 4.277-8.688 6.307-17.469 8.995-38.908 17.502-76.994 25.228-89.768C101.336-.822 126.625-5.338 142.635 6.793c5.273 3.996 16.211 13.898 27.168 32.026 11.222 18.566 31.02 59.509 42.208 79.093 11.19 19.584 14.349 20.939 20.862 33.967 6.512 13.028 10.745 27.012 11.643 31.055.599 2.695-1.18 5.768-5.336 9.22 2.54 11.792 4.377 20.39 5.51 25.79 1.58 7.53-.06 9.752 1.282 16.425 1.561 7.764 4.099 15.441 5.822 22.806 3.268 13.972 5.6 26.59 6.792 34.936.794 5.568.358 10.735.97 16.013.278 2.39 1.774 4.784 1.94 7.279.148 2.193-.425 4.805-.484 7.278-.033 1.373.357 2.736.485 3.882.252 2.272-.3 5.987 0 8.25.773 5.857 1.488 11.573 2.425 16.982.61 3.519.486 8.188.97 11.646.348 2.477 1.398 3.72 1.456 6.308.03 1.348-1.416 4.486-1.455 5.823-.27 9.352-.526 16.592 0 24.747.136 2.119 3.151 1.35 3.24 3.397.164 3.742-2.016 10.714-1.785 14.071.243 3.525 6.246 6.669 6.307 9.705.048 2.41-4.543 4.519-4.521 6.585.09 8.877-.053 14.418-.33 15.25-.647 1.942-3.72.971-9.218-2.91a6640.379 6640.379 0 0 1 3.924 27.642c2.518 18.163 4.392 32.725 5.624 43.687 1.803 16.054 5.089 49.858 9.858 101.414-6.925 6.417-12.1 10.461-15.525 12.13-3.425 1.67-12.157 3.45-26.198 5.338z" stroke="url(#S)" stroke-width="1.764" transform="rotate(3 115.567 302.114)"/><path d="M236.856 169.136a118.047 118.047 0 0 0-7.823-7.625 88.687 88.687 0 0 0-5.668-4.58c-2.072-1.553-4.31-3.127-6.594-4.8a594.557 594.557 0 0 1-14.223-10.625c-2.382-1.865-4.744-3.753-7.02-5.682-2.277-1.925-4.441-3.933-6.396-6.004-1.977-2.046-3.715-4.18-5.41-6.131a159.584 159.584 0 0 0-4.916-5.396c-3.124-3.27-5.828-5.903-7.77-7.693-1.936-1.797-3.07-2.796-3.07-2.796l.843.684c.547.45 1.353 1.106 2.353 1.971 1.224 1.064 7.745 6.156 12.451 11.168 1.85 1.97 5.342 6.407 6.1 7.19 1.949 2.032 4.122 4.418 6.399 6.315 2.273 1.9 4.645 3.763 7.03 5.608a593.196 593.196 0 0 0 14.125 10.713 265.047 265.047 0 0 1 6.526 4.918 89.552 89.552 0 0 1 5.604 4.736 84.778 84.778 0 0 1 4.395 4.366 119.306 119.306 0 0 1 3.203 3.537c.87.996 1.526 1.803 1.975 2.35l.682.845s-.992-1.14-2.796-3.069z" fill="url(#T)" fill-rule="nonzero" transform="rotate(3 115.567 302.114)"/><path d="M20.097 453.273c8.036-4.976 14.198-8.216 18.485-9.722 4.286-1.504 10.168-2.492 17.644-2.962 2.296 5.627 3.42 12.003 3.37 19.127-.072 10.478.891 16.727.336 21.397-.25 2.114.922 4.922.665 5.866-.829 3.026-4.488 2.194-6.273-.815-1.786-3.01-3.472-14.13-4.109-14.307-.637-.177-.584 11.146 1.075 16.577 1.658 5.432 9.867 9.175 7.142 12.036-2.725 2.862-13.413-3.618-13.898-3.643-.969-.051-3.365.473-4.385.256-1.684-.36-3.27-3.403-4.183-3.62-1.734-.414-2.941-.374-3.85-.689-1.637-.565-1.852-3.654-2.704-4.028-2.252-.99-4.43-.93-4.769-1.708-1.735-3.978-4.593-14.332-5.41-17.29-.544-1.972-.256-7.464.864-16.475z" stroke="#B2847B" stroke-width="1.764" fill="#FBCFBB" fill-rule="nonzero"/><path d="M81.191 597.191l55.599 32.197c-3.436 2.29-6.672 3.76-9.708 4.41-8.507 1.823-3.191-1.483-7.06-2.205-1.75-.326-37.108 4.663-33.536 5.734 4.413 1.323 21.386-.184 20.74 6.616-.317 3.325-24.56 13.297-21.18 12.79 8.824-1.322 47.655-20.729 20.297-1.322-2.984 2.116-12.456 9.407-15.003 21.17-5.163 23.844-2.805 61.134-4.854 75.862-1.51 10.865-9.659 11.677-10.149 11.468-2.25-.96-4.533-22.863-3.088-61.748.249-6.706.407-17.35 1.323-29.551.315-4.193 2.232-9.98 3.09-17.642.406-3.635-.404-10.454 0-18.525.122-2.455.857-5.542 2.205-9.262.736-3.94 1.177-6.881 1.324-8.821.147-1.94.147-8.997 0-21.17z" fill="url(#U)" fill-rule="nonzero" opacity=".463" transform="translate(-29 -6)"/><g fill-rule="nonzero"><path d="M22.063 26.463c-1.14-1.898-3.491 4.637-5.295 5.293-1.804.656-2.005-1.764-4.413-1.764-2.408 0-2.325 1.764-3.971 1.764s-2.06-1.764-3.089-1.764c-1.03 0-1.431 1.764-2.647 1.764-1.217 0-3.09-3.97-1.765.441.4 1.336 1.32 3.502 1.765 4.852 1.101 3.34 1.765 5.292 2.206 6.175.441.882 1.765.44 3.089.882.266.089 1.323.44 1.765 1.323.44.882.825 3.073 2.647 3.528 1.765.441 1.425-.272 3.089.441 1.664.713 1.898 2.647 3.53 3.088 1.632.44 2.648-.441 3.089-.441.441 0 3.089.882 5.736 2.205 2.648 1.323 7.19 2.726 6.619.441-.571-2.284-7.501-4.852-8.384-7.498-.882-2.646-2.831-18.83-3.971-20.73z" fill="url(#V)" transform="translate(21.303 442.555)"/><path d="M33.977 1.323c-1.14-1.899-4.073-1.255-6.62.441-3.97 2.647-4.897 20.178-3.075 20.633 1.765.442 3.177-.713 4.841 0 1.664.713 3.53 19.503 6.178 20.827.441.22 0-.786 0-2.647 0-1.323 1.73-1.609 1.765-2.205.195-3.425-.18-8.024-.442-13.232-.255-5.073-.387-10.744-.882-14.996-.575-4.943-1.437-8.275-1.765-8.82z" fill="url(#W)" transform="translate(21.303 442.555)"/><path d="M52.333 499.37s-.444-.12-1.215-.348c-.769-.237-1.874-.551-3.186-.972a29.112 29.112 0 0 1-2.108-.771c-.74-.295-1.545-.74-2.2-1.334l-2.043-1.676c-.353-.293-.69-.55-1.071-.88a2.32 2.32 0 0 1-.279-.3c-.072-.091-.142-.17-.22-.289a4.413 4.413 0 0 1-.387-.663c-.431-.915-.54-1.925-.563-2.833a33.772 33.772 0 0 0-.211-2.604c-.203-1.694-.453-3.276-.665-4.633a8531.9 8531.9 0 0 1-.522-3.284c-.128-.793-.192-1.25-.192-1.25s.14.44.36 1.213c.21.776.533 1.88.851 3.222.325 1.34.67 2.914.938 4.627.126.853.253 1.758.293 2.672.03.888.147 1.742.51 2.494.085.183.19.376.296.527.045.076.124.171.194.26.055.075.118.144.184.204.307.272.688.574 1.027.862a79.642 79.642 0 0 1 2.008 1.745c.611.578 1.257.99 1.962 1.322.697.33 1.386.633 2.01.895 1.277.514 2.33.977 3.071 1.285.74.316 1.158.508 1.158.508M40.596 496.831c-.835-.55-1.62-1.18-2.367-1.856a18.595 18.595 0 0 1-2.069-2.21c-.319-.396-.603-.823-.888-1.225-.274-.426-.561-.855-.807-1.294a32.354 32.354 0 0 1-1.381-2.694c-.21-.458-.403-.922-.599-1.385l-.563-1.395c-.37-.93-.706-1.87-1.067-2.794-.178-.464-.367-.92-.553-1.376-.098-.224-.187-.455-.292-.675l-.154-.332-.038-.083-.02-.041-.004-.01-.037-.099-.01-.02-.085-.167c-.45-.887-.885-1.778-1.32-2.669l.028.076-.79-1.565a12.61 12.61 0 0 1-.388-.81 6.361 6.361 0 0 1-.29-.858c-.323-1.174-.283-2.395-.049-3.543-.056 1.17.001 2.357.425 3.42.205.543.459 1.03.773 1.529.31.495.601 1.013.895 1.524l.029.075c.488.879.977 1.757 1.45 2.638l.09.165.011.021-.03-.082.004.006.005.01.021.043.043.085.172.342c.117.227.216.46.325.689.21.46.398.927.586 1.392l1.086 2.792.544 1.386c.188.458.372.918.574 1.37.384.91.8 1.805 1.264 2.673.224.442.468.858.712 1.285.269.428.52.844.802 1.246.555.812 1.18 1.579 1.836 2.32.663.74 1.383 1.425 2.126 2.096M32.073 492.498l-.53-.848-1.348-2.254c-.279-.468-.58-.973-.888-1.515-.309-.536-.647-1.11-.95-1.73-.308-.614-.61-1.26-.883-1.92-.278-.66-.553-1.323-.851-1.973a41.34 41.34 0 0 0-.912-1.935c-.321-.633-.626-1.251-.95-1.845-.65-1.182-1.245-2.327-1.68-3.326-.452-.994-.766-1.851-.993-2.442l-.343-.939.502.864.56 1c.21.39.458.814.725 1.288l.885 1.504 1.02 1.668c.347.587.71 1.203 1.033 1.841.333.637.655 1.296.958 1.962.296.67.567 1.35.832 2.008.27.658.518 1.303.796 1.913.275.61.557 1.193.831 1.756.275.56.524 1.093.754 1.585.469.98.813 1.828 1.059 2.411l.373.927M49.202 475.145l-.064-.215c-.03-.145-.08-.36-.094-.637-.042-.555.044-1.355.183-2.275.069-.447.092-.96.141-1.49.048-.53.08-1.086.096-1.659.018-.572.01-1.163-.031-1.762a9.313 9.313 0 0 0-.088-.883 10.025 10.025 0 0 1-.11-.964c-.03-.657.004-1.276.036-1.904.033-.624.11-1.234.193-1.818a43.2 43.2 0 0 1 .57-3.16c.394-1.837.785-3.033.785-3.033l-.067.86-.207 2.252-.3 3.172c-.052.577-.09 1.17-.12 1.772a25.22 25.22 0 0 0-.013 1.816c.01.296.045.576.087.893.042.317.067.643.079.962.013.628 1.122 4.942 1.03 5.475" fill="#B2847B"/></g><path d="M50.745 460.463c.882-1.323 15.765-10.317 20.297-7.498 4.533 2.82-.535 17.979-1.765 20.73-1.23 2.752-5.46-.49-7.501 0-2.04.49-1.765 2.646-3.53 2.646s-2.113-2.646-3.53-2.646c-1.417 0-1.635 2.646-2.648 2.646-1.013 0-1.323-2.425-1.765-2.646-.441-.22-.441 2.205-.882 1.323-.441-.882.441-13.231 1.324-14.555z" fill="url(#X)" fill-rule="nonzero" transform="translate(-29 -6)"/><path d="M162.824 806.693c-.883 1.764-3.18 9.351-3.53 14.555-.351 5.204-.405 18.442 1.765 22.935 2.17 4.492 5.855-1.182 7.942 0 2.087 1.182 3.53 4.852 5.295 7.498 1.177 1.764 2.795-2.058 4.854-11.468.054-3.809.348-6.455.883-7.939 1.021-2.832 3.37-5.186 4.854-6.174 3.97-2.647 10.296-1.705 9.707-2.647-.589-.942-7.877.402-11.914-.882s-4.756-1.451-7.501-5.293c-2.745-3.84-.714-7.113-3.53-10.144-2.816-3.031-7.943-2.205-8.825-.44z" fill="url(#Y)" fill-rule="nonzero" transform="translate(-29 -6)"/><path d="M193.712 774.055c-3.31-4.107-9.267-4.852-15.885-3.088-8.185 2.182 11.381-45.215 10.59-69.245-.792-24.031-21.737-45.43 1.323-32.198s14.675-3.032 20.74-9.262c6.064-6.23 7.341-21.964 8.383-23.376 1.042-1.412.263 6.6-.416 10.188-.679 3.587-1.181 5.259-1.349 6.572-.01.086.19 6.974 0 11.468-.08 1.92-.597 3.043-.636 3.601-.149 2.128 1.639 8.872 1.078 13.6-.349 2.934-.895 7.37-1.765 13.232-1.575 10.605-7.943 39.254-18.092 73.656-.384 1.303-.441 3.529-.087 4.852.235.877 2.037 5.832 1.852 9.703-.094 1.967-1.765 4.852-2.647 4.41-.25-.124 1.236-.949 1.236-2.646 0-5.733-2.199-8.829-4.325-11.467z" fill="url(#Z)" fill-rule="nonzero" opacity=".032" transform="translate(-29 -6)"/><path d="M96.635 688.49c4.635-14.953 17.65-11.746 20.74-8.821 3.088 2.925-2.063 10.102-4.413 41.9s-2.207 38.813-2.207 47.634c0 8.821-12.993 3.178-19.856 3.97-6.863.791-13.68 9.087-13.68 3.97 0-5.119 10.15-11.027 13.68-22.936 3.53-11.908 1.102-50.764 5.736-65.717z" fill-opacity=".15" fill="url(#aa)" fill-rule="nonzero" opacity=".262" transform="translate(-29 -6)"/><path d="M254.164 241.258c-.206 3.377-.295 5.88-.265 7.512.027 1.486.154 2.952.265 4.397.098 1.277.285 2.428.199 3.973-.06 1.074-.278 2.338-.64 3.966-1.013 4.557-3.09 7.939-4.413 11.467-.251.67-1.324 3.97-2.206 7.94-.883 3.969-1.529 11.906-1.765 18.524a344.84 344.84 0 0 0-.177 16.79c.062 4.233.159 8.61.212 12.758.045 3.54.406 9.265.009 14.116-.05.603-.14 1.341-.22 2.069-.101.91-.24 1.732-.265 1.9-.331 2.205-.805 4.025-1.324 5.734a90.294 90.294 0 0 1-1.765 5.293c-.74 1.995-1.395 4.34-2.207 7.057-.321 1.077-.521 2.305-.882 3.529-.102.347-.883 3.969-1.765 8.38-.16.798-.286 1.692-.441 2.646-.136.833-.3 1.71-.442 2.646-.624 4.11-1.252 9.158-1.783 14.582-.169 1.722-.277 3.486-.423 5.266-.144 1.752-.308 3.274-.353 5.293-.088 3.969-.3 15.265-.088 21.611.19 5.69.567 12.5.89 18.53.428 7.993.76 14.614.434 15.432-.883 2.205-4.854-32.639-4.854-44.106 0-11.467 0-25.14 1.324-41.46 1.323-16.318 8.826-22.288 10.048-33.52.682-6.275-.31-21.233 0-33.52.244-9.704.915-21.14 1.866-26.463 2.206-12.35 6.333-17.824 8.825-23.817.953-2.292.68-5.151.882-7.94.218-3.002.659-6.53 1.324-10.585z" fill="url(#ab)" fill-rule="nonzero" transform="translate(-29 -6)"/></g></svg>