
<svg width="180px" height="460px" viewBox="0 0 180 460" version="1.1" xmlns="http://www.w3.org/2000/svg" xmlns:xlink="http://www.w3.org/1999/xlink">
    <g id="Page-1" stroke="none" stroke-width="1" fill="none" fill-rule="evenodd">
        <path d="M4,0 L176,0 C178.209139,-4.05812251e-16 180,1.790861 180,4 L180,456 C180,458.209139 178.209139,460 176,460 L4,460 C1.790861,460 2.705415e-16,458.209139 0,456 L0,4 C-2.705415e-16,1.790861 1.790861,4.05812251e-16 4,0 Z" id="Mask-Copy" fill="#141414"></path>
        <path d="M90,180 C62.5,180 40,202.5 40,230 C40,257.5 62.5,280 90,280 C117.5,280 140,257.5 140,230 C140,202.5 117.5,180 90,180 Z M95,265 L85,265 L85,255 L95,255 L95,265 Z M105.5,226.5 L101,231 C97.0001961,234.500196 95,237.5 95,245 L85,245 L85,242.5 C85,237 87,232 91,228.5 L97,222 C99,220.5 100,218 100,215 C100,209.5 95.5,205 90,205 C84.5,205 80,209.5 80,215 L70,215 C70,204 79,195 90,195 C101,195 110,204 110,215 C110,219.5 108,223.5 105.5,226.5 Z" id="Shape" fill="#666666" fill-rule="nonzero"></path>
    </g>
</svg>
