<?xml version="1.0" encoding="UTF-8"?>
<svg width="307px" height="90px" viewBox="0 0 307 90" version="1.1" xmlns="http://www.w3.org/2000/svg" xmlns:xlink="http://www.w3.org/1999/xlink">
    <!-- Generator: Sketch 52.5 (67469) - http://www.bohemiancoding.com/sketch -->
    <title>logo</title>
    <desc>Created with Sketch.</desc>
    <defs>
        <linearGradient x1="684.683899%" y1="915.510888%" x2="589.716599%" y2="1011.02178%" id="linearGradient-1">
            <stop stop-color="#FE0E3C" offset="0%"></stop>
            <stop stop-color="#FD7B2E" offset="46%"></stop>
            <stop stop-color="#E8EF26" offset="100%"></stop>
        </linearGradient>
        <linearGradient x1="100%" y1="-1.32928194e-13%" x2="7.45634143e-14%" y2="100.005846%" id="linearGradient-2">
            <stop stop-color="#FE0E3C" offset="0%"></stop>
            <stop stop-color="#FD7B2E" offset="46%"></stop>
            <stop stop-color="#E8EF26" offset="100%"></stop>
        </linearGradient>
    </defs>
    <g id="Page-1" stroke="none" stroke-width="1" fill="none" fill-rule="evenodd">
        <g id="logo" transform="translate(-40.000000, -17.000000)">
            <g transform="translate(38.000000, 17.000000)">
                <path d="M2.64,25.16 L13.8,25.16 L13.8,40.88 L20.64,40.88 L20.64,25.16 L31.8,25.16 L31.8,68 L20.64,68 L20.64,50.36 L13.8,50.36 L13.8,68 L2.64,68 L2.64,25.16 Z M37.08,25.16 L62.46,25.16 L62.46,34.28 L48.24,34.28 L48.24,41.6 L61.56,41.6 L61.56,50.36 L48.24,50.36 L48.24,58.88 L63,58.88 L63,68 L37.08,68 L37.08,25.16 Z M78.24,43.28 L80.46,43.28 C82.060008,43.28 83.2399962,42.8100047 84,41.87 C84.7600038,40.9299953 85.14,39.7000076 85.14,38.18 C85.14,36.379991 84.7700037,35.1000038 84.03,34.34 C83.2899963,33.5799962 82.0800084,33.2 80.4,33.2 L78.24,33.2 L78.24,43.28 Z M67.08,25.16 L84.54,25.16 C86.6600106,25.16 88.4699925,25.4399972 89.97,26 C91.4700075,26.5600028 92.6899953,27.3499949 93.63,28.37 C94.5700047,29.3900051 95.2499979,30.599993 95.67,32 C96.0900021,33.400007 96.3,34.9199918 96.3,36.56 C96.3,39.4400144 95.7200058,41.7599912 94.56,43.52 C93.3999942,45.2800088 91.5400128,46.359998 88.98,46.76 L88.98,46.88 C91.6600134,47.1200012 93.499995,48.0599918 94.5,49.7 C95.500005,51.3400082 96,53.5999856 96,56.48 L96,61.88 C96,62.480003 96.0199998,63.0499973 96.06,63.59 C96.1000002,64.1300027 96.1599996,64.6199978 96.24,65.06 C96.3200004,65.5000022 96.4199994,65.8399988 96.54,66.08 C96.7000008,66.3200012 96.8599992,66.5499989 97.02,66.77 C97.1800008,66.9900011 97.4399982,67.199999 97.8,67.4 L97.8,68 L85.92,68 C85.6399986,67.4399972 85.4300007,66.7800038 85.29,66.02 C85.1499993,65.2599962 85.0500003,64.5000038 84.99,63.74 C84.9299997,62.9799962 84.8900001,62.2500035 84.87,61.55 C84.8499999,60.8499965 84.84,60.2800022 84.84,59.84 L84.84,56.96 C84.84,55.759994 84.7800006,54.760004 84.66,53.96 C84.5399994,53.159996 84.3300015,52.5300023 84.03,52.07 C83.7299985,51.6099977 83.3500023,51.2900009 82.89,51.11 C82.4299977,50.9299991 81.8600034,50.84 81.18,50.84 L78.24,50.84 L78.24,68 L67.08,68 L67.08,25.16 Z M111.78,46.58 C111.78,49.4600144 111.82,51.8499905 111.9,53.75 C111.98,55.6500095 112.149999,57.1599944 112.41,58.28 C112.670001,59.4000056 113.049997,60.1799978 113.55,60.62 C114.050002,61.0600022 114.719996,61.28 115.56,61.28 C116.400004,61.28 117.069997,61.0600022 117.57,60.62 C118.070003,60.1799978 118.449999,59.4000056 118.71,58.28 C118.970001,57.1599944 119.14,55.6500095 119.22,53.75 C119.3,51.8499905 119.34,49.4600144 119.34,46.58 C119.34,43.6999856 119.3,41.3100095 119.22,39.41 C119.14,37.5099905 118.970001,36.0000056 118.71,34.88 C118.449999,33.7599944 118.070003,32.9800022 117.57,32.54 C117.069997,32.0999978 116.400004,31.88 115.56,31.88 C114.719996,31.88 114.050002,32.0999978 113.55,32.54 C113.049997,32.9800022 112.670001,33.7599944 112.41,34.88 C112.149999,36.0000056 111.98,37.5099905 111.9,39.41 C111.82,41.3100095 111.78,43.6999856 111.78,46.58 Z M100.26,46.58 C100.26,42.57998 100.519997,39.1700141 101.04,36.35 C101.560003,33.5299859 102.419994,31.2300089 103.62,29.45 C104.820006,27.6699911 106.39999,26.3700041 108.36,25.55 C110.32001,24.7299959 112.719986,24.32 115.56,24.32 C118.400014,24.32 120.79999,24.7299959 122.76,25.55 C124.72001,26.3700041 126.299994,27.6699911 127.5,29.45 C128.700006,31.2300089 129.559997,33.5299859 130.08,36.35 C130.600003,39.1700141 130.86,42.57998 130.86,46.58 C130.86,50.58002 130.600003,53.9899859 130.08,56.81 C129.559997,59.6300141 128.700006,61.9299911 127.5,63.71 C126.299994,65.4900089 124.72001,66.7599962 122.76,67.52 C120.79999,68.2800038 118.400014,68.66 115.56,68.66 C112.719986,68.66 110.32001,68.2800038 108.36,67.52 C106.39999,66.7599962 104.820006,65.4900089 103.62,63.71 C102.419994,61.9299911 101.560003,59.6300141 101.04,56.81 C100.519997,53.9899859 100.26,50.58002 100.26,46.58 Z" id="HERO" fill="#FFFFFF"></path>
                <path d="M230.16,59.96 L233.28,59.96 C234.320005,59.96 235.239996,59.5300043 236.04,58.67 C236.840004,57.8099957 237.24,56.480009 237.24,54.68 C237.24,52.9999916 236.840004,51.7200044 236.04,50.84 C235.239996,49.9599956 234.320005,49.52 233.28,49.52 L230.16,49.52 L230.16,59.96 Z M230.16,41.96 L232.86,41.96 C234.020006,41.96 234.899997,41.5300043 235.5,40.67 C236.100003,39.8099957 236.4,38.8000058 236.4,37.64 C236.4,36.439994 236.100003,35.4000044 235.5,34.52 C234.899997,33.6399956 234.020006,33.2 232.86,33.2 L230.16,33.2 L230.16,41.96 Z M219,25.16 L235.86,25.16 C239.86002,25.16 242.80999,26.1299903 244.71,28.07 C246.610009,30.0100097 247.56,32.5999838 247.56,35.84 C247.56,36.9600056 247.430001,38.0499947 247.17,39.11 C246.909999,40.1700053 246.510003,41.1299957 245.97,41.99 C245.429997,42.8500043 244.740004,43.579997 243.9,44.18 C243.059996,44.780003 242.040006,45.1999988 240.84,45.44 L240.84,45.56 C242.240007,45.6800006 243.439995,46.0499969 244.44,46.67 C245.440005,47.2900031 246.259997,48.0599954 246.9,48.98 C247.540003,49.9000046 248.009998,50.9099945 248.31,52.01 C248.610002,53.1100055 248.76,54.2199944 248.76,55.34 C248.76,57.1800092 248.520002,58.8799922 248.04,60.44 C247.559998,62.0000078 246.810005,63.3399944 245.79,64.46 C244.769995,65.5800056 243.440008,66.4499969 241.8,67.07 C240.159992,67.6900031 238.180012,68 235.86,68 L219,68 L219,25.16 Z M253.08,25.16 L278.46,25.16 L278.46,34.28 L264.24,34.28 L264.24,41.6 L277.56,41.6 L277.56,50.36 L264.24,50.36 L264.24,58.88 L279,58.88 L279,68 L253.08,68 L253.08,25.16 Z M288.72,34.64 L280.44,34.64 L280.44,25.16 L308.28,25.16 L308.28,34.64 L299.88,34.64 L299.88,68 L288.72,68 L288.72,34.64 Z" id="BET" fill="#FFFFFF"></path>
                <g id="vs" transform="translate(128.000000, 0.000000)">
                    <g id="a-link" fill="#0F120E">
                        <path d="M85.6071605,46.11 L85.5116049,45.435 C85.4211149,44.8183878 85.0331285,44.275781 84.4604938,43.965 C80.4215089,41.777627 75.8372095,40.6420983 71.1782716,40.675 C67.9559259,40.675 64.5318519,41.175 60.9644444,42.175 C66.2306173,34.165 72.6965432,27.68 80.2241975,22.875 C80.8996174,22.4450899 81.2560019,21.6903299 81.1425926,20.93 C81.1001235,20.67 81.0364198,20.43 80.9355556,20.2 L82.204321,19.395 C82.8778593,18.9659341 83.2339901,18.2136504 83.122716,17.455 L83.0165432,16.78 C82.8812189,15.8563227 82.0907204,15.1407377 81.1054321,15.05 C81.029979,14.5315374 80.7422996,14.0614055 80.3038272,13.74 C79.2631035,13.0005706 77.9864678,12.6162217 76.6833333,12.65 C75.6481481,12.65 74.4961728,12.85 73.2008642,13.26 C72.899335,12.7808343 72.4002158,12.4410018 71.8225806,12.3215758 C71.2449455,12.2021498 70.6405934,12.3138398 70.1537037,12.63 C60.7308642,18.65 58.6074074,19.11 58.3154321,19.14 L58.3101235,19.14 C57.5669136,19.14 56.8714815,19.505 56.478642,20.105 L46.4240741,35.505 C45.7277257,35.543368 45.0944166,35.8975333 44.7253086,36.455 L41.3277778,41.575 C41.3065432,41.61 41.1950617,41.64 41.0304938,41.675 L45.9940741,25.235 C49.4659259,15.85 52.3166667,9.685 54.477284,6.925 C54.8382716,6.465 54.9762963,5.88 54.8488889,5.325 L54.4241975,3.385 C54.2856301,2.7676054 53.847265,2.24734105 53.2403704,1.98 L53.2297531,1.93 C53.0590344,1.13572977 52.3997346,0.515070432 51.5563504,0.354672797 C50.7129663,0.194275161 49.8496257,0.525353637 49.3650617,1.195 C48.9403704,1.78 48.5422222,2.34 48.1812346,2.87 L45.0279012,2.305 C44.4686543,2.21020139 43.8921596,2.32309773 43.4193827,2.62 L41.9064198,3.585 C41.6728395,3.735 41.4817284,3.92 41.3224691,4.135 C40.5821268,3.92667242 39.7800147,4.10364829 39.2149383,4.6 C37.632963,6 36.4332099,8.155 35.5466667,11.18 C35.4511111,11.495 35.4404938,11.825 35.5148148,12.13 C35.0901235,12.31 34.7185185,12.62 34.4902469,13.03 C31.5704938,18.16 29.8292593,22.315 29.165679,25.73 C29.1125926,25.98 29.1125926,26.245 29.1709877,26.5 L29.3196296,27.15 C29.3674074,27.365 29.4523457,27.575 29.5691358,27.76 C29.411758,27.8164206 29.2620644,27.8902728 29.1232099,27.98 L28.3640741,28.465 C27.8557725,28.7885221 27.5193882,29.3020006 27.4403704,29.875 L27.1165432,32.295 C27.0858996,32.5165074 27.0948715,32.7412849 27.1430864,32.96 L27.1537037,33.015 L26.6175309,34.29 C26.5909877,34.205 26.5644444,34.12 26.527284,34.04 C23.0076543,26.135 19.572963,20.165 16.3293827,16.29 C15.6321184,15.4554839 14.367865,15.2719554 13.4361728,15.87 L11.9391358,16.82 C11.3068569,16.5869361 10.6326194,16.4714747 9.9537037,16.48 C7.73469136,16.48 5.00074074,17.57 1.33777778,19.91 C0.852005571,20.2218555 0.523888991,20.7082437 0.430500053,21.2549157 C0.337111114,21.8015878 0.486679972,22.3603669 0.844074074,22.8 L2.6808642,25.05 L2.46851852,26.65 C2.37537613,27.3202415 2.64615843,27.9896947 3.18917413,28.4316718 C3.73218983,28.8736489 4.47471129,29.0289547 5.16530864,28.845 C6.30666667,29.905 9.51839506,35.035 15.6976543,59.48 L16.3983951,62.63 L16.1276543,63.13 C15.7359246,63.8498603 15.8405228,64.7207497 16.3930864,65.34 L16.34,65.73 C16.2845419,66.1296144 16.3585572,66.535687 16.5523457,66.895 L18.0281481,69.635 C18.3075422,70.1529335 18.8096586,70.5329007 19.4068396,70.6782988 C20.0040206,70.823697 20.6387409,70.7205201 21.1496296,70.395 L22.6732099,69.425 C22.9704938,69.235 23.2093827,68.975 23.3739506,68.675 L23.4164198,68.6 C23.6606173,68.63 23.8782716,68.645 24.0534568,68.645 C25.502716,68.645 27.1324691,68.055 29.0276543,66.84 L30.5459259,65.87 C31.2624784,65.4126848 31.6147801,64.5930127 31.4377778,63.795 C31.2997531,63.16 31.3581481,62.71 31.6660494,62.325 L31.9420988,62.34 C32.3667901,62.34 32.7914815,62.22 33.1524691,61.99 L34.6707407,61.025 C35.08398,60.758693 35.384642,60.3640086 35.5201235,59.91 L37.2666667,54.145 L37.1604938,54.92 C37.0784526,55.1878143 37.056754,55.4688235 37.0967901,55.745 C37.7232099,60.13 44.6085185,60.635 49.731358,60.635 L50.4958025,60.635 C51.112196,60.6262501 51.6949484,60.3687168 52.096054,59.9278078 C52.4971595,59.4868987 52.6780255,58.9050362 52.592716,58.33 L57.9916049,56.865 C58.7293241,56.6647871 59.2965797,56.107614 59.4780247,55.405 C60.8582716,54.79 63.342716,53.985 67.8232099,53.045 C67.0375309,57.145 62.7640741,63.895 49.2164198,74.685 L48.2980247,75.275 L46.4293827,75.355 C45.7604938,75.38 45.1446914,75.7 44.7624691,76.215 L42.6920988,79.015 C42.3948148,79.41 42.2674074,79.885 42.3098765,80.365 C42.347037,80.72 42.4054321,81.07 42.4797531,81.405 C43.4830864,85.925 46.514321,86.6 48.2396296,86.6 C48.4732099,86.6 48.7174074,86.585 48.9669136,86.56 C50.3365432,87.045 51.7220988,87.295 53.097037,87.295 L53.2350617,87.295 L53.3624691,88.145 C53.4685247,88.8814668 53.9963916,89.5031544 54.7358739,89.7625077 C55.4753562,90.021861 56.3063769,89.8767663 56.8980247,89.385 C70.3766667,78.325 70.8809877,76.345 70.7058025,75.015 L72.8292593,73.315 C72.9725926,73.195 73.0946914,73.065 73.2008642,72.915 C80.914321,62.35 84.9754321,53.725 85.6230864,46.55 C85.6337037,46.4 85.6283951,46.255 85.6071605,46.11" id="a"></path>
                    </g>
                    <g id="c-link" transform="translate(3.000000, 3.000000)" fill="url(#linearGradient-2)" fill-rule="nonzero">
                        <path d="M27.0087662,30.8273256 L26.8667532,30.1898256 L27.1928571,27.7979651 L27.945,27.3186047 L28.371039,29.2311047 L27.7609091,30.3479651 L27.0087662,30.8273256 Z M41.4362338,22.3668605 L31.0482468,56.6880814 L29.543961,57.6468023 L28.6498052,57.4886628 C27.1455195,58.4473837 26.5827273,59.7767442 26.9666883,61.4767442 L25.4624026,62.4354651 C21.9488961,64.6741279 19.866039,64.3034884 19.2033117,61.3235465 L19.5294156,58.9267442 L18.3091558,61.1604651 L18.7299351,63.077907 L19.6240909,63.2360465 L19.7713636,63.8784884 L19.1612338,64.990407 L17.6569481,65.9491279 L16.1947403,63.2360465 L16.5208442,60.844186 L15.7687013,61.3235465 L16.3788312,60.206686 L15.5267532,56.3718023 C9.6937013,33.3575581 5.33337662,22.7671512 2.44577922,24.6104651 L2.77188312,22.2136628 L0.415519481,19.3473837 C6.4274026,15.5125 9.81993506,15.2950581 10.5773377,18.7049419 L11.3294805,18.2255814 L10.8981818,16.3081395 L12.4024675,15.3494186 C15.5162338,19.055814 18.7877922,24.7488372 22.2171429,32.4284884 L21.465,32.9078488 L22.3591558,33.0659884 L23.6372727,38.8133721 L25.1415584,37.8546512 L24.5314286,38.9715116 L25.2414935,42.1639535 L25.9936364,41.684593 C27.0245455,36.1991279 29.7543506,27.8968023 34.1830519,16.7776163 L35.0772078,16.9406977 L36.1554545,14.0694767 L35.4033117,14.5438953 L34.1830519,16.7825581 L34.041039,16.1401163 L40.6104545,3.2122093 L42.1147403,2.25348837 L45.6913636,2.89098837 L42.7827273,9.11773256 L45.0391558,7.68459302 C44.7446104,6.3502907 45.9175325,3.90406977 48.5526623,0.336046512 L48.9787013,2.25348837 C47.0220779,3.73110465 46.1594805,5.00610465 46.4014286,6.08343023 L47.9004545,5.1247093 C47.6164286,3.8497093 48.2318182,2.72790698 49.7308442,1.77412791 L50.1568831,3.68662791 C47.8794156,6.60232558 44.9707792,12.8290698 41.4362338,22.3668605 Z M12.9074026,36.8959302 L12.1973377,33.7084302 L11.4451948,34.1877907 L12.1552597,37.3752907 L12.9074026,36.8959302 Z M15.6477273,45.3563953 L14.0855844,38.3389535 L13.3334416,38.818314 L14.8955844,45.8357558 L15.6477273,45.3563953 Z M31.0272078,45.0401163 C30.0436364,45.9 29.2757143,47.6 28.733961,50.15 L29.6281169,50.3081395 L30.3802597,49.8287791 L31.0272078,45.0401163 Z M33.3204545,39.9302326 L33.1784416,39.2877907 L31.3585714,42.643314 L31.5005844,43.280814 L33.3204545,39.9302326 Z M40.0161039,15.9770349 L41.6992208,11.9938953 L41.5624675,11.3514535 L40.8103247,11.830814 L39.263961,16.4563953 L40.0161039,15.9770349 Z M35.9135065,9.11773256 L35.1613636,9.59215116 C35.9292857,6.99273256 36.9496753,5.12965116 38.212013,4.00784884 L38.354026,4.6502907 L35.9135065,9.11773256 Z M29.0232468,24.4473837 L28.8812338,23.8049419 C29.4966234,20.6718023 31.185,16.6787791 33.9411039,11.8357558 L34.0831169,12.4732558 L29.0232468,24.4473837 Z M25.3203896,34.8203488 L27.0087662,30.8322674 L27.1507792,31.4747093 L25.4676623,35.4578488 L25.3203896,34.8203488 Z M68.6711688,68.9686047 L64.2161688,72.5366279 L64.3108442,73.2037791 L65.8151299,72.2450581 C66.015,73.4311047 61.6967532,77.6415698 52.8709091,84.8665698 L52.6762987,83.5322674 L56.4317532,81.140407 L56.3791558,80.4485465 C53.1654545,82.4944767 49.9307143,82.8552326 46.6749351,81.5258721 C44.2133766,81.9805233 42.6775325,80.8290698 42.0674026,78.0715116 C42.0095455,77.8244186 41.9622078,77.5526163 41.9359091,77.2561047 L43.9924675,74.4886628 L46.4435065,74.3799419 L47.9477922,73.4212209 C61.680974,62.5293605 68.1294156,54.0491279 67.2825974,47.9805233 C60.7920779,49.2011628 56.5842857,50.4267442 54.6697403,51.6473837 L54.7644156,52.3145349 L46.8116883,54.4642442 L47.6585065,54.6520349 L47.9004545,55.956686 C40.7787662,56.0357558 37.0653896,54.9979651 36.7498052,52.8531977 L40.6472727,40.1674419 L44.0135065,35.1020349 L44.2133766,36.4363372 L55.6690909,18.9322674 C57.1838961,18.9322674 61.4968831,16.6787791 68.6027922,12.147093 L68.6974675,12.8142442 L63.4377273,16.1697674 L63.5324026,16.8369186 C69.8125325,12.8340116 74.0203247,11.6133721 76.1557792,13.1700581 L76.3451299,14.5043605 L72.5896753,16.8962209 L72.6843506,17.568314 L78.0492857,14.8799419 L78.143961,15.547093 L73.6363636,18.418314 L73.731039,19.0854651 C75.2353247,18.1267442 76.0505844,18.097093 76.1820779,18.9866279 C67.251039,24.6747093 59.8874026,32.5273256 54.1016883,42.5296512 L54.2016234,43.1968023 C64.3897403,39.2186047 73.162987,39.2186047 80.5108442,43.1968023 L80.6107792,43.8639535 C80.0059091,50.5354651 76.0295455,58.9069767 68.6711688,68.9686047 Z M70.2438312,62.865407 L70.995974,62.3909884 L73.5153896,57.1377907 L72.7632468,57.6171512 L70.2438312,62.865407 Z M49.3416234,43.3697674 L61.0498052,27.8968023 L66.8670779,22.7325581 L66.6724675,21.3982558 L65.1681818,22.3569767 C57.794026,29.9180233 52.4816883,36.6982558 49.2416883,42.7075581 L49.3416234,43.3697674 Z M59.2299351,66.230814 L59.9820779,65.7514535 L61.2864935,63.468314 L60.5343506,63.9476744 L59.2299351,66.230814 Z M63.7007143,74.3255814 L63.5587013,73.6831395 L62.8065584,74.1674419 L56.9366883,78.6299419 L57.0366234,79.297093 L60.0346753,77.384593 L63.7007143,74.3255814 Z M68.0873377,64.9706395 L64.4791558,68.7264535 L64.6211688,69.3688953 L65.3733117,68.8895349 L68.0873377,64.9706395 Z" id="c"></path>
                    </g>
                </g>
            </g>
        </g>
    </g>
</svg>