<svg xmlns="http://www.w3.org/2000/svg" xmlns:xlink="http://www.w3.org/1999/xlink" width="66" height="50" viewBox="0 0 66 50"><defs><path id="c1zoa" d="M398.796 1298.692c1.063 0 1.928.863 1.928 1.923a1.928 1.928 0 0 1-3.857 0c0-1.06.866-1.923 1.929-1.923zm12.79 21.865l3.636-18.078c.112-.016.223-.034.333-.056l9.46 15.683-5.617 5.586 5.8 5.77h-17.057l-5.725-20.899zm2.812-25.71c1.066 0 1.934.86 1.934 1.917a1.928 1.928 0 0 1-1.934 1.918 1.928 1.928 0 0 1-1.933-1.918c0-1.057.867-1.918 1.933-1.918zm23.204 0c1.066 0 1.933.86 1.933 1.917a1.928 1.928 0 0 1-1.933 1.918 1.928 1.928 0 0 1-1.934-1.918c0-1.057.868-1.918 1.934-1.918zm11.865 13.75l-5.615 20.865h-17.05l5.8-5.77-5.618-5.586 9.461-15.683c.11.022.221.04.333.056l3.643 18.116zm3.598-9.905c1.096 0 2.058.899 2.058 1.923 0 1.025-.962 1.923-2.058 1.923a1.928 1.928 0 0 1-1.928-1.923c0-1.06.865-1.923 1.928-1.923zm-25.933 25L426 1324.82l-1.132-1.127 1.132-1.126zm16.27 13.452h-34.804v-3.836h34.804zm-45.615-30.85l6.943 25.348V1341h42.54v-9.362l6.82-25.343a5.99 5.99 0 0 0 3.115-1.57c1.158-1.1 1.795-2.56 1.795-4.11 0-1.55-.637-3.009-1.795-4.11a5.98 5.98 0 0 0-4.135-1.659c-3.198 0-5.8 2.588-5.8 5.77 0 1.18.359 2.28.973 3.195l-5.726 7.594-1.948-9.681a5.765 5.765 0 0 0 2.833-4.955c0-3.18-2.602-5.769-5.8-5.769-3.199 0-5.801 2.588-5.801 5.77 0 1.393.5 2.673 1.33 3.672l-7.131 11.82-7.131-11.82a5.726 5.726 0 0 0 1.33-3.673c0-3.18-2.602-5.769-5.8-5.769-3.199 0-5.801 2.588-5.801 5.77a5.766 5.766 0 0 0 2.832 4.954l-1.954 9.718-5.842-7.64c.61-.914.968-2.01.968-3.187 0-3.18-2.603-5.769-5.801-5.769-3.199 0-5.801 2.588-5.801 5.77 0 2.836 2.07 5.2 4.787 5.678z"/></defs><g><g transform="translate(-393 -1291)"><use fill="red" xlink:href="#c1zoa"/></g></g></svg>