<svg xmlns="http://www.w3.org/2000/svg" xmlns:xlink="http://www.w3.org/1999/xlink" width="56" height="55" viewBox="0 0 56 55"><defs><path id="uy1va" d="M1240.505 1319.151a1.81 1.81 0 0 0-1.78 1.476 15.1 15.1 0 0 1-7.203 10.223 1.81 1.81 0 0 0-.894 1.562v4.69h-4.94l.008-2.362a1.81 1.81 0 0 0-1.81-1.817h-14.158c-1 0-1.81.81-1.81 1.81l-.002 2.37h-5.489v-5.035a1.81 1.81 0 0 0-.834-1.524c-4.365-2.798-6.972-7.556-6.972-12.728 0-6.181 3.833-11.748 9.48-14.021.462.77 1.01 1.484 1.628 2.128h-1.48a1.81 1.81 0 1 0 0 3.621h19.924a1.81 1.81 0 0 0 0-3.621h-1.48a11.765 11.765 0 0 0 2.927-5.243l4.116-2.262.011 4.327c.002.678.383 1.3.988 1.608a15.066 15.066 0 0 1 7.4 8.44 1.81 1.81 0 0 0 1.707 1.209h3.536v5.15zm-26.293-29.53c4.494 0 8.15 3.657 8.15 8.151 0 .465-.04.92-.115 1.363l-.01.056c-.674 3.82-4.015 6.732-8.025 6.732-4.495 0-8.152-3.656-8.152-8.15 0-4.495 3.657-8.152 8.152-8.152zm30.977 20.76h-4.113a18.65 18.65 0 0 0-7.71-8.714l-.017-6.31a1.811 1.811 0 0 0-2.683-1.583l-4.765 2.62c-.685-5.844-5.665-10.394-11.689-10.394-6.492 0-11.773 5.281-11.773 11.772 0 .917.109 1.809.308 2.666-6.999 2.82-11.747 9.718-11.747 17.378 0 6.076 2.9 11.69 7.806 15.21v5.887c0 1 .81 1.81 1.81 1.81h9.11c.999 0 1.81-.81 1.81-1.81l.002-2.369h10.53l-.01 2.362a1.81 1.81 0 0 0 1.812 1.818h8.569c1 0 1.81-.811 1.81-1.811v-5.5a18.722 18.722 0 0 0 7.696-10.64h3.244c1 0 1.811-.81 1.811-1.81v-8.771c0-1-.81-1.811-1.81-1.811z"/></defs><g><g transform="translate(-1191 -1286)"><use fill="red" xlink:href="#uy1va"/></g></g></svg>