<svg xmlns="http://www.w3.org/2000/svg" xmlns:xlink="http://www.w3.org/1999/xlink" width="58" height="49" viewBox="0 0 58 49"><defs><path id="n6l5a" d="M846.734 1317.06a3.63 3.63 0 0 1-2.492 3.443v-10.88a1.133 1.133 0 0 0-2.265 0v8.576h-6.797v-8.575a1.133 1.133 0 0 0-2.266 0v10.88a3.63 3.63 0 0 1-2.492-3.444v-7.917a4.31 4.31 0 0 1 4.305-4.305h7.703a4.31 4.31 0 0 1 4.304 4.305zm-11.225-19.009a3.07 3.07 0 0 1 3.07-3.065 3.07 3.07 0 0 1 3.069 3.065v1.446a3.07 3.07 0 0 1-3.07 3.066 3.07 3.07 0 0 1-3.07-3.066zm-7.343 19.01a3.63 3.63 0 0 1-2.493 3.442v-10.88a1.133 1.133 0 0 0-2.267 0v8.576h-6.802v-8.575a1.133 1.133 0 0 0-2.267 0v10.88a3.63 3.63 0 0 1-2.493-3.444v-7.917a4.31 4.31 0 0 1 4.307-4.305h7.708a4.31 4.31 0 0 1 4.307 4.305zm-4.768 21.686h-2.265v-13.715a1.133 1.133 0 1 0-2.266 0v13.715h-2.265v-18.282h6.796zm-6.467-40.696a3.07 3.07 0 0 1 3.069-3.065 3.07 3.07 0 0 1 3.07 3.065v1.446a3.07 3.07 0 0 1-3.07 3.066 3.07 3.07 0 0 1-3.07-3.066zm-7.353 19.01a3.63 3.63 0 0 1-2.492 3.442v-10.88a1.133 1.133 0 0 0-2.266 0v8.576h-6.797v-8.575a1.133 1.133 0 0 0-2.265 0v10.88a3.63 3.63 0 0 1-2.492-3.444v-7.917a4.31 4.31 0 0 1 4.304-4.305h7.703a4.31 4.31 0 0 1 4.305 4.305zm-4.758 21.686h-2.265v-13.715a1.133 1.133 0 1 0-2.266 0v13.715h-2.266v-18.282h6.797zm-6.468-40.696a3.07 3.07 0 0 1 3.07-3.065 3.07 3.07 0 0 1 3.07 3.065v1.446a3.07 3.07 0 0 1-3.07 3.066 3.07 3.07 0 0 1-3.07-3.066zm44.571 4.542c.623-.872.99-1.939.99-3.09v-1.448a5.341 5.341 0 0 0-5.335-5.335 5.341 5.341 0 0 0-5.335 5.335v1.448c0 1.151.368 2.218.99 3.09a6.572 6.572 0 0 0-4.944 2.866 6.572 6.572 0 0 0-4.944-2.866c.622-.872.99-1.939.99-3.09v-1.448a5.341 5.341 0 0 0-5.335-5.335 5.341 5.341 0 0 0-5.335 5.335v1.448c0 1.151.367 2.218.99 3.09a6.572 6.572 0 0 0-4.945 2.866 6.572 6.572 0 0 0-4.944-2.866c.623-.872.99-1.939.99-3.09v-1.448a5.341 5.341 0 0 0-5.335-5.335 5.341 5.341 0 0 0-5.335 5.335v1.448c0 1.151.368 2.218.99 3.09-3.392.254-6.076 3.093-6.076 6.55v7.917a5.9 5.9 0 0 0 4.758 5.78v17.03c0 .625.507 1.133 1.133 1.133h9.062c.626 0 1.133-.508 1.133-1.133v-17.03a5.9 5.9 0 0 0 3.625-2.312 5.9 5.9 0 0 0 3.625 2.313v17.029c0 .625.507 1.133 1.133 1.133h9.062c.626 0 1.133-.508 1.133-1.133v-17.03a5.9 5.9 0 0 0 3.625-2.312 5.9 5.9 0 0 0 3.625 2.313v17.029c0 .625.507 1.133 1.133 1.133h9.062c.626 0 1.133-.508 1.133-1.133v-5.778a1.133 1.133 0 0 0-2.265 0v4.645h-2.266v-13.707a1.133 1.133 0 0 0-2.266 0v13.707h-2.265v-18.272h6.797V1335.225a1.133 1.133 0 0 0 2.265 0v-12.384a5.9 5.9 0 0 0 4.758-5.78v-7.918c0-3.457-2.684-6.296-6.077-6.55z"/></defs><g><g transform="translate(-791 -1292)"><use fill="red" xlink:href="#n6l5a"/></g></g></svg>