<svg width="420" height="77" viewBox="0 0 420 77" fill="none" xmlns="http://www.w3.org/2000/svg">
    <path d="M170.952 61.599V0H155.535V77H220.909L208.115 61.599H170.952Z" fill="#F9C910"/>
    <path d="M404.693 0V51.26L362.034 0H346.618V15.2016L355.183 25.5813H346.618V77H362.034V25.631L404.693 77H419.999V0H404.693Z" fill="#ED1C24"/>
    <path d="M69.1552 0H13.232L0.440062 15.3995H46.1392L0 61.599V77H69.1552V61.599H23.014L69.1552 15.3995V0Z" fill="#F9C910"/>
    <path d="M292.621 0V46.31L281.168 61.599L269.496 46.6958V0H254.08V46.31L242.737 61.599L231.064 46.6632V0H215.647V54.0105L234.919 77H250.335L261.789 63.2498L273.459 77H288.878L307.927 54.0105V0H292.621Z" fill="#ED1C24"/>
    <path d="M145.052 0H79.6396V77H145.052V61.599H95.0554V46.31H141.197V30.9105H103.612L95.0524 38.1503L95.0554 15.3995H145.052V0Z" fill="#F9C910"/>
    <path d="M312.598 25.5813H318.603V77H334.019V25.5813V0L312.598 25.5813Z" fill="#ED1C24"/>
</svg>