<svg xmlns="http://www.w3.org/2000/svg" xmlns:xlink="http://www.w3.org/1999/xlink" xml:space="preserve" width="8.24809in" height="8.24809in" version="1.1" style="shape-rendering:geometricPrecision; text-rendering:geometricPrecision; image-rendering:optimizeQuality; fill-rule:evenodd; clip-rule:evenodd" viewBox="0 0 8248 8248">
 <defs>
  <style type="text/css">
   <![CDATA[
    .fil1 {fill:#000000;fill-rule:nonzero}
    .fil2 {fill:#ff0000;fill-rule:nonzero}
    .fil0 {fill:none;fill-rule:nonzero}
   ]]>
  </style>
 </defs>
    <g id="ﾃ神x00a1_ﾃ神x00bb_ﾃ神x00be_ﾃ神x00b9__x0020_1">
  <metadata id="CorelCorpID_0Corel-Layer"/>
        <polygon class="fil0" points="8248,8248 0,8248 0,0 8248,0 "/>
        <g id="_149782344">
   <path class="fil1" d="M7177 4943l0 1000c-154,22 -261,68 -436,68 -449,0 -970,-242 -970,-997 0,-676 501,-955 959,-955 263,0 568,65 725,215l0 -431c-191,-101 -468,-137 -736,-137 -669,0 -1281,409 -1426,1162l595 1315c218,105 523,196 809,196 280,0 590,-79 837,-180l0 -1255 -356 0z"/>
  </g>
        <polygon class="fil2" points="2048,6336 2542,5287 3018,5386 2621,6336 "/>
        <polygon class="fil2" points="5219,6336 4852,5621 5147,5040 5717,6336 "/>
        <polygon class="fil2" points="3354,4460 2978,4376 3902,2219 4648,3869 4414,4368 3902,3289 "/>
        <polygon class="fil2" points="909,6558 909,5922 1980,4440 4398,4999 6084,1474 6563,1474 4648,5519 2081,4877 "/>
 </g>
</svg>