<?xml version="1.0" encoding="UTF-8" standalone="no"?>
<!DOCTYPE svg PUBLIC "-//W3C//DTD SVG 1.1//EN" "http://www.w3.org/Graphics/SVG/1.1/DTD/svg11.dtd">
<svg version="1.1" xmlns="http://www.w3.org/2000/svg" xmlns:xlink="http://www.w3.org/1999/xlink" preserveAspectRatio="xMidYMid meet" viewBox="24.600000072975178 43.56721203199997 589.3741704867226 541.1844016677102" width="585.37" height="537.18"><defs><path d="M397.53 301.9C577.46 296.04 596.24 156.2 595.96 96.37C595.91 87.64 586.8 80.55 575.65 80.55C564.46 80.55 555.35 87.69 555.35 96.46C555.35 110.65 542.28 122.2 526.21 122.2C523.48 122.2 509.85 122.2 485.31 122.2L485.31 107.19C509.85 107.19 523.48 107.19 526.21 107.19C533.87 107.19 540.34 102.27 540.34 96.46C540.34 79.41 556.18 65.53 575.65 65.53C595.04 65.53 610.88 79.33 610.97 96.29C611.21 146.41 596.54 310.43 398.01 316.9C398.01 316.9 397.58 303.4 397.53 301.9Z" id="a3hseSnuZx"></path><path d="M238.56 316.9C40.04 310.43 25.37 146.41 25.6 96.29C25.69 79.33 41.53 65.53 60.92 65.53C80.39 65.53 96.23 79.41 96.23 96.46C96.23 102.27 102.71 107.19 110.37 107.19C113.09 107.19 126.73 107.19 151.26 107.19L151.26 122.2C126.73 122.2 113.09 122.2 110.37 122.2C94.3 122.2 81.22 110.65 81.22 96.46C81.22 87.69 72.12 80.55 60.92 80.55C49.77 80.55 40.66 87.64 40.62 96.37C40.34 156.2 59.12 296.04 239.05 301.9C238.95 304.9 238.66 313.9 238.56 316.9Z" id="ad2jyYUKG"></path><path d="M318.29 44.57C205.42 44.57 142.72 44.57 130.18 44.57C121.74 44.57 114.91 50.94 114.91 58.8C114.91 66.66 121.74 73.04 130.18 73.04C131.19 73.04 139.31 73.04 140.33 73.04C140.33 73.04 125.6 233.9 221.15 321.97C276.09 372.6 360.49 372.6 415.43 321.97C510.98 233.9 496.24 73.04 496.24 73.04C497.26 73.04 505.38 73.04 506.4 73.04C514.83 73.04 521.67 66.66 521.67 58.8C521.67 50.94 514.83 44.57 506.4 44.57C506.4 44.57 443.69 44.57 318.29 44.57Z" id="e33HHLqMr1"></path><path d="M130.18 45.32C121.74 45.32 114.91 51.69 114.91 59.55C114.91 67.41 121.74 73.79 130.18 73.79C130.85 73.79 134.24 73.79 140.33 73.79L496.24 73.79C502.34 73.79 505.72 73.79 506.4 73.79C514.83 73.79 521.67 67.41 521.67 59.55C521.67 51.69 514.83 45.32 506.4 45.32C431.15 45.32 167.8 45.32 130.18 45.32Z" id="cErvHw6Xu"></path><path d="M292.27 350.69L344.3 350.69L344.3 505.5L292.27 505.5L292.27 350.69Z" id="h6e4oAZ8Op"></path><path d="M252.3 472.81C246.25 472.81 241.36 477.71 241.36 483.75C241.36 485.3 241.36 493.05 241.36 507L395.22 507C395.22 493.05 395.22 485.3 395.22 483.75C395.22 477.71 390.32 472.81 384.28 472.81C357.88 472.81 265.49 472.81 252.3 472.81Z" id="bI4Yo3GhX"></path><path d="M213.49 505.5C194.65 505.5 179.38 520.77 179.38 539.62C179.38 542.43 179.38 556.47 179.38 581.75L457.2 581.75C457.2 556.47 457.2 542.43 457.2 539.62C457.2 520.77 441.92 505.5 423.08 505.5C381.16 505.5 234.45 505.5 213.49 505.5Z" id="arSKhCn5v"></path><path d="M317.72 267.81C295.48 267.81 275.59 257.72 262.4 241.86C252.03 229.39 245.79 213.37 245.79 195.87C245.79 156.14 278 123.93 317.72 123.93C334.92 123.93 350.71 129.98 363.08 140.07C379.3 153.23 389.66 173.34 389.66 195.87C389.66 235.62 357.45 267.81 317.72 267.81Z" id="b8kXyWWim"></path><path d="M372.21 187.08C377.09 217.21 356.63 245.59 326.51 250.47C296.38 255.35 268 234.89 263.12 204.77C258.23 174.64 278.7 146.26 308.82 141.38C338.95 136.49 367.33 156.95 372.21 187.08Z" id="ac09AQNDy"></path><path d="M291.1 214.38L300.5 216.35L292.66 235.33L281.35 235.33L291.1 214.38Z" id="b52kbsUfXQ"></path><path d="M258.87 227.06L280.01 197.46L327.73 208.62L361.01 138.22L370.47 138.22L332.67 219.01L282 206.19L258.87 239.76L258.87 227.06Z" id="dlWhVnfq"></path><path d="M336.7 221.05L342.52 209.44L353.77 235.33L343.94 235.33L336.7 221.05Z" id="bCApDq4O7"></path><path d="M299.71 196.18L317.95 153.1L332.67 186.05L328.05 196.02L317.95 174.47L307.13 197.86L299.71 196.18Z" id="fWOxM81Fb"></path></defs><g><g><use xlink:href="#a3hseSnuZx" opacity="1" fill="#fcd462" fill-opacity="1"></use><g><use xlink:href="#a3hseSnuZx" opacity="1" fill-opacity="0" stroke="#000000" stroke-width="1" stroke-opacity="0"></use></g></g><g><use xlink:href="#ad2jyYUKG" opacity="1" fill="#fcd462" fill-opacity="1"></use><g><use xlink:href="#ad2jyYUKG" opacity="1" fill-opacity="0" stroke="#000000" stroke-width="1" stroke-opacity="0"></use></g></g><g><use xlink:href="#e33HHLqMr1" opacity="1" fill="#f7be56" fill-opacity="1"></use><g><use xlink:href="#e33HHLqMr1" opacity="1" fill-opacity="0" stroke="#000000" stroke-width="1" stroke-opacity="0"></use></g></g><g><use xlink:href="#cErvHw6Xu" opacity="1" fill="#fcd462" fill-opacity="1"></use><g><use xlink:href="#cErvHw6Xu" opacity="1" fill-opacity="0" stroke="#000000" stroke-width="1" stroke-opacity="0"></use></g></g><g><use xlink:href="#h6e4oAZ8Op" opacity="1" fill="#f7be56" fill-opacity="1"></use><g><use xlink:href="#h6e4oAZ8Op" opacity="1" fill-opacity="0" stroke="#000000" stroke-width="1" stroke-opacity="0"></use></g></g><g><use xlink:href="#bI4Yo3GhX" opacity="1" fill="#fcd462" fill-opacity="1"></use><g><use xlink:href="#bI4Yo3GhX" opacity="1" fill-opacity="0" stroke="#000000" stroke-width="1" stroke-opacity="0"></use></g></g><g><use xlink:href="#arSKhCn5v" opacity="1" fill="#f7be56" fill-opacity="1"></use><g><use xlink:href="#arSKhCn5v" opacity="1" fill-opacity="0" stroke="#000000" stroke-width="1" stroke-opacity="0"></use></g></g><g><use xlink:href="#b8kXyWWim" opacity="1" fill="#fcd462" fill-opacity="1"></use><g><use xlink:href="#b8kXyWWim" opacity="1" fill-opacity="0" stroke="#000000" stroke-width="1" stroke-opacity="0"></use></g></g><g><use xlink:href="#ac09AQNDy" opacity="1" fill="#efb250" fill-opacity="1"></use><g><use xlink:href="#ac09AQNDy" opacity="1" fill-opacity="0" stroke="#000000" stroke-width="1" stroke-opacity="0"></use></g></g><g><use xlink:href="#b52kbsUfXQ" opacity="1" fill="#f9de91" fill-opacity="1"></use><g><use xlink:href="#b52kbsUfXQ" opacity="1" fill-opacity="0" stroke="#000000" stroke-width="1" stroke-opacity="0"></use></g></g><g><use xlink:href="#dlWhVnfq" opacity="1" fill="#f9de91" fill-opacity="1"></use><g><use xlink:href="#dlWhVnfq" opacity="1" fill-opacity="0" stroke="#000000" stroke-width="1" stroke-opacity="0"></use></g></g><g><use xlink:href="#bCApDq4O7" opacity="1" fill="#f9de91" fill-opacity="1"></use><g><use xlink:href="#bCApDq4O7" opacity="1" fill-opacity="0" stroke="#000000" stroke-width="1" stroke-opacity="0"></use></g></g><g><use xlink:href="#fWOxM81Fb" opacity="1" fill="#f9de91" fill-opacity="1"></use><g><use xlink:href="#fWOxM81Fb" opacity="1" fill-opacity="0" stroke="#000000" stroke-width="1" stroke-opacity="0"></use></g></g></g></svg>
